<svg width="87" height="24" viewBox="0 0 87 24" fill="none" xmlns="http://www.w3.org/2000/svg">
<path fill-rule="evenodd" clip-rule="evenodd" d="M24.2458 20.6591L26.3831 0H29.9529L29.0488 8.59765C29.5889 7.82483 30.178 7.21991 30.816 6.78289C31.454 6.34588 32.1293 6.12738 32.8416 6.12738C33.3428 6.12738 33.8007 6.23087 34.2157 6.4379C34.6305 6.6449 34.9887 6.96921 35.2901 7.41081C35.5915 7.85243 35.8264 8.41594 35.9946 9.10136C36.163 9.78679 36.2472 10.6033 36.2472 11.5509C36.2472 12.8022 36.0847 13.9913 35.7597 15.1183C35.4349 16.2454 34.9985 17.2367 34.4504 18.0924C33.9025 18.9479 33.2704 19.6265 32.5541 20.1279C31.8377 20.6293 31.0881 20.8801 30.3052 20.8801C29.7024 20.8801 29.1721 20.7442 28.7141 20.4728C28.2561 20.2015 27.8667 19.845 27.5456 19.4034L27.5104 19.5414C27.321 20.209 26.7905 20.6591 26.1929 20.6591H24.2458ZM31.3855 9.37047C31.1273 9.37047 30.8591 9.48547 30.5811 9.71548C30.3033 9.94549 30.0352 10.2606 29.7768 10.6608C29.5185 11.061 29.2778 11.5302 29.0546 12.0685C28.8314 12.6067 28.6456 13.1794 28.4968 13.7866L28.1445 17.1263C28.3716 17.347 28.6261 17.5035 28.9078 17.5955C29.1897 17.6875 29.4598 17.7335 29.718 17.7335C30.1409 17.7335 30.5303 17.5678 30.8866 17.2367C31.2427 16.9055 31.55 16.4708 31.8084 15.9326C32.0666 15.3943 32.2682 14.7802 32.4131 14.0902C32.5578 13.4002 32.6303 12.6964 32.6303 11.9787C32.6303 11.0679 32.5168 10.4055 32.2898 9.99149C32.0627 9.57747 31.7614 9.37047 31.3855 9.37047ZM47.1916 20.6591H45.8243C44.8452 20.6591 44.0514 19.7242 44.0514 18.5708C44.0514 18.4753 44.0569 18.38 44.0679 18.2855C43.5669 19.0951 43.011 19.73 42.4005 20.1901C41.7898 20.6501 41.1165 20.8801 40.3807 20.8801C39.9422 20.8801 39.5195 20.7766 39.1124 20.5695C38.7053 20.3624 38.3453 20.0497 38.0321 19.631C37.7189 19.2124 37.4684 18.6789 37.2806 18.0302C37.0926 17.3816 36.9987 16.6157 36.9987 15.7325C36.9987 14.4352 37.2002 13.2047 37.6034 12.0408C38.0067 10.877 38.5703 9.85809 39.2944 8.98406C40.0186 8.11003 40.8777 7.41542 41.872 6.90021C42.8663 6.38498 43.9582 6.12738 45.1482 6.12738C45.7275 6.12738 46.3147 6.17338 46.9096 6.26538C47.5047 6.35739 48.0917 6.523 48.6712 6.7622L47.1916 20.6591ZM41.8368 17.499C42.1029 17.499 42.3613 17.3816 42.6118 17.147C42.8623 16.9123 43.0991 16.5927 43.3223 16.1879C43.5453 15.7831 43.7508 15.3092 43.9387 14.7664C44.1267 14.2236 44.2872 13.644 44.4203 13.0276L44.843 9.06687H44.6316C44.0365 9.06687 43.4945 9.22326 43.0052 9.53608C42.5159 9.84889 42.0952 10.2744 41.7429 10.8126C41.3906 11.3508 41.1184 11.9765 40.9267 12.6895C40.7349 13.4025 40.6391 14.1638 40.6391 14.9734C40.6391 15.4334 40.6703 15.8245 40.733 16.1465C40.7955 16.4685 40.8798 16.7284 40.9854 16.9262C41.0911 17.1241 41.2163 17.269 41.3612 17.361C41.506 17.4529 41.6646 17.499 41.8368 17.499ZM49.4931 20.6591L50.9727 6.34819H51.768C53.0336 6.34819 54.0596 7.55676 54.0596 9.0476C54.0596 9.13237 54.0561 9.21708 54.0493 9.30146C54.5191 8.32624 55.028 7.57643 55.576 7.052C56.124 6.52759 56.6915 6.26538 57.2787 6.26538C57.6075 6.26538 57.9323 6.35278 58.2534 6.52759L57.5958 10.4883C57.1964 10.2859 56.8168 10.1847 56.4566 10.1847C55.8538 10.1847 55.3197 10.5044 54.8539 11.1438C54.3881 11.7832 54.0103 12.8114 53.7205 14.2282L53.0629 20.6591H49.4931ZM59.4746 17.5678V17.3333C59.4746 17.2413 59.4805 17.1102 59.4921 16.94C59.504 16.7698 59.5236 16.5444 59.5509 16.2638C59.5783 15.9832 59.6156 15.6129 59.6625 15.1529L60.2848 9.30146H59.3102C59.1615 9.30146 59.0363 9.24397 58.9345 9.12897C58.8327 9.01396 58.7818 8.84147 58.7818 8.61146C58.7818 8.60225 58.7896 8.52175 58.8052 8.36994C58.821 8.21813 58.8366 8.05713 58.8522 7.88693C58.8679 7.71672 58.8835 7.55801 58.8993 7.41081C58.9149 7.26361 58.9226 7.18081 58.9226 7.16241L59.0091 6.37578L60.8016 6.34819L61.1219 3.82973C61.2415 2.88973 61.9269 2.19427 62.734 2.19427H64.5945L64.1483 6.37578H66.8727L66.8489 6.60428C66.688 8.14436 65.5776 9.30146 64.2603 9.30146H63.843L63.2558 14.9182C63.2167 15.2954 63.1873 15.5922 63.1677 15.8084C63.1482 16.0246 63.1325 16.1902 63.1209 16.3052C63.1128 16.3834 63.1049 16.4615 63.0973 16.5398C63.0934 16.5812 63.0915 16.6065 63.0915 16.6157C63.0915 16.8825 63.1442 17.1057 63.25 17.2851C63.3556 17.4645 63.5219 17.5541 63.7491 17.5541C63.8743 17.5541 63.978 17.538 64.0602 17.5059C64.115 17.4844 64.3088 17.3946 64.6415 17.2367L65.8393 19.6379C65.3539 20.052 64.8333 20.3624 64.2774 20.5695C63.7216 20.7766 63.1619 20.8801 62.5982 20.8801C62.1285 20.8801 61.7058 20.804 61.3299 20.6523C60.9543 20.5005 60.6313 20.2797 60.3612 19.9899C60.0912 19.7001 59.8798 19.3528 59.727 18.9479C59.5744 18.5432 59.4902 18.0831 59.4746 17.5678ZM77.6291 9.86729C77.6291 10.5205 77.5195 11.1185 77.3003 11.6613C77.0812 12.2042 76.6995 12.6849 76.1554 13.1035C75.6113 13.5221 74.8794 13.8786 73.9595 14.173C73.0396 14.4674 71.883 14.6974 70.4894 14.863C70.505 15.8383 70.6872 16.5513 71.0356 17.0021C71.3839 17.4529 71.8987 17.6782 72.5798 17.6782C72.9007 17.6782 73.1786 17.6461 73.4135 17.5817C73.6484 17.5173 73.8537 17.4345 74.0299 17.3333C75.0856 16.7269 76.3477 16.9328 77.2236 17.8546L77.3708 18.0096C76.9402 18.5063 76.5194 18.9365 76.1084 19.2999C75.6974 19.6632 75.2747 19.9622 74.8403 20.1969C74.4057 20.4315 73.9439 20.604 73.4545 20.7144C72.9652 20.8248 72.4309 20.8801 71.8516 20.8801C71.1314 20.8801 70.4698 20.7352 69.867 20.4454C69.2642 20.1556 68.7457 19.7461 68.3111 19.2171C67.8766 18.6881 67.5401 18.051 67.3012 17.3057C67.0624 16.5605 66.9431 15.7325 66.9431 14.8216C66.9431 14.058 67.0155 13.3128 67.1603 12.586C67.3052 11.8591 67.5126 11.176 67.7827 10.5366C68.0527 9.89719 68.3836 9.30838 68.775 8.77015C69.1663 8.23194 69.6067 7.76963 70.0961 7.38322C70.5854 6.9968 71.1216 6.6955 71.7048 6.47929C72.2881 6.26309 72.9086 6.15499 73.5661 6.15499C74.2158 6.15499 74.7932 6.26538 75.2982 6.48619C75.8031 6.707 76.2279 6.9945 76.5723 7.34871C76.9167 7.70292 77.1791 8.10084 77.359 8.54246C77.5391 8.98406 77.6291 9.42568 77.6291 9.86729ZM73.3548 9.03926C72.752 9.03926 72.2235 9.32217 71.7694 9.88799C71.3154 10.4538 70.9748 11.2289 70.7478 12.2134C71.5072 12.0754 72.1217 11.9305 72.5914 11.7786C73.0612 11.6268 73.4252 11.4612 73.6836 11.2818C73.9418 11.1024 74.1161 10.9092 74.206 10.7022C74.2962 10.4952 74.3412 10.2721 74.3412 10.0329C74.3412 9.79368 74.2629 9.56828 74.1063 9.35668C73.9497 9.14507 73.6992 9.03926 73.3548 9.03926ZM78.2398 20.6591L79.7194 6.34819H80.2888C81.6736 6.34819 82.796 7.67042 82.796 9.30146C83.2657 8.32624 83.7746 7.57643 84.3225 7.052C84.8706 6.52759 85.4382 6.26538 86.0254 6.26538C86.3542 6.26538 86.679 6.35278 86.9999 6.52759L86.3423 10.4883C85.9431 10.2859 85.5635 10.1847 85.2033 10.1847C84.6005 10.1847 84.0662 10.5044 83.6004 11.1438C83.1346 11.7832 82.7568 12.8114 82.4672 14.2282L81.8096 20.6591H78.2398Z" fill="black"/>
<path d="M15.0048 10.2115C17.8522 7.67023 23.7097 -1.41231 14.5573 0.187721C10.5709 0.846551 5.62917 4.69694 4.44952 9.49706C3.83408 8.21349 3.15499 6.97217 2.41564 5.77931C1.31735 4.13222 -0.859487 5.74078 0.360833 7.43493C3.81844 12.2821 6.21841 18.1175 6.21841 24C6.50316 21.0823 6.97154 17.1678 5.91392 13.6854C6.30093 13.9936 6.32896 14.0167 6.59836 14.3925C8.46952 17.6868 11.3438 20.4234 14.5573 21.7411C17.4862 23.0118 21.3911 22.2588 19.8048 17.1763C18.9505 14.3998 16.9572 11.9527 15.0048 10.2115Z" fill="#F5A623"/>
</svg>
