<svg width="114" height="26" viewBox="0 0 114 26" fill="none" xmlns="http://www.w3.org/2000/svg">
<path d="M12.5693 0C5.62743 0 0 5.51782 0 12.3246C0 19.1313 5.62743 24.6491 12.5693 24.6491C19.5113 24.6491 25.1387 19.1313 25.1387 12.3246C25.1387 5.51782 19.5113 0 12.5693 0ZM13.6969 20.4317C13.6925 20.4317 13.6895 20.4317 13.6851 20.4317C13.6631 20.4317 13.6425 20.4244 13.6262 20.4101C13.6071 20.3942 13.5968 20.3696 13.5968 20.3451V16.9215C13.5968 16.8811 13.6248 16.8465 13.6645 16.8378C15.3793 16.4424 16.7468 15.1001 17.1516 13.4172C17.1605 13.3782 17.1958 13.3508 17.237 13.3508H20.7271C20.7521 13.3508 20.7771 13.3608 20.7933 13.3796C20.8096 13.3984 20.8183 13.4229 20.8139 13.4489C20.3223 17.0774 17.3945 19.9482 13.6969 20.4317ZM20.7315 11.3762C20.7301 11.3762 20.7286 11.3762 20.7271 11.3762H17.2355C17.1943 11.3762 17.159 11.3489 17.1502 11.3099C16.6482 9.21703 14.7714 7.75642 12.587 7.75642C9.99481 7.75642 7.88693 9.82327 7.88693 12.3649C7.88693 14.5068 9.37662 16.3471 11.511 16.8392C11.5507 16.8479 11.5787 16.8825 11.5787 16.9229V20.3465C11.5787 20.3711 11.5684 20.3942 11.5492 20.4115C11.533 20.4259 11.5124 20.4331 11.4904 20.4331C11.486 20.4331 11.483 20.4331 11.4786 20.4331C7.37321 19.8947 4.27761 16.4265 4.27761 12.3664C4.27761 7.87333 8.00617 4.2174 12.587 4.2174C16.7204 4.2174 20.2502 7.24115 20.811 11.2536C20.8169 11.2651 20.8198 11.2781 20.8198 11.2911C20.8198 11.3373 20.7801 11.3762 20.7315 11.3762Z" fill="#222654"/>
<path d="M32.3855 12.3433C32.3855 11.2002 32.6063 10.1105 33.0494 9.07421C33.4925 8.03789 34.0945 7.14303 34.8584 6.38962C35.6224 5.6362 36.541 5.03578 37.617 4.58835C38.6915 4.14236 39.8338 3.91864 41.0437 3.91864C42.2537 3.91864 43.3886 4.1438 44.4485 4.59412C45.5083 5.04443 46.4401 5.67372 47.2409 6.48054L45.4038 8.50697C44.2675 7.20653 42.8131 6.55559 41.0423 6.55559C39.9854 6.55559 39.0168 6.81972 38.1351 7.34942C37.2534 7.87912 36.563 8.5878 36.064 9.47687C35.565 10.366 35.3148 11.3301 35.3148 12.365C35.3148 13.4085 35.5724 14.3697 36.0861 15.2487C36.5998 16.1277 37.2975 16.8234 38.1793 17.3329C39.061 17.8439 40.0237 18.0993 41.0658 18.0993C41.8313 18.0993 42.5909 17.9333 43.3445 17.6014C44.0981 17.2694 44.7414 16.835 45.2742 16.2995L47.0009 18.3144C46.1987 19.0721 45.2934 19.6653 44.2836 20.094C43.2738 20.5227 42.2007 20.7377 41.0644 20.7377C39.4982 20.7377 38.0512 20.3711 36.7235 19.6393C35.3957 18.9075 34.3418 17.8958 33.5587 16.6055C32.777 15.3151 32.3855 13.8949 32.3855 12.3433ZM48.9145 20.4476V4.1972H51.6686V10.7932C51.938 10.5925 52.1661 10.4367 52.3516 10.3256C52.5371 10.2144 52.8241 10.1033 53.2098 9.99219C53.5955 9.881 54.015 9.82475 54.4669 9.82475C55.0645 9.82475 55.618 9.91419 56.1287 10.0932C56.6395 10.2721 57.0973 10.5391 57.5065 10.8971C57.9142 11.2551 58.2337 11.7357 58.4634 12.339C58.693 12.9423 58.8078 13.6409 58.8078 14.4347V20.4476H56.0522V14.8807C56.0522 13.2396 55.3191 12.4183 53.8545 12.4183C52.3973 12.4183 51.6686 13.2252 51.6686 14.8374V20.4461H48.9145V20.4476ZM61.2027 7.7882C60.867 7.45911 60.6993 7.05643 60.6993 6.57724C60.6993 6.09806 60.867 5.69682 61.2027 5.37062C61.5383 5.04588 61.9534 4.88278 62.4495 4.88278C62.9382 4.88278 63.3459 5.043 63.6741 5.36485C64.0024 5.68671 64.1659 6.09084 64.1659 6.57581C64.1659 7.06221 64.0024 7.46777 63.6741 7.79252C63.3459 8.11727 62.9382 8.28037 62.4495 8.28037C61.9534 8.28181 61.5369 8.11727 61.2027 7.7882ZM61.0599 20.4476V10.0181H63.814V20.4476H61.0599ZM66.2973 26V10.0181H69.0513V10.7932C69.8609 10.148 70.8443 9.82475 72.0027 9.82475C73.5659 9.82475 74.8952 10.3545 75.9903 11.4124C77.0855 12.4703 77.633 13.7578 77.633 15.2747C77.633 16.2605 77.3843 17.1727 76.8853 18.0112C76.3863 18.8498 75.7047 19.5138 74.8392 20.003C73.9737 20.4923 73.0287 20.7363 72.0027 20.7363C70.8443 20.7363 69.8595 20.4144 69.0513 19.7721V26H66.2973ZM69.0528 15.4032C69.0896 16.1522 69.3929 16.796 69.9654 17.3344C70.5381 17.8727 71.2166 18.1426 72.0042 18.1426C72.8064 18.1426 73.4938 17.8597 74.0708 17.2925C74.6464 16.7253 74.9349 16.0526 74.9349 15.2762C74.9349 14.5055 74.6464 13.8372 74.0708 13.2699C73.4953 12.7027 72.8064 12.4198 72.0042 12.4198C71.2166 12.4198 70.5381 12.6912 69.9654 13.2324C69.3929 13.7751 69.0896 14.4159 69.0528 15.1578V15.4032ZM79.2081 26V10.0181H81.9622V10.7932C82.7718 10.148 83.7551 9.82475 84.9135 9.82475C86.4765 9.82475 87.806 10.3545 88.9009 11.4124C89.9959 12.4703 90.5443 13.7578 90.5443 15.2747C90.5443 16.2605 90.2951 17.1727 89.7959 18.0112C89.2976 18.8498 88.6156 19.5138 87.7499 20.003C86.8843 20.4923 85.9395 20.7363 84.9135 20.7363C83.7551 20.7363 82.7704 20.4144 81.9622 19.7721V26H79.2081ZM81.9637 15.4032C82.0004 16.1522 82.3037 16.796 82.8763 17.3344C83.4489 17.8727 84.1275 18.1426 84.9151 18.1426C85.7172 18.1426 86.4049 17.8597 86.9817 17.2925C87.5577 16.7253 87.8456 16.0526 87.8456 15.2762C87.8456 14.5055 87.5577 13.8372 86.9817 13.2699C86.4058 12.7027 85.7172 12.4198 84.9151 12.4198C84.1275 12.4198 83.4489 12.6912 82.8763 13.2324C82.3037 13.7751 82.0004 14.4159 81.9637 15.1578V15.4032ZM91.6065 15.3339C91.6065 14.5978 91.7358 13.8964 91.9953 13.2281C92.254 12.5598 92.6161 11.9738 93.0834 11.4701C93.5498 10.9664 94.131 10.5666 94.8259 10.2693C95.5225 9.97338 96.2821 9.82475 97.1046 9.82475C98.1246 9.82475 99.0463 10.0744 99.8705 10.5753C100.693 11.076 101.332 11.7385 101.784 12.5641C102.236 13.3897 102.461 14.2918 102.461 15.2704C102.461 15.5778 102.439 15.8636 102.395 16.1277H94.2844C94.4448 16.7815 94.7845 17.304 95.3061 17.6951C95.8269 18.0863 96.4735 18.2812 97.246 18.2812C97.7556 18.2812 98.2436 18.1859 98.7109 17.994C99.1773 17.802 99.5601 17.5133 99.8585 17.1294L101.738 18.5929C101.257 19.2611 100.62 19.7836 99.8248 20.1647C99.0299 20.5443 98.1781 20.7348 97.2667 20.7348C96.2166 20.7348 95.2587 20.4995 94.3913 20.0276C93.5248 19.5556 92.8429 18.9061 92.3471 18.0762C91.8557 17.2492 91.6065 16.3341 91.6065 15.3339ZM94.3844 14.1446H99.686C99.6067 13.6163 99.3187 13.1732 98.8221 12.8153C98.3264 12.4588 97.7478 12.2799 97.0839 12.2799C96.4494 12.2799 95.8933 12.4502 95.4122 12.7893C94.9302 13.1285 94.5871 13.5803 94.3844 14.1446ZM104.175 20.4476V10.0181H106.928V10.7932C107.438 10.4208 107.987 10.1653 108.574 10.0297C109.161 9.894 109.975 9.82475 111.018 9.82475V12.4183C110.326 12.4183 109.733 12.4573 109.241 12.5367C108.749 12.6146 108.354 12.7244 108.054 12.8629C107.756 13.0014 107.523 13.1934 107.355 13.4359C107.188 13.6784 107.074 13.9339 107.017 14.2009C106.958 14.4679 106.93 14.7955 106.93 15.1809V20.4476H104.175ZM111.018 5.67661C111.018 5.47743 111.057 5.28691 111.137 5.1065C111.217 4.92608 111.323 4.7702 111.457 4.64031C111.59 4.51041 111.75 4.40649 111.933 4.32999C112.119 4.2535 112.312 4.21453 112.514 4.21453C112.715 4.21453 112.908 4.2535 113.092 4.32999C113.276 4.40793 113.434 4.51185 113.566 4.64175C113.698 4.77165 113.804 4.92897 113.882 5.10938C113.96 5.2898 114 5.47743 114 5.67372C114 5.87002 113.96 6.05765 113.882 6.23951C113.803 6.42136 113.698 6.57724 113.565 6.70859C113.432 6.83993 113.273 6.94385 113.089 7.02323C112.905 7.10117 112.712 7.14015 112.509 7.14015C112.239 7.14015 111.991 7.07519 111.761 6.94529C111.533 6.8154 111.351 6.63787 111.217 6.41271C111.084 6.18755 111.018 5.94218 111.018 5.67661ZM111.299 5.67661C111.299 5.83537 111.33 5.98548 111.393 6.12982C111.457 6.27415 111.542 6.39828 111.65 6.50364C111.757 6.609 111.885 6.69271 112.035 6.75622C112.185 6.81828 112.343 6.85004 112.51 6.85004C112.731 6.85004 112.936 6.79663 113.121 6.69127C113.307 6.58591 113.454 6.44301 113.56 6.2626C113.667 6.08363 113.721 5.88734 113.721 5.67517C113.721 5.46012 113.667 5.25949 113.56 5.07619C113.454 4.89289 113.307 4.74567 113.118 4.63742C112.932 4.52917 112.727 4.47432 112.506 4.47432C112.285 4.47432 112.082 4.52917 111.896 4.63742C111.711 4.74567 111.565 4.89144 111.459 5.07619C111.352 5.25949 111.299 5.46012 111.299 5.67661ZM111.925 6.50508V4.83949H112.443C112.508 4.83949 112.564 4.84092 112.609 4.84237C112.655 4.84382 112.706 4.84959 112.764 4.8568C112.821 4.86402 112.87 4.87413 112.908 4.88712C112.947 4.90011 112.987 4.91742 113.027 4.94196C113.067 4.96506 113.099 4.99392 113.124 5.02567C113.149 5.05743 113.168 5.09784 113.184 5.14691C113.199 5.19599 113.209 5.25083 113.209 5.31145C113.209 5.57991 113.068 5.74445 112.787 5.80795L113.209 6.50941H112.868L112.462 5.83105H112.208V6.50652H111.925V6.50508ZM112.208 5.58135H112.518C112.578 5.58135 112.631 5.57847 112.674 5.5727C112.716 5.56692 112.758 5.55682 112.796 5.53949C112.836 5.52362 112.865 5.49764 112.886 5.463C112.907 5.42836 112.917 5.38506 112.917 5.33166C112.917 5.2364 112.884 5.17145 112.818 5.1397C112.752 5.10794 112.652 5.09062 112.518 5.09062H112.208V5.58135Z" fill="#222654"/>
</svg>
