<svg width="85" height="32" viewBox="0 0 85 32" fill="none" xmlns="http://www.w3.org/2000/svg">
<path fill-rule="evenodd" clip-rule="evenodd" d="M16.6639 13.8974H15.7787C15.1871 13.8974 14.9416 13.5243 14.9416 12.9858V9.127H16.6639V8.03892H14.9416V5.98657H13.7009V12.9688C13.7009 14.4402 14.4479 15.0686 15.777 15.0686H16.6639V13.8974Z" fill="#0072A9"/>
<path fill-rule="evenodd" clip-rule="evenodd" d="M4.72705 11.7451V11.796C4.72705 14.2953 6.79365 15.1883 8.72889 15.1883C10.6178 15.1883 12.5229 14.2936 12.5229 12.3159C12.5229 10.395 10.9243 9.87512 9.42605 9.53844L8.90318 9.42649C7.56036 9.13645 6.39699 8.8922 6.39699 7.90504C6.39699 6.49723 7.86172 6.33694 8.48934 6.33694C9.87251 6.33694 10.677 6.9959 10.8118 8.22731V8.27225H12.1186V8.21883C12.0439 6.28436 10.7397 5.17847 8.53914 5.17847C6.78678 5.17847 5.01897 6.04775 5.01897 7.99748C5.01897 9.73519 6.49057 10.1957 8.1296 10.5493L8.45242 10.6197C9.83645 10.9106 11.1441 11.1871 11.1441 12.3558C11.1441 13.806 9.65701 14.0214 8.76838 14.0214C8.0197 14.0214 7.34314 13.8323 6.86319 13.4905C6.32143 13.1012 6.03552 12.5177 6.03552 11.7943V11.7434L4.72705 11.7451Z" fill="#0072A9"/>
<path fill-rule="evenodd" clip-rule="evenodd" d="M24.1287 13.9375L24.0591 13.9621C23.9542 14.0031 23.8423 14.0244 23.7294 14.0248C23.4306 14.0248 23.4169 13.8654 23.4169 13.3107V9.79037C23.4169 8.48772 22.5515 7.85675 20.7682 7.85675C19.6864 7.85675 17.861 8.15866 17.7812 10.1974V10.2509H19.0193V10.2025C19.0656 9.35445 19.6014 8.94992 20.7004 8.94992C21.7135 8.94992 22.19 9.29424 22.19 10.0414C22.19 10.663 21.5521 10.7512 20.6737 10.8734C20.423 10.9081 20.168 10.9446 19.901 10.9955C18.693 11.2245 17.5125 11.5798 17.5125 13.153C17.5125 14.3827 18.3908 15.1256 19.8572 15.1256C20.8429 15.1256 21.6439 14.7813 22.2613 14.1274C22.3093 14.9348 22.8253 15.1256 23.2658 15.1256C23.5608 15.1377 23.8533 15.0684 24.1106 14.9255L24.1355 14.9102V13.9375H24.1287ZM20.1088 14.0223C19.7224 14.0223 18.8209 13.9298 18.8209 13.0699C18.8209 12.2413 19.5078 12.0013 20.1723 11.8826C20.3758 11.8487 20.593 11.8198 20.8 11.7978C21.3331 11.7299 21.8371 11.6638 22.1788 11.4653V12.5305C22.1788 13.108 21.6156 14.024 20.1097 14.024L20.1088 14.0223Z" fill="#0072A9"/>
<path fill-rule="evenodd" clip-rule="evenodd" d="M25.2263 8.03884V14.9846H26.4704V11.0682C26.4704 9.76044 27.2148 8.97257 28.4675 8.97257C29.302 8.97257 29.8232 9.48736 29.8232 10.3024V14.9846H31.0664V10.4347C31.0664 8.71391 30.267 7.88025 28.6272 7.88025C27.6295 7.88025 26.8842 8.26612 26.3991 9.03363V8.03884H25.2263Z" fill="#0072A9"/>
<path fill-rule="evenodd" clip-rule="evenodd" d="M37.6608 5.4292V8.88342C37.1354 8.14983 36.1858 7.88015 35.4509 7.88015C33.4942 7.88015 32.2329 9.29389 32.2329 11.4904C32.2329 12.4988 32.5231 13.4054 33.0417 14.0482C33.6169 14.7623 34.4601 15.1507 35.4775 15.1507C36.4949 15.1507 37.2805 14.781 37.6608 14.1483V14.9845H38.9049V5.4292H37.6608ZM35.6372 14.0516C34.1922 14.0516 33.5422 12.8117 33.5422 11.5735C33.5422 10.795 33.7397 8.97671 35.5719 8.97671C37.5467 8.97671 37.7012 10.9273 37.7012 11.5209C37.7012 12.7498 37.1612 14.0525 35.6406 14.0525L35.6372 14.0516Z" fill="#0072A9"/>
<path fill-rule="evenodd" clip-rule="evenodd" d="M46.7706 13.9604L46.7028 13.985C46.5975 14.0259 46.4854 14.0472 46.3722 14.0478C46.0674 14.0478 46.0546 13.8883 46.0546 13.3345V9.81161C46.0546 8.50896 45.19 7.87799 43.4119 7.87799C42.3258 7.87799 40.503 8.17991 40.4214 10.2178V10.2713H41.6638V10.2238C41.7102 9.37569 42.2416 8.97031 43.3432 8.97031C44.358 8.97031 44.8294 9.32311 44.8294 10.0618C44.8294 10.6834 44.1957 10.7716 43.3174 10.8938C43.0641 10.9285 42.8091 10.965 42.5387 11.0159C41.3367 11.2457 40.1553 11.601 40.1553 13.1734C40.1553 14.4031 41.0276 15.146 42.4966 15.146C43.4831 15.146 44.285 14.8017 44.8929 14.1478C44.941 14.9552 45.4561 15.146 45.8966 15.146C46.1931 15.1594 46.4873 15.0901 46.7457 14.9459L46.7706 14.9314V13.9604ZM42.7542 14.052C42.3678 14.052 41.4706 13.9595 41.4706 13.1004C41.4706 12.2719 42.1498 12.0319 42.816 11.9131C43.0195 11.8792 43.2316 11.8504 43.4453 11.8283C43.9794 11.7596 44.4834 11.6935 44.8191 11.495V12.5602C44.8148 13.1327 44.2567 14.052 42.7542 14.052Z" fill="#0072A9"/>
<path fill-rule="evenodd" clip-rule="evenodd" d="M51.5989 7.88118H51.5499C50.3891 7.84386 49.6095 8.30522 49.0249 9.37973V8.03892H47.8555V14.9847H49.0935V11.8892C49.0935 10.0412 49.88 9.17534 51.5491 9.17534H51.6006V7.88627L51.5989 7.88118Z" fill="#0072A9"/>
<path fill-rule="evenodd" clip-rule="evenodd" d="M57.2018 5.4292V8.88342C56.6755 8.14983 55.7302 7.88015 54.9849 7.88015C53.0385 7.88015 51.7712 9.29389 51.7712 11.4904C51.7712 12.4988 52.058 13.4054 52.5852 14.0482C53.1613 14.7623 54.0001 15.1507 55.0175 15.1507C56.035 15.1507 56.8206 14.7793 57.2018 14.1483V14.9845H58.4493V5.4292H57.2018ZM55.1807 14.0516C53.7314 14.0516 53.0857 12.8117 53.0857 11.5735C53.0857 10.795 53.2823 8.97671 55.1154 8.97671C57.0901 8.97671 57.2413 10.9273 57.2413 11.5209C57.2413 12.7498 56.7004 14.0525 55.1807 14.0525V14.0516Z" fill="#0072A9"/>
<path fill-rule="evenodd" clip-rule="evenodd" d="M7.29793 24.6334V24.6792C7.17 26.3278 6.13455 27.3599 4.59254 27.3599C3.52704 27.3599 2.70367 26.9758 2.14559 26.2057C1.64075 25.5315 1.37373 24.5799 1.37373 23.4486C1.37373 22.419 1.64761 21.4904 2.13357 20.8246C2.69165 20.0724 3.53477 19.6763 4.56936 19.6763C5.9697 19.6763 6.94848 20.4108 7.19661 21.649L7.20434 21.6905H8.57807L8.56862 21.6329C8.42868 20.655 7.96075 19.8519 7.21808 19.3066C6.51834 18.7901 5.60395 18.517 4.58138 18.517C3.16902 18.517 1.98933 19.0259 1.16681 19.9927C0.418128 20.8815 0 22.1476 0 23.541C0 26.6102 1.71716 28.5193 4.47749 28.5193C5.66319 28.5193 6.67374 28.1656 7.39666 27.5016C8.11959 26.8375 8.5463 25.8673 8.6665 24.691L8.67165 24.6368L7.29793 24.6334Z" fill="#0072A9"/>
<path fill-rule="evenodd" clip-rule="evenodd" d="M9.86206 18.7319V28.299H11.1036V24.3801C11.1036 23.0639 11.854 22.2836 13.1015 22.2836C13.9403 22.2836 14.458 22.7925 14.458 23.6066V28.299H15.7013V23.7372C15.7013 22.025 14.9062 21.193 13.2663 21.193C12.5288 21.193 11.5492 21.4695 11.1036 22.2455V18.7319H9.86206Z" fill="#0072A9"/>
<path fill-rule="evenodd" clip-rule="evenodd" d="M18.3028 23.5784V23.5292C18.3484 22.6811 18.8798 22.2842 19.9805 22.2842C20.9988 22.2842 21.4693 22.6294 21.4693 23.3698C21.4693 23.9982 20.8357 24.0872 19.9539 24.2094C19.7066 24.2433 19.4508 24.2797 19.1812 24.3315C17.9723 24.5605 16.7917 24.9158 16.7917 26.4805C16.7917 27.717 17.6692 28.4531 19.1365 28.4531C20.1179 28.4531 20.9241 28.1139 21.5311 27.4634C21.58 28.27 22.0995 28.4531 22.5408 28.4531C22.8954 28.4531 23.1624 28.3912 23.3822 28.2606L23.4062 28.2462V27.2735L23.3376 27.2972C23.2327 27.3386 23.1208 27.3599 23.0079 27.36C22.7117 27.36 22.6988 27.2014 22.6988 26.6383V23.1179C22.6988 21.822 21.8299 21.1919 20.0458 21.1919C18.9648 21.1919 17.1403 21.4955 17.0588 23.525V23.5784H18.3028ZM19.3941 27.36C19.0043 27.36 18.1062 27.2675 18.1062 26.3999C18.1062 25.5714 18.7871 25.3398 19.4585 25.2237C19.6611 25.1872 19.8732 25.1609 20.0784 25.1346C20.6176 25.0668 21.1233 25.0006 21.4598 24.8005V25.858C21.4598 26.4373 20.9001 27.36 19.3993 27.36H19.3941Z" fill="#0072A9"/>
<path fill-rule="evenodd" clip-rule="evenodd" d="M58.4493 28.2998V18.7419H57.2018V22.1936C56.6755 21.4592 55.7302 21.1895 54.9849 21.1895C53.0385 21.1895 51.7712 22.6041 51.7712 24.8006C51.7712 25.8005 52.058 26.7139 52.5852 27.3584C53.1613 28.0716 54.0001 28.4507 55.0175 28.4507C56.035 28.4507 56.8206 28.0869 57.2018 27.4551V28.2998H58.4493ZM55.1807 27.3669C53.7314 27.3669 53.0857 26.1185 53.0857 24.8897C53.0857 24.1111 53.2823 22.2912 55.1154 22.2912C57.0901 22.2912 57.2413 24.2417 57.2413 24.8354C57.2413 26.0566 56.7004 27.3669 55.1807 27.3669Z" fill="#0072A9"/>
<path fill-rule="evenodd" clip-rule="evenodd" d="M38.0034 26.1401C37.7913 26.9279 37.1894 27.3596 36.2862 27.3596C35.6457 27.3596 35.1091 27.162 34.7408 26.7863C34.3681 26.3962 34.1707 25.8416 34.181 25.2097H39.3625V25.1606C39.4123 23.9258 39.0285 22.7546 38.3322 22.0422C37.7793 21.4773 37.0555 21.1941 36.172 21.1941C34.2548 21.1941 32.863 22.7096 32.863 24.8052C32.9377 27.1281 34.1698 28.4519 36.2381 28.4519C37.8222 28.4519 38.9117 27.6115 39.2363 26.1392L38.0034 26.1401ZM36.1102 22.2839C37.1482 22.2839 37.969 23.0667 38.048 24.1183H34.1844C34.2754 23.1922 34.8979 22.2839 36.1085 22.2839H36.1102Z" fill="#0072A9"/>
<path fill-rule="evenodd" clip-rule="evenodd" d="M49.5997 26.1562C49.3842 26.9347 48.7754 27.3596 47.8825 27.3596C47.2428 27.3596 46.7114 27.162 46.3431 26.7863C45.961 26.3962 45.7661 25.8416 45.7747 25.2097H50.9614V25.1606C51.0103 23.9258 50.6274 22.7546 49.9311 22.0422C49.3824 21.4773 48.6509 21.1941 47.7717 21.1941C45.8502 21.1941 44.4653 22.7096 44.4653 24.8052C44.5375 27.1281 45.7661 28.4519 47.8387 28.4519C49.4211 28.4519 50.5003 27.6174 50.8326 26.1553L49.5997 26.1562ZM47.7065 22.2839C48.7411 22.2839 49.5679 23.0667 49.6477 24.1183H45.7781C45.87 23.1922 46.501 22.2839 47.7065 22.2839Z" fill="#0072A9"/>
<path fill-rule="evenodd" clip-rule="evenodd" d="M25.7425 28.2994V25.198C25.7425 23.3424 26.5246 22.4842 28.198 22.4842H28.2504V21.1951H28.2006C27.0355 21.1578 26.2516 21.6191 25.6755 22.6852V21.3452H24.501V28.2994H25.7425Z" fill="#0072A9"/>
<path fill-rule="evenodd" clip-rule="evenodd" d="M41.8327 28.2994V25.198C41.8327 23.3424 42.6097 22.4842 44.2874 22.4842H44.3389V21.1951H44.29C43.1206 21.1578 42.341 21.6191 41.7649 22.6852V21.3452H40.5903V28.2994H41.8327Z" fill="#0072A9"/>
<path fill-rule="evenodd" clip-rule="evenodd" d="M32.2454 27.2093H31.3645C30.7687 27.2093 30.524 26.8362 30.524 26.2892V22.4389H32.2454V21.35H30.524V19.2993H29.2825V26.2722C29.2825 27.7521 30.0337 28.3814 31.3619 28.3814H32.2454V27.2093Z" fill="#0072A9"/>
<path fill-rule="evenodd" clip-rule="evenodd" d="M70.3391 30.9048C69.49 31.4043 68.7199 31.702 67.9119 31.702C65.8204 31.702 64.0724 30.0058 63.9719 27.9764L68.0476 25.578L74.3822 28.3767L70.3391 30.9065V30.9048Z" fill="#71B0D1"/>
<path fill-rule="evenodd" clip-rule="evenodd" d="M72.7592 20.601L69.7336 19.2839C68.3805 18.6903 67.1038 18.1899 67.1038 16.7202C67.1038 15.9569 67.3382 15.5583 67.7048 15.1606L74.1098 17.9525L72.5222 18.8574C72.0852 19.1228 71.7822 19.356 71.7822 19.6885C71.7822 20.0481 72.1986 20.3542 72.7592 20.6053V20.601Z" fill="#A4D0A0"/>
<path fill-rule="evenodd" clip-rule="evenodd" d="M75.7335 6.80413L72.6306 8.66397C72.355 8.82849 71.9867 9.09309 71.9867 9.50187C71.9867 9.96576 72.7028 10.322 73.3398 10.6205L69.4565 8.92433C68.3128 8.42735 67.1718 7.86253 67.1718 6.50052C67.1659 5.98976 67.3181 5.4894 67.608 5.06642L76.0023 0C77.0085 0.563124 77.9839 1.70294 77.9839 3.23033C77.9839 4.86627 77.1451 5.96114 75.7335 6.79989V6.80413Z" fill="#71B0D1"/>
<path fill-rule="evenodd" clip-rule="evenodd" d="M82.3374 12.7943L81.5647 13.2259L75.1528 10.4273L82.6053 5.99438C83.6107 6.56769 84.5972 7.69648 84.5972 9.22302C84.5972 10.8581 83.7807 11.9861 82.3348 12.7909L82.3374 12.7943Z" fill="#A4D0A0"/>
<path fill-rule="evenodd" clip-rule="evenodd" d="M76.9221 18.1723L80.7145 19.8184C82.1354 20.4477 82.5724 21.1855 82.5724 22.1176C82.5724 22.6476 82.2694 23.1802 81.8341 23.5457L75.4565 20.7471L76.5358 20.1534C77.4476 19.6556 77.7507 19.3562 77.7507 19.0246C77.7507 18.6795 77.5377 18.4522 76.9221 18.1765V18.1723Z" fill="#71B0D1"/>
<path fill-rule="evenodd" clip-rule="evenodd" d="M83.6816 32C82.0683 30.7729 80.3469 29.9426 78.2545 29.0046L68.5834 24.7786C66.1537 23.7084 64.543 22.2827 64.543 19.8827C64.543 17.5505 65.6857 16.4217 67.1719 15.493L67.7086 15.1606C67.3394 15.5583 67.1075 15.9569 67.1075 16.7202C67.1075 18.1899 68.3843 18.6869 69.7374 19.2839L80.9848 24.1816C82.9415 25.0119 84.7325 26.44 84.7325 28.8715C84.7325 30.208 84.2173 31.4038 83.6807 32H83.6816Z" fill="#22A947"/>
<path fill-rule="evenodd" clip-rule="evenodd" d="M82.5403 23.1111L81.8354 23.5445C82.2707 23.179 82.5738 22.6464 82.5738 22.1163C82.5738 21.1834 82.1359 20.4464 80.7158 19.8172L68.6871 14.5862C66.259 13.5261 64.7471 12.1556 64.7471 9.7666C64.7471 7.56669 65.8555 6.13004 67.6113 5.06995C67.3206 5.49239 67.1676 5.99245 67.1726 6.5032C67.1726 7.86521 68.3136 8.43003 69.4572 8.927L81.1519 14.0223C83.2786 14.9551 85.0001 16.3545 85.0001 18.9191C85.0001 20.9197 84.0557 22.1808 82.5403 23.1103V23.1111Z" fill="#0072A9"/>
</svg>
