<svg width="74" height="20" viewBox="0 0 74 20" fill="none" xmlns="http://www.w3.org/2000/svg">
<path fill-rule="evenodd" clip-rule="evenodd" d="M20.6768 17.1845L22.4919 0.0563965H25.5238L24.7559 7.18454C25.2146 6.5438 25.7149 6.04227 26.2568 5.67995C26.7986 5.31763 27.3721 5.13648 27.9772 5.13648C28.4028 5.13648 28.7917 5.22229 29.1441 5.39393C29.4964 5.56555 29.8006 5.83443 30.0567 6.20055C30.3126 6.56669 30.5121 7.03388 30.655 7.60215C30.798 8.17043 30.8695 8.84738 30.8695 9.63304C30.8695 10.6704 30.7315 11.6563 30.4555 12.5907C30.1796 13.5251 29.8089 14.347 29.3435 15.0564C28.8782 15.7657 28.3413 16.3283 27.7329 16.744C27.1245 17.1597 26.4879 17.3676 25.823 17.3676C25.311 17.3676 24.8606 17.255 24.4717 17.03C24.0826 16.805 23.7519 16.5095 23.4792 16.1433L23.4493 16.2578C23.2885 16.8113 22.8379 17.1845 22.3304 17.1845H20.6768ZM26.7405 7.82526C26.5211 7.82526 26.2934 7.92061 26.0573 8.1113C25.8214 8.302 25.5936 8.56324 25.3741 8.89505C25.1548 9.22687 24.9504 9.61588 24.7608 10.0621C24.5713 10.5083 24.4135 10.9831 24.2871 11.4866L23.9879 14.2554C24.1808 14.4385 24.3969 14.5682 24.6362 14.6445C24.8756 14.7207 25.105 14.7589 25.3243 14.7589C25.6834 14.7589 26.0141 14.6215 26.3167 14.347C26.6191 14.0724 26.8802 13.712 27.0996 13.2658C27.3189 12.8195 27.4901 12.3104 27.6132 11.7383C27.7361 11.1662 27.7976 10.5827 27.7976 9.98773C27.7976 9.23258 27.7013 8.68338 27.5085 8.34013C27.3156 7.99688 27.0597 7.82526 26.7405 7.82526ZM40.1645 17.1845H39.0033C38.1717 17.1845 37.4975 16.4093 37.4975 15.4531C37.4975 15.3739 37.5022 15.2949 37.5116 15.2165C37.0861 15.8878 36.614 16.4142 36.0954 16.7956C35.5768 17.177 35.005 17.3676 34.38 17.3676C34.0076 17.3676 33.6486 17.2818 33.3029 17.1101C32.9571 16.9385 32.6514 16.6792 32.3854 16.3321C32.1194 15.985 31.9067 15.5426 31.7471 15.0049C31.5875 14.4671 31.5077 13.8321 31.5077 13.0999C31.5077 12.0243 31.6789 11.0041 32.0213 10.0392C32.3638 9.0743 32.8425 8.22954 33.4574 7.5049C34.0725 6.78026 34.8022 6.20437 35.6466 5.77722C36.491 5.35005 37.4185 5.13648 38.4291 5.13648C38.9211 5.13648 39.4198 5.17462 39.9251 5.2509C40.4305 5.32718 40.929 5.46448 41.4212 5.6628L40.1645 17.1845ZM35.6167 14.5645C35.8427 14.5645 36.0622 14.4671 36.2749 14.2726C36.4877 14.0781 36.6888 13.8131 36.8783 13.4774C37.0678 13.1418 37.2423 12.749 37.4018 12.2989C37.5615 11.8489 37.6978 11.3684 37.8108 10.8573L38.1699 7.57355H37.9903C37.4849 7.57355 37.0246 7.70322 36.609 7.96256C36.1934 8.22191 35.8362 8.57469 35.537 9.02091C35.2377 9.46715 35.0066 9.98583 34.8437 10.577C34.6809 11.1681 34.5995 11.7993 34.5995 12.4706C34.5995 12.852 34.626 13.1761 34.6792 13.4431C34.7323 13.7101 34.8039 13.9256 34.8936 14.0896C34.9834 14.2536 35.0897 14.3738 35.2128 14.45C35.3357 14.5263 35.4705 14.5645 35.6167 14.5645ZM42.1192 17.1845L43.3759 5.31955H44.0512C45.1261 5.31955 45.9975 6.32155 45.9975 7.55758C45.9975 7.62786 45.9945 7.69809 45.9888 7.76805C46.3877 6.95951 46.8199 6.33786 47.2854 5.90306C47.7508 5.46829 48.2328 5.2509 48.7315 5.2509C49.0107 5.2509 49.2866 5.32336 49.5593 5.46829L49.0008 8.75204C48.6616 8.58423 48.3392 8.50031 48.0333 8.50031C47.5213 8.50031 47.0677 8.76538 46.6721 9.29551C46.2765 9.82565 45.9557 10.678 45.7095 11.8527L45.1511 17.1845H42.1192ZM50.5965 14.6215V14.4271C50.5965 14.3508 50.6014 14.2421 50.6114 14.101C50.6214 13.9599 50.638 13.773 50.6612 13.5404C50.6846 13.3077 50.7162 13.0007 50.756 12.6193L51.2846 7.76805H50.4568C50.3305 7.76805 50.2242 7.72038 50.1377 7.62504C50.0513 7.52969 50.0081 7.38668 50.0081 7.19598C50.0081 7.18834 50.0147 7.12161 50.0279 6.99575C50.0414 6.86988 50.0546 6.7364 50.0679 6.59529C50.0812 6.45418 50.0944 6.32259 50.1078 6.20055C50.1211 6.07851 50.1277 6.00986 50.1277 5.99461L50.2012 5.34243L51.7235 5.31955L51.9955 3.23155C52.0971 2.45222 52.6792 1.87562 53.3647 1.87562H54.9448L54.5658 5.34243H56.8797L56.8594 5.53187C56.7228 6.80872 55.7797 7.76805 54.661 7.76805H54.3065L53.8078 12.4248C53.7746 12.7375 53.7497 12.9835 53.733 13.1628C53.7164 13.342 53.7031 13.4793 53.6932 13.5747C53.6863 13.6395 53.6797 13.7043 53.6733 13.7692C53.6699 13.8035 53.6683 13.8245 53.6683 13.8321C53.6683 14.0533 53.7131 14.2383 53.8029 14.3871C53.8926 14.5358 54.0339 14.6101 54.2268 14.6101C54.3331 14.6101 54.4212 14.5968 54.491 14.5701C54.5375 14.5524 54.7021 14.4779 54.9847 14.347L56.002 16.3378C55.5897 16.6811 55.1476 16.9385 54.6755 17.1101C54.2035 17.2818 53.7281 17.3676 53.2494 17.3676C52.8504 17.3676 52.4914 17.3046 52.1722 17.1788C51.8531 17.0529 51.5789 16.8699 51.3495 16.6296C51.1201 16.3893 50.9406 16.1014 50.8108 15.7657C50.6812 15.4301 50.6098 15.0488 50.5965 14.6215ZM66.015 8.23716C66.015 8.77873 65.922 9.27454 65.7358 9.72458C65.5497 10.1746 65.2256 10.5732 64.7635 10.9202C64.3014 11.2673 63.6797 11.5629 62.8985 11.807C62.1172 12.051 61.1349 12.2417 59.9513 12.379C59.9646 13.1876 60.1193 13.7787 60.4152 14.1525C60.711 14.5263 61.1482 14.7131 61.7267 14.7131C61.9992 14.7131 62.2353 14.6864 62.4347 14.6331C62.6342 14.5796 62.8086 14.511 62.9582 14.4271C63.8548 13.9243 64.9268 14.095 65.6706 14.8593L65.7957 14.9878C65.43 15.3996 65.0726 15.7563 64.7235 16.0575C64.3744 16.3588 64.0154 16.6067 63.6465 16.8013C63.2774 16.9957 62.8852 17.1388 62.4696 17.2303C62.054 17.3218 61.6002 17.3676 61.1082 17.3676C60.4965 17.3676 59.9347 17.2475 59.4227 17.0072C58.9108 16.767 58.4704 16.4275 58.1013 15.9889C57.7323 15.5503 57.4465 15.0221 57.2436 14.4042C57.0408 13.7864 56.9394 13.0999 56.9394 12.3447C56.9394 11.7116 57.001 11.0938 57.1239 10.4912C57.247 9.88857 57.4231 9.32222 57.6525 8.79208C57.8819 8.26195 58.1629 7.77379 58.4953 7.32755C58.8276 6.88133 59.2017 6.49804 59.6173 6.17768C60.0328 5.8573 60.4882 5.60749 60.9836 5.42825C61.4789 5.24899 62.0059 5.15937 62.5644 5.15937C63.1162 5.15937 63.6065 5.2509 64.0354 5.43397C64.4643 5.61704 64.825 5.8554 65.1175 6.14906C65.41 6.44273 65.6328 6.77263 65.7857 7.13877C65.9386 7.5049 66.015 7.87104 66.015 8.23716ZM62.3849 7.55066C61.8729 7.55066 61.4241 7.78522 61.0384 8.25433C60.6528 8.72344 60.3636 9.36607 60.1708 10.1822C60.8157 10.0678 61.3376 9.94769 61.7366 9.82183C62.1355 9.69597 62.4447 9.55868 62.6641 9.40993C62.8834 9.26119 63.0314 9.10101 63.1079 8.92938C63.1844 8.75776 63.2226 8.57279 63.2226 8.37447C63.2226 8.17613 63.1561 7.98926 63.0231 7.81383C62.8901 7.63838 62.6774 7.55066 62.3849 7.55066ZM66.5337 17.1845L67.7904 5.31955H68.2739C69.45 5.31955 70.4033 6.41579 70.4033 7.76805C70.8022 6.95951 71.2344 6.33786 71.6998 5.90306C72.1652 5.46829 72.6473 5.2509 73.146 5.2509C73.4252 5.2509 73.7011 5.32336 73.9737 5.46829L73.4152 8.75204C73.0761 8.58423 72.7537 8.50031 72.4478 8.50031C71.9358 8.50031 71.4821 8.76538 71.0864 9.29551C70.6908 9.82565 70.37 10.678 70.124 11.8527L69.5656 17.1845H66.5337Z" fill="black"/>
<path d="M12.8282 8.52252C15.2466 6.41563 20.2213 -1.11452 12.4482 0.212032C9.06258 0.758255 4.86556 3.95053 3.86369 7.93021C3.341 6.86603 2.76424 5.83688 2.13631 4.84791C1.20354 3.48234 -0.645244 4.81596 0.391172 6.22055C3.32771 10.2392 5.366 15.0772 5.366 19.9543C5.60784 17.5353 6.00563 14.2899 5.1074 11.4027C5.43608 11.6582 5.45989 11.6773 5.68869 11.9889C7.27786 14.7201 9.71897 16.989 12.4482 18.0815C14.9357 19.135 18.2521 18.5107 16.9049 14.2969C16.1793 11.995 14.4865 9.96613 12.8282 8.52252Z" fill="#F5A623"/>
</svg>
