<svg width="74" height="18" viewBox="0 0 74 18" fill="none" xmlns="http://www.w3.org/2000/svg">
<path d="M39.0691 0.594331C39.0797 0.576711 39.0919 0.576711 39.1066 0.594331L39.0846 0.611951L39.0691 0.594331Z" fill="#0124DD"/>
<path d="M21.2031 6.47081C21.4278 5.80233 21.6409 5.17056 21.8493 4.54415C21.8749 4.46766 21.927 4.45007 21.9947 4.43783C23.1198 4.23132 24.2497 4.05541 25.3989 4.11124C26.2099 4.14872 26.9898 4.31163 27.6881 4.73995C28.6352 5.3197 29.0683 6.19316 29.1297 7.26396C29.1655 7.87966 29.0637 8.48772 28.9742 9.09042C28.7884 10.3188 28.5971 11.5456 28.4175 12.7739C28.4126 12.8255 28.3937 12.8747 28.3628 12.9166C28.3318 12.9584 28.29 12.9913 28.2418 13.0118C27.5093 13.4072 26.7146 13.6237 25.8981 13.7552C24.8877 13.9275 23.8571 13.9532 22.8391 13.8317C21.9908 13.7269 21.2 13.4677 20.5841 12.8543C20.3169 12.5851 20.1094 12.2642 19.9749 11.912C19.8404 11.5598 19.7818 11.1839 19.8027 10.8082C19.8237 10.4325 19.9239 10.0652 20.0968 9.72962C20.2697 9.39402 20.5117 9.09743 20.8073 8.85867C21.4387 8.34775 22.1852 8.09382 22.9713 7.92938C24.1618 7.68157 25.3631 7.71522 26.5653 7.80547C26.7154 7.81618 26.748 7.77105 26.755 7.6395C26.8087 6.71709 26.2457 6.05473 25.2574 5.87652C24.5716 5.75261 23.8982 5.85969 23.2248 5.9683C22.5377 6.0795 21.8614 6.2476 21.2031 6.47081ZM25.4082 9.25333C24.9803 9.25059 24.5528 9.28154 24.1299 9.34588C23.6727 9.42237 23.2287 9.54092 22.8601 9.83921C22.4433 10.1765 22.3321 10.6293 22.4146 11.128C22.4923 11.5831 22.8158 11.8324 23.2349 11.9793C23.427 12.0457 23.6269 12.0881 23.8298 12.1055C24.5793 12.1766 25.3072 12.0481 26.0303 11.8722C26.0794 11.8658 26.1243 11.842 26.1567 11.8052C26.1891 11.7684 26.2067 11.7212 26.206 11.6726C26.3048 10.9498 26.4028 10.2262 26.5116 9.50497C26.5303 9.3803 26.4883 9.35659 26.3826 9.3367C26.0604 9.28439 25.7347 9.25652 25.4082 9.25333Z" fill="#114185"/>
<path d="M55.918 11.5082C55.7936 11.8799 55.6848 12.2127 55.5697 12.5454C55.4779 12.8184 55.38 13.0892 55.2929 13.3645C55.2845 13.4067 55.2637 13.4454 55.2329 13.4759C55.2022 13.5064 55.163 13.5273 55.1202 13.5358C53.9305 13.8479 52.7253 14.0169 51.4967 13.8647C50.0971 13.6911 48.94 13.0999 48.2309 11.8371C47.7946 11.0554 47.6562 10.2042 47.7153 9.32688C47.8281 7.65797 48.5349 6.27436 49.849 5.2028C50.6476 4.55115 51.5791 4.21615 52.604 4.11672C53.3108 4.04864 54.0137 4.06165 54.7035 4.25057C56.1078 4.63299 57.044 5.7076 57.2236 7.13023C57.327 7.94785 57.2236 8.75094 57.0891 9.5548C57.0727 9.655 57.0214 9.65806 56.9437 9.65806C56.5665 9.65806 56.1886 9.65806 55.8115 9.65806C53.9972 9.65806 52.1828 9.65806 50.3684 9.65806C50.2223 9.65806 50.1795 9.69324 50.1772 9.84086C50.1569 11.0432 50.8319 11.8371 52.0332 12.0398C52.9212 12.1928 53.7851 12.0605 54.6475 11.8754C55.0787 11.7805 55.5032 11.6579 55.918 11.5082ZM52.7455 8.097H54.4873C55.0192 8.097 55.0192 8.097 55.037 7.57384C55.0736 6.51452 54.415 5.82386 53.3442 5.76497C52.0636 5.69384 50.856 6.6063 50.545 7.96009C50.5193 8.07252 50.545 8.10006 50.6616 8.09929C51.3544 8.09394 52.0457 8.097 52.7455 8.097Z" fill="#114185"/>
<path d="M60.3898 13.8953C59.248 13.8879 58.1147 13.702 57.0322 13.3446C56.9241 13.3079 56.8953 13.2773 56.9342 13.1618C57.112 12.632 57.2823 12.0997 57.4451 11.5648C57.4855 11.4333 57.533 11.444 57.6403 11.4945C58.68 11.9947 59.8542 12.1575 60.994 11.9595C61.2613 11.9194 61.5151 11.8172 61.7342 11.6612C61.8356 11.5921 61.9199 11.5015 61.981 11.3961C62.042 11.2907 62.0783 11.1732 62.0871 11.0522C62.0959 10.9312 62.077 10.8098 62.0318 10.6969C61.9866 10.584 61.9163 10.4826 61.826 10.4C61.6283 10.22 61.4065 10.0676 61.1666 9.94716C60.5717 9.61981 59.9668 9.3131 59.4015 8.93374C57.8829 7.91113 58.0679 5.78255 59.5632 4.84866C60.2257 4.43488 60.9512 4.22761 61.7218 4.14883C63.0063 4.01804 64.2481 4.23449 65.472 4.59703C65.584 4.62992 65.6128 4.65975 65.57 4.77677C65.3857 5.27928 65.2077 5.78484 65.0405 6.29347C64.9962 6.42732 64.9433 6.41737 64.8383 6.36995C64.0728 6.01464 63.2346 5.83672 62.3882 5.84985C61.9776 5.8598 61.5771 5.92634 61.2296 6.16497C61.0818 6.25765 60.9691 6.39547 60.9087 6.55727C60.8483 6.71908 60.8435 6.89591 60.8952 7.06062C60.9622 7.24532 61.0886 7.40348 61.2552 7.51111C61.6152 7.77728 62.0274 7.95702 62.4216 8.16965C62.9039 8.41737 63.3643 8.70443 63.7979 9.02781C65.0794 10.0282 64.9495 11.9342 63.7202 12.9025C62.927 13.5259 61.9986 13.7752 61.0111 13.864C60.763 13.8854 60.5165 13.8892 60.3898 13.8953Z" fill="#114185"/>
<path d="M68.7773 13.8949C67.6508 13.8842 66.5328 13.7002 65.4641 13.3496C65.3404 13.3091 65.3086 13.2731 65.3544 13.1446C65.5302 12.6261 65.6966 12.1044 65.8583 11.5813C65.8972 11.4543 65.9361 11.436 66.062 11.4956C67.0973 11.9912 68.2647 12.1544 69.3994 11.9622C69.6426 11.9246 69.8755 11.8393 70.0845 11.7113C70.6 11.3878 70.663 10.7935 70.2275 10.3774C70.0449 10.216 69.8418 10.0784 69.6233 9.9682C69.0013 9.62096 68.3551 9.31043 67.7696 8.89741C66.4189 7.93753 66.5869 6.20055 67.4127 5.32862C67.9694 4.74198 68.6724 4.42686 69.4523 4.25783C70.4872 4.02837 71.5214 4.08344 72.5548 4.2716C72.9903 4.34808 73.4164 4.46434 73.8425 4.57754C73.984 4.61654 74.0353 4.65785 73.9755 4.81693C73.7958 5.2965 73.6326 5.78141 73.4739 6.27015C73.4296 6.404 73.3853 6.42312 73.2515 6.36576C72.4962 6.0169 71.6708 5.83942 70.8364 5.84642C70.4476 5.85331 70.072 5.90991 69.733 6.1103C69.4118 6.29922 69.2493 6.5738 69.2975 6.95163C69.3279 7.1918 69.4748 7.3593 69.6599 7.49697C70.0487 7.78685 70.4958 7.97806 70.9188 8.20752C71.4009 8.46986 71.8768 8.74291 72.2974 9.09551C73.4763 10.0898 73.3433 11.9331 72.1606 12.8815C71.5253 13.3917 70.7882 13.6563 69.9927 13.7932C69.5908 13.8574 69.1845 13.8915 68.7773 13.8949Z" fill="#114185"/>
<path d="M37.9713 11.6437C37.9316 11.8731 37.8313 12.0789 37.7575 12.2953C37.6167 12.7076 37.4666 13.116 37.3275 13.529C37.3172 13.5703 37.2939 13.6074 37.261 13.6349C37.228 13.6623 37.187 13.6788 37.1439 13.682C36.2108 13.835 35.2676 13.9321 34.3198 13.8617C32.9053 13.7569 31.6923 13.2499 30.8588 12.0643C30.2709 11.2291 30.0633 10.2799 30.1154 9.28028C30.2025 7.6129 30.921 6.24841 32.2452 5.20362C33.0041 4.60551 33.8968 4.31181 34.8477 4.18943C36.0249 4.02532 37.2236 4.09581 38.3725 4.39671C38.5918 4.4556 38.8033 4.53821 39.0187 4.60704C39.0964 4.63152 39.1167 4.66441 39.0879 4.74777C38.9044 5.27552 38.7224 5.8048 38.5506 6.33637C38.5125 6.45339 38.4588 6.42968 38.3819 6.39985C37.8328 6.1784 37.2514 6.0444 36.6595 6.00289C35.3788 5.93176 34.2653 6.27824 33.466 7.32685C32.7172 8.30968 32.6013 9.94188 33.403 10.9285C33.9014 11.5404 34.5593 11.8647 35.34 11.9542C36.1821 12.0506 36.9962 11.8907 37.8002 11.6636C37.8515 11.649 37.9036 11.6391 37.9557 11.6268L37.9713 11.6437Z" fill="#114185"/>
<path d="M46.8364 11.6328C46.6575 12.1391 46.4523 12.6401 46.3053 13.1571C46.1988 13.5342 46.0191 13.7132 45.6008 13.7545C44.4344 13.8692 43.2681 13.9977 42.1017 13.6941C40.2674 13.2145 39.0691 11.775 38.9696 9.90422C38.8607 7.87124 39.6523 6.2467 41.3171 5.04511C42.0169 4.54108 42.8334 4.30244 43.6856 4.19307C44.8625 4.02949 46.0608 4.09972 47.2096 4.39958C47.4227 4.45694 47.6272 4.54261 47.8395 4.60303C47.9507 4.63515 47.9538 4.68487 47.9172 4.78047C47.7392 5.29216 47.5626 5.80385 47.397 6.31936C47.3574 6.4425 47.3099 6.43791 47.2081 6.39967C46.3932 6.09373 45.5596 5.92775 44.6801 6.01724C43.1864 6.1748 42.0496 7.14616 41.7627 8.57567C41.5558 9.60746 41.7456 10.5513 42.5815 11.2817C43.2478 11.863 44.0589 12.0252 44.9228 11.9754C45.5322 11.936 46.1344 11.8229 46.7159 11.6389C46.7508 11.6328 46.7819 11.6045 46.8364 11.6328Z" fill="#114185"/>
<path d="M17.2141 9.52775L7.52776 0V1.4624L15.7274 9.52775L15.7305 9.53081L8.62804 16.517L8.61949 16.5085L1.52173 9.52775L1.51551 9.52163L4.99985 6.09433H3.48745L0 9.52469L0.0031104 9.52775L8.61638 18L8.61949 17.9969L17.2219 9.5354L17.2141 9.52775Z" fill="#FE6309"/>
<path d="M7.52335 2.4693V3.9317L13.216 9.53117L8.62985 14.0423L4.03979 9.52811L4.03357 9.52199L7.51791 6.09469H6.00552L2.51807 9.52505L2.52118 9.52811L7.87016 14.7895L8.61819 15.5253L9.37866 14.778L14.7074 9.53575L7.52335 2.4693Z" fill="#FE6309"/>
<path d="M12.1972 9.52817L9.35665 6.73111L8.60084 5.98767L7.85748 6.71887L5.0022 9.52511L7.85903 12.3352L8.60706 13.071L9.36598 12.3237L12.2049 9.53582L12.1972 9.52817ZM8.62028 11.5933L6.52081 9.52817L6.51459 9.52205L8.60862 7.46231L10.7081 9.52741L8.62028 11.5933Z" fill="#FE6309"/>
</svg>
