<svg width="74" height="18" viewBox="0 0 74 18" fill="none" xmlns="http://www.w3.org/2000/svg">
<path d="M39.0691 0.5943C39.0797 0.57668 39.0919 0.57668 39.1066 0.5943L39.0846 0.611921L39.0691 0.5943Z" fill="#0124DD"/>
<path d="M21.2031 6.47081C21.4278 5.80233 21.6409 5.17056 21.8493 4.54415C21.8749 4.46766 21.927 4.45007 21.9947 4.43783C23.1198 4.23132 24.2497 4.05541 25.3989 4.11124C26.2099 4.14872 26.9898 4.31163 27.6881 4.73995C28.6352 5.3197 29.0683 6.19316 29.1297 7.26396C29.1655 7.87966 29.0637 8.48772 28.9742 9.09042C28.7884 10.3188 28.5971 11.5456 28.4175 12.7739C28.4126 12.8255 28.3937 12.8747 28.3628 12.9166C28.3318 12.9584 28.29 12.9913 28.2418 13.0118C27.5093 13.4072 26.7146 13.6237 25.8981 13.7552C24.8877 13.9275 23.8571 13.9532 22.8391 13.8317C21.9908 13.7269 21.2 13.4677 20.5841 12.8543C20.3169 12.5851 20.1094 12.2642 19.9749 11.912C19.8404 11.5598 19.7818 11.1839 19.8027 10.8082C19.8237 10.4325 19.9239 10.0652 20.0968 9.72962C20.2697 9.39402 20.5117 9.09743 20.8073 8.85867C21.4387 8.34775 22.1852 8.09382 22.9713 7.92938C24.1618 7.68157 25.3631 7.71522 26.5653 7.80547C26.7154 7.81618 26.748 7.77105 26.755 7.6395C26.8087 6.71709 26.2457 6.05473 25.2574 5.87652C24.5716 5.75261 23.8982 5.85969 23.2248 5.9683C22.5377 6.0795 21.8614 6.2476 21.2031 6.47081ZM25.4082 9.25333C24.9803 9.25059 24.5528 9.28154 24.1299 9.34588C23.6727 9.42237 23.2287 9.54092 22.8601 9.83921C22.4433 10.1765 22.3321 10.6293 22.4146 11.128C22.4923 11.5831 22.8158 11.8324 23.2349 11.9793C23.427 12.0457 23.6269 12.0881 23.8298 12.1055C24.5793 12.1766 25.3072 12.0481 26.0303 11.8722C26.0794 11.8658 26.1243 11.842 26.1567 11.8052C26.1891 11.7684 26.2067 11.7212 26.206 11.6726C26.3048 10.9498 26.4028 10.2262 26.5116 9.50497C26.5303 9.3803 26.4883 9.35659 26.3826 9.3367C26.0604 9.28439 25.7347 9.25652 25.4082 9.25333Z" fill="#114185"/>
<path d="M55.918 11.5082C55.7936 11.8799 55.6848 12.2126 55.5697 12.5454C55.4779 12.8184 55.38 13.0892 55.2929 13.3645C55.2845 13.4067 55.2637 13.4454 55.2329 13.4759C55.2022 13.5064 55.163 13.5273 55.1202 13.5358C53.9305 13.8479 52.7253 14.0169 51.4967 13.8647C50.0971 13.6911 48.94 13.0999 48.2309 11.8371C47.7946 11.0554 47.6562 10.2042 47.7153 9.32687C47.8281 7.65796 48.5349 6.27435 49.849 5.2028C50.6476 4.55114 51.5791 4.21614 52.604 4.11671C53.3108 4.04864 54.0137 4.06164 54.7035 4.25056C56.1078 4.63298 57.044 5.7076 57.2236 7.13022C57.327 7.94784 57.2236 8.75094 57.0891 9.55479C57.0727 9.65499 57.0214 9.65805 56.9437 9.65805C56.5665 9.65805 56.1886 9.65805 55.8115 9.65805C53.9972 9.65805 52.1828 9.65805 50.3684 9.65805C50.2223 9.65805 50.1795 9.69323 50.1772 9.84085C50.1569 11.0432 50.8319 11.8371 52.0332 12.0398C52.9212 12.1928 53.7851 12.0604 54.6475 11.8754C55.0787 11.7805 55.5032 11.6579 55.918 11.5082ZM52.7455 8.09699H54.4873C55.0192 8.09699 55.0192 8.09699 55.037 7.57383C55.0736 6.51451 54.415 5.82386 53.3442 5.76496C52.0636 5.69383 50.856 6.6063 50.545 7.96008C50.5193 8.07251 50.545 8.10005 50.6616 8.09928C51.3544 8.09393 52.0457 8.09699 52.7455 8.09699Z" fill="#114185"/>
<path d="M60.3898 13.8953C59.248 13.8879 58.1147 13.702 57.0322 13.3447C56.9241 13.3079 56.8953 13.2773 56.9342 13.1619C57.112 12.6321 57.2823 12.0997 57.4451 11.5648C57.4855 11.4333 57.533 11.444 57.6403 11.4945C58.68 11.9947 59.8542 12.1575 60.994 11.9595C61.2613 11.9195 61.5151 11.8172 61.7342 11.6612C61.8356 11.5921 61.9199 11.5015 61.981 11.3961C62.042 11.2907 62.0783 11.1732 62.0871 11.0522C62.0959 10.9312 62.077 10.8098 62.0318 10.6969C61.9866 10.5841 61.9163 10.4826 61.826 10.4C61.6283 10.22 61.4065 10.0677 61.1666 9.94719C60.5717 9.61983 59.9668 9.31312 59.4015 8.93376C57.8829 7.91115 58.0679 5.78257 59.5632 4.84869C60.2257 4.4349 60.9512 4.22763 61.7218 4.14885C63.0063 4.01806 64.2481 4.23451 65.472 4.59705C65.584 4.62994 65.6128 4.65977 65.57 4.77679C65.3857 5.2793 65.2077 5.78486 65.0405 6.29349C64.9962 6.42734 64.9433 6.4174 64.8383 6.36998C64.0728 6.01467 63.2346 5.83674 62.3882 5.84988C61.9776 5.85982 61.5771 5.92636 61.2296 6.165C61.0818 6.25767 60.9691 6.3955 60.9087 6.5573C60.8483 6.7191 60.8435 6.89593 60.8952 7.06064C60.9622 7.24534 61.0886 7.40351 61.2552 7.51113C61.6152 7.7773 62.0274 7.95704 62.4216 8.16967C62.9039 8.41739 63.3643 8.70445 63.7979 9.02783C65.0794 10.0283 64.9495 11.9343 63.7202 12.9026C62.927 13.5259 61.9986 13.7753 61.0111 13.864C60.763 13.8854 60.5165 13.8892 60.3898 13.8953Z" fill="#114185"/>
<path d="M68.7773 13.8949C67.6508 13.8842 66.5328 13.7002 65.4641 13.3496C65.3404 13.3091 65.3086 13.2731 65.3544 13.1446C65.5302 12.626 65.6966 12.1044 65.8583 11.5813C65.8972 11.4543 65.9361 11.4359 66.062 11.4956C67.0973 11.9912 68.2647 12.1544 69.3994 11.9622C69.6426 11.9246 69.8755 11.8393 70.0845 11.7113C70.6 11.3878 70.663 10.7935 70.2275 10.3774C70.0449 10.216 69.8418 10.0784 69.6233 9.96819C69.0013 9.62094 68.3551 9.31042 67.7696 8.8974C66.4189 7.93751 66.5869 6.20053 67.4127 5.3286C67.9694 4.74196 68.6724 4.42685 69.4523 4.25781C70.4872 4.02836 71.5214 4.08343 72.5548 4.27158C72.9903 4.34807 73.4164 4.46432 73.8425 4.57752C73.984 4.61653 74.0353 4.65783 73.9755 4.81692C73.7958 5.29648 73.6326 5.7814 73.4739 6.27014C73.4296 6.40398 73.3853 6.42311 73.2515 6.36574C72.4962 6.01688 71.6708 5.8394 70.8364 5.84641C70.4476 5.85329 70.072 5.90989 69.733 6.11028C69.4118 6.2992 69.2493 6.57378 69.2975 6.95162C69.3279 7.19178 69.4748 7.35928 69.6599 7.49696C70.0487 7.78683 70.4958 7.97805 70.9188 8.2075C71.4009 8.46985 71.8768 8.7429 72.2974 9.09549C73.4763 10.0898 73.3433 11.9331 72.1606 12.8815C71.5253 13.3917 70.7882 13.6563 69.9927 13.7932C69.5908 13.8574 69.1845 13.8914 68.7773 13.8949Z" fill="#114185"/>
<path d="M37.9713 11.6436C37.9316 11.8731 37.8313 12.0788 37.7575 12.2953C37.6167 12.7076 37.4666 13.116 37.3275 13.529C37.3172 13.5703 37.2939 13.6073 37.261 13.6348C37.228 13.6623 37.187 13.6788 37.1439 13.682C36.2108 13.8349 35.2676 13.9321 34.3198 13.8617C32.9053 13.7569 31.6923 13.2498 30.8588 12.0643C30.2709 11.2291 30.0633 10.2799 30.1154 9.28026C30.2025 7.61288 30.921 6.24839 32.2452 5.2036C33.0041 4.60549 33.8968 4.31179 34.8477 4.18941C36.0249 4.0253 37.2236 4.09578 38.3725 4.39669C38.5918 4.45558 38.8033 4.53818 39.0187 4.60702C39.0964 4.63149 39.1167 4.66438 39.0879 4.74775C38.9044 5.2755 38.7224 5.80478 38.5506 6.33635C38.5125 6.45337 38.4588 6.42966 38.3819 6.39983C37.8328 6.17838 37.2514 6.04438 36.6595 6.00287C35.3788 5.93174 34.2653 6.27822 33.466 7.32683C32.7172 8.30966 32.6013 9.94185 33.403 10.9285C33.9014 11.5404 34.5593 11.8647 35.34 11.9542C36.1821 12.0505 36.9962 11.8907 37.8002 11.6635C37.8515 11.649 37.9036 11.6391 37.9557 11.6268L37.9713 11.6436Z" fill="#114185"/>
<path d="M46.8364 11.6328C46.6575 12.1391 46.4523 12.6401 46.3053 13.1571C46.1988 13.5342 46.0191 13.7132 45.6008 13.7545C44.4344 13.8692 43.2681 13.9977 42.1017 13.694C40.2674 13.2145 39.0691 11.775 38.9696 9.90421C38.8607 7.87123 39.6523 6.24668 41.3171 5.0451C42.0169 4.54106 42.8334 4.30243 43.6856 4.19305C44.8625 4.02948 46.0608 4.0997 47.2096 4.39956C47.4227 4.45693 47.6272 4.54259 47.8395 4.60301C47.9507 4.63514 47.9538 4.68485 47.9172 4.78046C47.7392 5.29214 47.5626 5.80383 47.397 6.31934C47.3574 6.44248 47.3099 6.43789 47.2081 6.39965C46.3932 6.09371 45.5596 5.92774 44.6801 6.01722C43.1864 6.17478 42.0496 7.14615 41.7627 8.57566C41.5558 9.60744 41.7456 10.5513 42.5815 11.2817C43.2478 11.863 44.0589 12.0251 44.9228 11.9754C45.5322 11.9359 46.1344 11.8229 46.7159 11.6389C46.7508 11.6328 46.7819 11.6045 46.8364 11.6328Z" fill="#114185"/>
<path d="M17.2141 9.52775L7.52776 0V1.4624L15.7274 9.52775L15.7305 9.53081L8.62804 16.517L8.61949 16.5085L1.52173 9.52775L1.51551 9.52163L4.99985 6.09433H3.48745L0 9.52469L0.0031104 9.52775L8.61638 18L8.61949 17.9969L17.2219 9.5354L17.2141 9.52775Z" fill="#FE6309"/>
<path d="M7.52335 2.46929V3.93169L13.216 9.53116L8.62985 14.0422L4.03979 9.5281L4.03357 9.52198L7.51791 6.09469H6.00552L2.51807 9.52504L2.52118 9.5281L7.87016 14.7895L8.61819 15.5253L9.37866 14.778L14.7074 9.53575L7.52335 2.46929Z" fill="#FE6309"/>
<path d="M12.1972 9.52817L9.35665 6.73111L8.60084 5.98767L7.85748 6.71887L5.0022 9.52511L7.85903 12.3352L8.60706 13.071L9.36598 12.3237L12.2049 9.53582L12.1972 9.52817ZM8.62028 11.5933L6.52081 9.52817L6.51459 9.52205L8.60862 7.46231L10.7081 9.52741L8.62028 11.5933Z" fill="#FE6309"/>
</svg>
