<svg width="24" height="24" viewBox="0 0 24 24" fill="none" xmlns="http://www.w3.org/2000/svg">
<path d="M12.0005 -2.2026e-05C11.8903 -0.000458627 11.7812 0.0209713 11.6794 0.0630263C11.5775 0.105081 11.4851 0.166925 11.4073 0.244975L0.244801 11.4068C0.0877961 11.5643 -0.000366211 11.7776 -0.000366211 12C-0.000366211 12.2224 0.0877961 12.4357 0.244801 12.5932L11.4066 23.7557C11.5642 23.9133 11.7755 24 11.9998 24C12.2242 24 12.4355 23.9133 12.593 23.7557L23.7549 12.5932C23.8327 12.5155 23.8944 12.4231 23.9363 12.3214C23.9782 12.2197 23.9996 12.1107 23.9992 12.0007C23.9997 11.8906 23.9784 11.7814 23.9364 11.6796C23.8945 11.5778 23.8328 11.4853 23.7549 11.4075L12.593 0.244975C12.5155 0.166884 12.4231 0.105007 12.3214 0.0629458C12.2197 0.0208847 12.1106 -0.000519952 12.0005 -2.2026e-05Z" fill="#2360A5"/>
<path d="M23.6642 11.4983C23.7971 11.6315 23.8717 11.8119 23.8717 12C23.8717 12.1881 23.7971 12.3686 23.6642 12.5017L12.5024 23.6642C12.3689 23.797 12.1906 23.8713 12.0007 23.8713C11.8108 23.8713 11.6325 23.7977 11.499 23.6642L0.33654 12.5017C0.203031 12.3689 0.129395 12.1906 0.129395 12C0.129395 11.8094 0.202343 11.6311 0.33654 11.4983L11.4983 0.335852C11.6318 0.203031 11.8101 0.129395 12 0.129395C12.19 0.129395 12.3682 0.203031 12.5017 0.335852L23.6642 11.4983Z" fill="white"/>
<path d="M6.22187 6.12974L0.838161 11.5135C0.717592 11.6346 0.649902 11.7985 0.649902 11.9694C0.649902 12.1403 0.717592 12.3042 0.838161 12.4253L5.61282 17.2C5.73405 17.3206 5.89809 17.3883 6.0691 17.3883C6.2401 17.3883 6.40414 17.3206 6.52536 17.2L11.9084 11.817L6.22187 6.12974ZM11.5436 0.807262L6.55633 5.79528L12.2435 11.4825L17.2315 6.49448C17.3518 6.37309 17.4193 6.20911 17.4193 6.03821C17.4193 5.86732 17.3518 5.70334 17.2315 5.58194L12.4569 0.807262C12.3354 0.686942 12.1713 0.619446 12.0003 0.619446C11.8293 0.619446 11.6652 0.686942 11.5436 0.807262Z" fill="#CF4037"/>
<path d="M4.0314 13.4294C4.80409 13.4294 5.43048 12.803 5.43048 12.0303C5.43048 11.2576 4.80409 10.6312 4.0314 10.6312C3.25871 10.6312 2.63232 11.2576 2.63232 12.0303C2.63232 12.803 3.25871 13.4294 4.0314 13.4294Z" fill="white"/>
<path d="M8.10762 13.49C8.88033 13.49 9.50674 12.8636 9.50674 12.0909C9.50674 11.3182 8.88033 10.6917 8.10762 10.6917C7.3349 10.6917 6.7085 11.3182 6.7085 12.0909C6.7085 12.8636 7.3349 13.49 8.10762 13.49Z" fill="white"/>
<path d="M12.1218 7.40701C12.8945 7.40701 13.5209 6.78062 13.5209 6.00792C13.5209 5.23522 12.8945 4.60883 12.1218 4.60883C11.3491 4.60883 10.7227 5.23522 10.7227 6.00792C10.7227 6.78062 11.3491 7.40701 12.1218 7.40701Z" fill="white"/>
<path d="M17.5054 6.76837L6.79928 17.4745C6.67867 17.5958 6.61096 17.7598 6.61096 17.9308C6.61096 18.1018 6.67867 18.2659 6.79928 18.3871L11.5739 23.1617C11.6951 23.2823 11.8592 23.35 12.0302 23.35C12.2012 23.35 12.3652 23.2823 12.4865 23.1617L23.1926 12.4556C23.313 12.3344 23.3806 12.1705 23.3806 11.9996C23.3806 11.8288 23.313 11.6649 23.1926 11.5437L18.4179 6.76905C18.2969 6.64818 18.1329 6.58024 17.9618 6.58011C17.7908 6.57998 17.6266 6.64768 17.5054 6.76837Z" fill="#2360A5"/>
<path d="M9.48394 19.9397L7.4696 17.9253L8.03255 17.3624C8.62783 16.7671 9.58855 17.0149 10.168 18.0644C10.4371 18.5509 10.4075 19.0168 10.0662 19.3582L9.48394 19.9397Z" fill="white"/>
<path d="M9.32777 18.222C8.81784 17.6514 8.49646 17.9274 8.49646 17.9274L9.49225 18.9226C9.49225 18.9233 9.7393 18.6838 9.32777 18.222Z" fill="#2360A5"/>
<path d="M10.2321 17.8021C9.83638 17.4064 9.77857 16.8944 10.0635 16.5097C10.4496 15.9963 11.093 15.9894 11.5692 16.4657C12.0118 16.9033 12.04 17.4787 11.6436 17.8744C11.2451 18.2722 10.6718 18.2419 10.2321 17.8021Z" fill="white"/>
<path d="M11.1122 17.5034C11.2313 17.5137 11.2857 17.4594 11.276 17.3403C11.2712 17.2309 11.1652 17.0547 10.9787 16.8985C10.8631 16.8008 10.7647 16.7547 10.6855 16.7499C10.5706 16.7437 10.5155 16.7981 10.5224 16.9137C10.5279 17.0066 10.6002 17.1401 10.7406 17.2805C10.8858 17.4257 11.0193 17.4979 11.1122 17.5034Z" fill="#2360A5"/>
<path d="M15.9646 12.0695C15.5689 11.6738 15.5111 11.1611 15.796 10.7764C16.1821 10.263 16.8256 10.2561 17.3018 10.7324C17.7443 11.1701 17.7726 11.7461 17.3761 12.1418C16.9777 12.5396 16.4051 12.5086 15.9646 12.0695Z" fill="white"/>
<path d="M16.8456 11.7709C16.9646 11.7812 17.019 11.7268 17.0093 11.6071C17.0045 11.4976 16.8986 11.3221 16.7121 11.1659C16.5972 11.0675 16.4981 11.0221 16.4196 11.0173C16.304 11.0111 16.2497 11.0654 16.2558 11.1811C16.262 11.2747 16.3336 11.4075 16.4747 11.5479C16.6185 11.6931 16.752 11.7647 16.8456 11.7709Z" fill="#2360A5"/>
<path d="M12.3792 17.0451L10.9691 15.6343L11.4798 15.1237L11.6587 15.3026C11.6522 15.283 11.6483 15.2626 11.647 15.242C11.6218 15.1047 11.6465 14.963 11.7165 14.8422C11.8686 14.5779 12.1666 14.4878 12.3888 14.5731C12.3875 14.5525 12.318 14.2786 12.4363 14.1052C12.6283 13.8244 12.9091 13.7556 13.152 13.8822C13.1899 13.9001 13.2277 13.9242 13.2608 13.9524L13.269 13.9613L13.4734 14.165L14.366 15.0576L13.8382 15.5854L13.0213 14.7734C12.9683 14.7259 12.9208 14.7121 12.874 14.719C12.8066 14.7307 12.7371 14.8174 12.7508 14.909C12.7621 14.955 12.7868 14.9967 12.8217 15.0287L13.6056 15.8174L13.1073 16.3156L12.3606 15.5689C12.2037 15.4113 12.0565 15.4361 12.0152 15.551C11.9952 15.604 12.0097 15.668 12.0688 15.732L12.8781 16.5462L12.3792 17.0451ZM13.6709 12.9325L15.0803 14.3426L14.5367 14.8862L13.1266 13.4768L13.6709 12.9325ZM15.2868 14.1368L13.8767 12.726L14.4052 12.1982L14.6007 12.3936V12.3888L14.5855 12.3193C14.5449 12.1418 14.5608 12.031 14.6702 11.8713C14.9042 11.5141 15.2373 11.5444 15.6433 11.9498L16.5579 12.865L16.03 13.3929L15.2854 12.6489C15.1175 12.481 14.9991 12.47 14.9496 12.587C14.9159 12.66 14.9475 12.7412 15.1093 12.9029L15.814 13.6076L15.2868 14.1368ZM18.4483 10.7351L18.2563 10.2011C18.3079 10.1887 18.3203 10.1866 18.407 10.1612C18.6369 10.0882 18.7037 9.99323 18.6906 9.91685C18.6816 9.85904 18.6293 9.82119 18.5626 9.84321C18.5411 9.84914 18.5206 9.85843 18.502 9.87074L18.4642 9.89138L18.4112 9.92166L18.3664 9.94988L18.3162 9.97809C18.0471 10.124 17.6789 9.96571 17.5324 9.60923C17.392 9.26857 17.5028 8.90039 17.968 8.6086C18.0354 8.56387 18.1036 8.52877 18.1827 8.49505L18.213 8.48129L18.246 8.47028L18.4704 9.00775C18.3926 9.01807 18.4009 9.02083 18.33 9.05179C18.282 9.07279 18.2372 9.10061 18.1971 9.13438C18.1758 9.15758 18.1574 9.18322 18.1421 9.21077C18.1146 9.26651 18.1442 9.32088 18.1944 9.33189C18.2223 9.33705 18.2512 9.33344 18.277 9.32156C18.2873 9.31739 18.2974 9.3128 18.3073 9.3078L18.3368 9.28922L18.5034 9.20182C18.747 9.05868 19.0464 9.12887 19.2549 9.43993C19.4696 9.75719 19.4173 10.179 18.9961 10.5052C18.8525 10.6155 18.6852 10.6909 18.5075 10.7255C18.4869 10.7296 18.4662 10.7337 18.4483 10.7351Z" fill="white"/>
<path d="M12.9663 13.1789C13.2016 13.1789 13.3923 12.9882 13.3923 12.7529C13.3923 12.5176 13.2016 12.3269 12.9663 12.3269C12.731 12.3269 12.5403 12.5176 12.5403 12.7529C12.5403 12.9882 12.731 13.1789 12.9663 13.1789Z" fill="white"/>
<path d="M12.6055 19.107L14.0149 20.5178L13.4712 21.0607L12.0619 19.6499L12.6055 19.107Z" fill="white"/>
<path d="M11.9016 19.3519C12.1368 19.3519 12.3275 19.1612 12.3275 18.9259C12.3275 18.6907 12.1368 18.5 11.9016 18.5C11.6663 18.5 11.4756 18.6907 11.4756 18.9259C11.4756 19.1612 11.6663 19.3519 11.9016 19.3519Z" fill="white"/>
<path d="M16.9982 10.296L17.4036 9.89138L16.8358 8.62372L16.3293 9.13092L16.9982 10.296ZM12.0069 22.4861L9.99255 20.4717L10.5823 19.8819C11.0276 19.4367 11.5375 19.3961 12.0041 19.8696C12.6331 20.5075 12.1018 21.0822 12.0722 21.1117L11.8665 21.3175L12.5209 21.972L12.0069 22.4861Z" fill="white"/>
<path d="M11.4742 20.7635C11.5506 20.6871 11.5513 20.6025 11.4914 20.5054C11.3806 20.3196 11.1611 20.2191 11.0489 20.3306L10.9642 20.4152L11.393 20.8441L11.4742 20.7635Z" fill="#2360A5"/>
<path d="M16.2689 15.7714L16.1154 15.6179L16.6233 15.11L18.0031 16.4891L17.4952 16.997L17.3232 16.825C17.4271 17.0273 17.3755 17.2764 17.1188 17.4347C16.8992 17.5771 16.5545 17.5338 16.1815 17.2496C15.6709 16.8566 15.5139 16.3137 15.675 16.0088C15.8209 15.7377 16.0769 15.6737 16.2689 15.7714Z" fill="white"/>
<path d="M16.9281 16.7526C17.0746 16.7388 17.054 16.5806 16.8771 16.3782C16.679 16.1505 16.5069 16.0631 16.4134 16.0968C16.3789 16.1113 16.3611 16.1422 16.3597 16.1842C16.3556 16.2681 16.4209 16.3893 16.5689 16.5406C16.7216 16.6934 16.8427 16.7588 16.9281 16.7526Z" fill="#2360A5"/>
<path d="M12.8292 18.8861L13.9572 17.7582L14.4643 19.2178L14.8442 18.838L15.275 19.2694L14.1595 20.3843L13.633 18.8834L13.2297 19.2866L12.8292 18.8861ZM14.1216 17.5937L15.2496 16.4658L15.7567 17.9254L16.1366 17.5455L16.5674 17.9763L15.4526 19.0919L14.9254 17.591L14.5221 17.9942L14.1216 17.5937Z" fill="white"/>
<path d="M13.5589 23.4763C13.5605 23.416 13.574 23.3566 13.5988 23.3016C13.6235 23.2465 13.6589 23.197 13.703 23.1557C13.747 23.1145 13.7988 23.0824 13.8553 23.0614C13.9119 23.0403 13.972 23.0307 14.0323 23.0331C14.153 23.0361 14.2676 23.087 14.3508 23.1745C14.4341 23.262 14.4791 23.379 14.4761 23.4997C14.4731 23.6204 14.4223 23.735 14.3348 23.8183C14.2473 23.9015 14.1303 23.9466 14.0096 23.9436C13.9492 23.9431 13.8894 23.9305 13.8339 23.9066C13.7784 23.8828 13.7282 23.848 13.6862 23.8045C13.6442 23.761 13.6114 23.7096 13.5895 23.6532C13.5676 23.5969 13.5572 23.5367 13.5589 23.4763Z" fill="#2360A5"/>
<path d="M14.0122 23.8679C14.0616 23.8692 14.1108 23.8605 14.1568 23.8424C14.2027 23.8242 14.2446 23.797 14.2798 23.7623C14.315 23.7276 14.3429 23.6862 14.3617 23.6404C14.3805 23.5947 14.3899 23.5457 14.3894 23.4963C14.3921 23.4471 14.3848 23.3979 14.3681 23.3517C14.3514 23.3054 14.3256 23.2629 14.2921 23.2268C14.2586 23.1907 14.2183 23.1618 14.1734 23.1416C14.1285 23.1214 14.08 23.1105 14.0308 23.1095C13.9813 23.1079 13.9321 23.1163 13.886 23.1341C13.8399 23.152 13.7978 23.1789 13.7623 23.2133C13.7268 23.2477 13.6985 23.2889 13.6793 23.3344C13.66 23.38 13.6501 23.4289 13.6501 23.4784C13.6473 23.5279 13.6546 23.5776 13.6714 23.6243C13.6883 23.671 13.7144 23.7138 13.7482 23.7502C13.782 23.7866 13.8228 23.8157 13.8682 23.836C13.9135 23.8562 13.9625 23.8671 14.0122 23.8679Z" fill="white"/>
<path d="M13.9186 23.7481L13.8395 23.7467L13.8526 23.2216L14.0521 23.2272C14.1767 23.2299 14.2366 23.2767 14.2345 23.3806C14.2324 23.4742 14.1719 23.5141 14.0948 23.5224L14.2386 23.757L14.1499 23.755L14.017 23.5238L13.9255 23.5217L13.9186 23.7481Z" fill="#2360A5"/>
<path d="M14.0212 23.4557C14.0887 23.457 14.1492 23.4536 14.1506 23.3731C14.152 23.3084 14.0935 23.2946 14.0377 23.2932L13.9297 23.2912L13.9255 23.4536L14.0212 23.4557Z" fill="white"/>
</svg>
