<svg width="32" height="32" viewBox="0 0 32 32" fill="none" xmlns="http://www.w3.org/2000/svg">
<path d="M30.5452 0.192017H1.45461C0.757234 0.192017 0.191895 0.757356 0.191895 1.45474V30.5453C0.191895 31.2427 0.757234 31.808 1.45461 31.808H30.5452C31.2426 31.808 31.8079 31.2427 31.8079 30.5453V1.45474C31.8079 0.757356 31.2426 0.192017 30.5452 0.192017Z" fill="#5C2682"/>
<path d="M6.29976 12.9379V14.1059H8.88344V15.1815H6.29976V17.2778H5.1084V11.8627H9.23128V12.9379H6.29976Z" fill="white"/>
<path d="M14.5071 16.8058C14.3554 16.9257 14.1906 17.0283 14.0159 17.1114C13.8298 17.1988 13.6337 17.2633 13.4319 17.3034C13.1975 17.3494 12.9591 17.3715 12.7202 17.3693C12.3406 17.3728 11.9643 17.299 11.614 17.1527C11.284 17.0152 10.9844 16.8142 10.7321 16.561C10.482 16.307 10.2848 16.0059 10.1519 15.6752C10.0115 15.3288 9.94049 14.9581 9.94295 14.5843V14.569C9.94013 14.1961 10.0111 13.8263 10.1519 13.481C10.2866 13.1501 10.4835 12.8482 10.7321 12.5917C10.9849 12.3326 11.2875 12.1274 11.6217 11.9881C11.985 11.8384 12.375 11.7641 12.7679 11.7699C13.0001 11.7682 13.2319 11.7888 13.4601 11.8317C13.6549 11.869 13.8454 11.926 14.0287 12.0019C14.1951 12.0722 14.3534 12.1604 14.5007 12.2649C14.6439 12.3672 14.7784 12.4811 14.903 12.6054L14.1439 13.4794C13.9501 13.3012 13.7327 13.1504 13.4978 13.0314C13.2675 12.9207 13.0145 12.8652 12.759 12.8691C12.5418 12.8671 12.3268 12.912 12.1286 13.0006C11.9387 13.0857 11.7688 13.2095 11.6297 13.3642C11.4888 13.5215 11.3787 13.7039 11.3049 13.9018C11.2265 14.1107 11.1871 14.3323 11.1887 14.5555V14.5709C11.1874 14.7953 11.2267 15.0181 11.3049 15.2285C11.3775 15.427 11.486 15.6105 11.6249 15.7699C11.7665 15.9302 11.9411 16.0581 12.1366 16.1448C12.3322 16.2316 12.5441 16.2752 12.758 16.2726C13.0675 16.2726 13.3293 16.2159 13.5433 16.1024C13.7753 15.9762 13.9898 15.8202 14.1814 15.6384L14.9394 16.4042C14.8057 16.5488 14.6612 16.683 14.5071 16.8058Z" fill="white"/>
<path d="M20.1309 17.2778V13.7424L18.6067 16.0554H18.5747L17.0662 13.7658V17.2778H15.8918V11.8627H17.1757L18.599 14.1527L20.0224 11.8627H21.3066V17.2778H20.1309Z" fill="white"/>
<path d="M27.0584 16.4423C26.9626 16.6285 26.8219 16.788 26.6491 16.9063C26.4545 17.0374 26.2376 17.1319 26.0091 17.185C25.7365 17.2495 25.4571 17.2806 25.1771 17.2778H22.6062V11.8627H25.116C25.6717 11.8627 26.1079 11.9891 26.4244 12.2419C26.741 12.4947 26.8994 12.8351 26.8996 13.2631V13.28C26.9018 13.4188 26.8823 13.5572 26.8417 13.6899C26.8057 13.8032 26.754 13.9109 26.6881 14.0099C26.6255 14.1037 26.5501 14.1884 26.4641 14.2615C26.3804 14.3332 26.2889 14.3955 26.1915 14.4471C26.5044 14.5659 26.7508 14.7271 26.9307 14.9306C27.1105 15.1341 27.2003 15.4159 27.2001 15.776V15.7914C27.2056 16.0165 27.157 16.2398 27.0584 16.4423ZM25.7236 13.464C25.7236 13.2835 25.6567 13.1456 25.5227 13.0503C25.3887 12.9549 25.1953 12.9072 24.9425 12.9072H23.7665V14.0519H24.8641C25.1272 14.0519 25.336 14.0067 25.4907 13.9165C25.6453 13.8263 25.7227 13.6805 25.7227 13.4794L25.7236 13.464ZM26.0254 15.6301C26.0282 15.5468 26.0106 15.4641 25.9742 15.3892C25.9378 15.3142 25.8836 15.2493 25.8164 15.2C25.6771 15.0944 25.4531 15.0411 25.1444 15.04H23.7684V16.2314H25.1841C25.4472 16.2314 25.6535 16.1837 25.803 16.0883C25.9525 15.993 26.0272 15.8447 26.027 15.6435L26.0254 15.6301Z" fill="white"/>
<path d="M27.1109 20.7475V23.399H4.98999V22.0045C4.98995 21.8394 5.02243 21.6759 5.08558 21.5234C5.14874 21.3709 5.24132 21.2323 5.35805 21.1156C5.47478 20.9988 5.61336 20.9062 5.76588 20.8431C5.9184 20.7799 6.08187 20.7475 6.24695 20.7475H27.1109Z" fill="#FAB613"/>
<path d="M4.98999 24.2576H27.1109V26.9091H6.24695C6.08185 26.9092 5.91835 26.8767 5.76581 26.8135C5.61327 26.7503 5.47467 26.6577 5.35794 26.541C5.24121 26.4242 5.14863 26.2856 5.08549 26.133C5.02236 25.9805 4.98991 25.817 4.98999 25.6519V24.2576Z" fill="#FAB613"/>
</svg>
