<svg width="66" height="23" viewBox="0 0 66 23" fill="none" xmlns="http://www.w3.org/2000/svg">
<g filter="url(#filter0_d_1479_3833)">
<g filter="url(#filter1_d_1479_3833)">
<path d="M63.1268 1H2.87324C2.39096 1 2 1.79749 2 2.78125V18.2188C2 19.2025 2.39096 20 2.87324 20H63.1268C63.609 20 64 19.2025 64 18.2188V2.78125C64 1.79749 63.609 1 63.1268 1Z" fill="white"/>
</g>
<path d="M19.8675 15.18C18.7075 15.18 17.7115 14.78 16.8795 13.98C16.0555 13.18 15.6435 12.1 15.6435 10.74C15.6435 9.828 15.8515 9.028 16.2675 8.34C16.6835 7.652 17.2075 7.144 17.8395 6.816C18.4715 6.48 19.1475 6.312 19.8675 6.312C20.8275 6.312 21.6355 6.556 22.2915 7.044C22.9555 7.524 23.3955 8.18 23.6115 9.012L22.5195 9.396C22.3595 8.756 22.0515 8.264 21.5955 7.92C21.1395 7.568 20.5635 7.392 19.8675 7.392C19.0355 7.392 18.3235 7.688 17.7315 8.28C17.1395 8.864 16.8435 9.684 16.8435 10.74C16.8435 11.796 17.1395 12.62 17.7315 13.212C18.3235 13.804 19.0355 14.1 19.8675 14.1C20.5635 14.1 21.1435 13.916 21.6075 13.548C22.0715 13.172 22.3955 12.676 22.5795 12.06L23.6235 12.444C23.3915 13.268 22.9435 13.932 22.2795 14.436C21.6235 14.932 20.8195 15.18 19.8675 15.18ZM26.0743 11.604V15H24.9463V6.312H26.0743V9.9C26.4583 9.34 27.0423 9.06 27.8263 9.06C28.4903 9.06 28.9983 9.272 29.3503 9.696C29.7103 10.12 29.8903 10.668 29.8903 11.34V15H28.7623V11.532C28.7623 10.564 28.3143 10.08 27.4183 10.08C27.0023 10.08 26.6783 10.224 26.4463 10.512C26.2143 10.792 26.0903 11.156 26.0743 11.604ZM32.4166 11.52H35.5726C35.5566 11.088 35.4126 10.736 35.1406 10.464C34.8686 10.184 34.4846 10.044 33.9886 10.044C33.5406 10.044 33.1726 10.192 32.8846 10.488C32.5966 10.776 32.4406 11.12 32.4166 11.52ZM35.7406 13.02L36.7126 13.356C36.5446 13.892 36.2326 14.332 35.7766 14.676C35.3206 15.012 34.7686 15.18 34.1206 15.18C33.3126 15.18 32.6246 14.904 32.0566 14.352C31.4966 13.792 31.2166 13.04 31.2166 12.096C31.2166 11.216 31.4886 10.488 32.0326 9.912C32.5766 9.336 33.2246 9.048 33.9766 9.048C34.8486 9.048 35.5286 9.324 36.0166 9.876C36.5046 10.42 36.7486 11.152 36.7486 12.072C36.7486 12.216 36.7406 12.336 36.7246 12.432H32.3806C32.3886 12.944 32.5566 13.364 32.8846 13.692C33.2206 14.02 33.6326 14.184 34.1206 14.184C34.9446 14.184 35.4846 13.796 35.7406 13.02ZM40.6125 10.092C40.1245 10.092 39.7085 10.268 39.3645 10.62C39.0285 10.972 38.8605 11.468 38.8605 12.108C38.8605 12.74 39.0285 13.236 39.3645 13.596C39.7085 13.956 40.1285 14.136 40.6245 14.136C41.1045 14.136 41.4685 14.016 41.7165 13.776C41.9725 13.536 42.1445 13.26 42.2325 12.948L43.2285 13.38C43.0685 13.86 42.7645 14.28 42.3165 14.64C41.8765 15 41.3125 15.18 40.6245 15.18C39.7845 15.18 39.0885 14.888 38.5365 14.304C37.9845 13.72 37.7085 12.988 37.7085 12.108C37.7085 11.212 37.9845 10.48 38.5365 9.912C39.0885 9.336 39.7805 9.048 40.6125 9.048C41.3165 9.048 41.8845 9.228 42.3165 9.588C42.7565 9.948 43.0445 10.38 43.1805 10.884L42.1605 11.316C42.0725 10.98 41.9045 10.692 41.6565 10.452C41.4085 10.212 41.0605 10.092 40.6125 10.092ZM49.7238 9.228L47.2638 11.664L49.7718 15H48.3558L46.4718 12.456L45.6678 13.26V15H44.5518V6.312H45.6678V11.784L48.1638 9.228H49.7238Z" fill="black"/>
</g>
<defs>
<filter id="filter0_d_1479_3833" x="0" y="0" width="66" height="23" filterUnits="userSpaceOnUse" color-interpolation-filters="sRGB">
<feFlood flood-opacity="0" result="BackgroundImageFix"/>
<feColorMatrix in="SourceAlpha" type="matrix" values="0 0 0 0 0 0 0 0 0 0 0 0 0 0 0 0 0 0 127 0" result="hardAlpha"/>
<feOffset dy="1"/>
<feGaussianBlur stdDeviation="1"/>
<feComposite in2="hardAlpha" operator="out"/>
<feColorMatrix type="matrix" values="0 0 0 0 0 0 0 0 0 0 0 0 0 0 0 0 0 0 0.25 0"/>
<feBlend mode="normal" in2="BackgroundImageFix" result="effect1_dropShadow_1479_3833"/>
<feBlend mode="normal" in="SourceGraphic" in2="effect1_dropShadow_1479_3833" result="shape"/>
</filter>
<filter id="filter1_d_1479_3833" x="0" y="0" width="66" height="23" filterUnits="userSpaceOnUse" color-interpolation-filters="sRGB">
<feFlood flood-opacity="0" result="BackgroundImageFix"/>
<feColorMatrix in="SourceAlpha" type="matrix" values="0 0 0 0 0 0 0 0 0 0 0 0 0 0 0 0 0 0 127 0" result="hardAlpha"/>
<feOffset dy="1"/>
<feGaussianBlur stdDeviation="1"/>
<feComposite in2="hardAlpha" operator="out"/>
<feColorMatrix type="matrix" values="0 0 0 0 0 0 0 0 0 0 0 0 0 0 0 0 0 0 0.15 0"/>
<feBlend mode="normal" in2="BackgroundImageFix" result="effect1_dropShadow_1479_3833"/>
<feBlend mode="normal" in="SourceGraphic" in2="effect1_dropShadow_1479_3833" result="shape"/>
</filter>
</defs>
</svg>
