<svg width="341" height="68" viewBox="0 0 341 68" fill="none" xmlns="http://www.w3.org/2000/svg">
<g filter="url(#filter0_d_1716_5883)">
<rect x="2" width="337" height="64" rx="3" fill="white"/>
<g filter="url(#filter1_d_1716_5883)">
<path d="M274.819 35.68H276.331C277.115 35.68 277.759 35.432 278.263 34.936C278.775 34.432 279.031 33.708 279.031 32.764C279.031 31.812 278.779 31.084 278.275 30.58C277.771 30.068 277.127 29.812 276.343 29.812H274.819V35.68ZM276.379 37H273.379V28.492H276.391C277.591 28.492 278.579 28.872 279.355 29.632C280.139 30.392 280.531 31.436 280.531 32.764C280.531 34.084 280.139 35.12 279.355 35.872C278.571 36.624 277.579 37 276.379 37ZM282.915 33.436H285.783C285.767 33.068 285.635 32.76 285.387 32.512C285.147 32.264 284.799 32.14 284.343 32.14C283.927 32.14 283.591 32.272 283.335 32.536C283.079 32.792 282.939 33.092 282.915 33.436ZM285.939 34.96L287.115 35.332C286.947 35.868 286.631 36.312 286.167 36.664C285.711 37.008 285.147 37.18 284.475 37.18C283.643 37.18 282.935 36.896 282.351 36.328C281.775 35.76 281.487 35 281.487 34.048C281.487 33.152 281.767 32.416 282.327 31.84C282.895 31.264 283.563 30.976 284.331 30.976C285.227 30.976 285.927 31.252 286.431 31.804C286.935 32.348 287.187 33.084 287.187 34.012C287.187 34.26 287.175 34.408 287.151 34.456H282.879C282.895 34.896 283.055 35.26 283.359 35.548C283.671 35.836 284.043 35.98 284.475 35.98C285.227 35.98 285.715 35.64 285.939 34.96ZM289.909 37H288.517V28.312H289.909V37ZM293.085 37H291.705V31.156H293.085V37ZM291.753 29.74C291.577 29.564 291.489 29.352 291.489 29.104C291.489 28.856 291.577 28.644 291.753 28.468C291.929 28.284 292.141 28.192 292.389 28.192C292.645 28.192 292.861 28.28 293.037 28.456C293.213 28.632 293.301 28.848 293.301 29.104C293.301 29.352 293.213 29.564 293.037 29.74C292.861 29.916 292.645 30.004 292.389 30.004C292.141 30.004 291.929 29.916 291.753 29.74ZM300.16 31.156L297.868 37H296.476L294.1 31.156H295.636L297.184 35.332L298.696 31.156H300.16ZM301.981 33.436H304.849C304.833 33.068 304.701 32.76 304.453 32.512C304.213 32.264 303.865 32.14 303.409 32.14C302.993 32.14 302.657 32.272 302.401 32.536C302.145 32.792 302.005 33.092 301.981 33.436ZM305.005 34.96L306.181 35.332C306.013 35.868 305.697 36.312 305.233 36.664C304.777 37.008 304.213 37.18 303.541 37.18C302.709 37.18 302.001 36.896 301.417 36.328C300.841 35.76 300.553 35 300.553 34.048C300.553 33.152 300.833 32.416 301.393 31.84C301.961 31.264 302.629 30.976 303.397 30.976C304.293 30.976 304.993 31.252 305.497 31.804C306.001 32.348 306.253 33.084 306.253 34.012C306.253 34.26 306.241 34.408 306.217 34.456H301.945C301.961 34.896 302.121 35.26 302.425 35.548C302.737 35.836 303.109 35.98 303.541 35.98C304.293 35.98 304.781 35.64 305.005 34.96ZM311.004 31.12V32.536C310.844 32.512 310.692 32.5 310.548 32.5C309.5 32.5 308.976 33.072 308.976 34.216V37H307.584V31.156H308.94V32.092C309.076 31.78 309.296 31.536 309.6 31.36C309.904 31.176 310.248 31.084 310.632 31.084C310.76 31.084 310.884 31.096 311.004 31.12ZM313.079 33.436H315.947C315.931 33.068 315.799 32.76 315.551 32.512C315.311 32.264 314.963 32.14 314.507 32.14C314.091 32.14 313.755 32.272 313.499 32.536C313.243 32.792 313.103 33.092 313.079 33.436ZM316.103 34.96L317.279 35.332C317.111 35.868 316.795 36.312 316.331 36.664C315.875 37.008 315.311 37.18 314.639 37.18C313.807 37.18 313.099 36.896 312.515 36.328C311.939 35.76 311.651 35 311.651 34.048C311.651 33.152 311.931 32.416 312.491 31.84C313.059 31.264 313.727 30.976 314.495 30.976C315.391 30.976 316.091 31.252 316.595 31.804C317.099 32.348 317.351 33.084 317.351 34.012C317.351 34.26 317.339 34.408 317.315 34.456H313.043C313.059 34.896 313.219 35.26 313.523 35.548C313.835 35.836 314.207 35.98 314.639 35.98C315.391 35.98 315.879 35.64 316.103 34.96ZM319.617 34.06C319.617 34.62 319.761 35.072 320.049 35.416C320.337 35.752 320.717 35.92 321.189 35.92C321.645 35.92 322.017 35.748 322.305 35.404C322.593 35.06 322.737 34.608 322.737 34.048C322.737 33.496 322.597 33.056 322.317 32.728C322.037 32.4 321.665 32.236 321.201 32.236C320.737 32.236 320.357 32.404 320.061 32.74C319.765 33.068 319.617 33.508 319.617 34.06ZM324.081 28.312V35.932C324.081 36.324 324.101 36.68 324.141 37H322.809C322.769 36.776 322.749 36.524 322.749 36.244C322.605 36.508 322.381 36.724 322.077 36.892C321.773 37.06 321.425 37.144 321.033 37.144C320.201 37.144 319.525 36.852 319.005 36.268C318.485 35.684 318.225 34.948 318.225 34.06C318.225 33.204 318.485 32.48 319.005 31.888C319.533 31.296 320.201 31 321.009 31C321.473 31 321.845 31.084 322.125 31.252C322.413 31.42 322.613 31.616 322.725 31.84V28.312H324.081Z" fill="#30AE4D"/>
</g>
<path d="M182.248 37.404H181.144V36.144C180.368 36.048 179.76 35.764 179.32 35.292C178.88 34.82 178.628 34.296 178.564 33.72L179.908 33.348C179.94 33.724 180.06 34.056 180.268 34.344C180.476 34.624 180.768 34.808 181.144 34.896V32.688L180.928 32.64C180.28 32.496 179.772 32.236 179.404 31.86C179.044 31.484 178.864 31.008 178.864 30.432C178.864 29.84 179.076 29.324 179.5 28.884C179.932 28.436 180.48 28.168 181.144 28.08V26.808H182.248V28.092C182.896 28.196 183.396 28.44 183.748 28.824C184.108 29.2 184.336 29.624 184.432 30.096L183.136 30.504C183.04 29.936 182.744 29.556 182.248 29.364V31.512L182.356 31.536C183.052 31.688 183.584 31.968 183.952 32.376C184.328 32.784 184.516 33.264 184.516 33.816C184.516 34.384 184.316 34.888 183.916 35.328C183.516 35.768 182.96 36.036 182.248 36.132V37.404ZM180.268 30.348C180.268 30.572 180.34 30.772 180.484 30.948C180.636 31.116 180.856 31.228 181.144 31.284V29.316C180.864 29.388 180.648 29.52 180.496 29.712C180.344 29.896 180.268 30.108 180.268 30.348ZM183.124 33.888C183.124 33.408 182.832 33.088 182.248 32.928V34.896C182.536 34.84 182.752 34.72 182.896 34.536C183.048 34.344 183.124 34.128 183.124 33.888ZM187.683 32.472L187.023 31.404L189.171 29.484H185.631V28.224H191.031V29.424L188.919 31.272C189.543 31.288 190.087 31.508 190.551 31.932C191.015 32.356 191.247 32.924 191.247 33.636C191.247 34.34 190.983 34.94 190.455 35.436C189.927 35.932 189.219 36.18 188.331 36.18C187.467 36.18 186.767 35.944 186.231 35.472C185.703 34.992 185.415 34.408 185.367 33.72L186.771 33.432C186.787 33.88 186.939 34.244 187.227 34.524C187.523 34.804 187.887 34.944 188.319 34.944C188.775 34.944 189.135 34.816 189.399 34.56C189.663 34.304 189.795 33.992 189.795 33.624C189.795 33.208 189.655 32.892 189.375 32.676C189.103 32.452 188.783 32.34 188.415 32.34C188.103 32.34 187.859 32.384 187.683 32.472ZM192.06 34.296V32.736L195.372 28.224H197.22V33.024H198.528V34.296H197.22V36H195.804V34.296H192.06ZM195.804 33.024V29.676L193.356 33.024H195.804ZM200.675 32.112C200.675 33.12 200.859 33.86 201.227 34.332C201.515 34.716 201.915 34.908 202.427 34.908C202.923 34.908 203.323 34.716 203.627 34.332C203.987 33.868 204.167 33.128 204.167 32.112C204.167 31.096 203.987 30.356 203.627 29.892C203.323 29.508 202.923 29.316 202.427 29.316C201.915 29.316 201.515 29.508 201.227 29.892C200.859 30.348 200.675 31.088 200.675 32.112ZM199.943 34.908C199.479 34.212 199.247 33.28 199.247 32.112C199.247 30.944 199.479 30.012 199.943 29.316C200.511 28.468 201.339 28.044 202.427 28.044C203.507 28.044 204.331 28.468 204.899 29.316C205.363 30.012 205.595 30.944 205.595 32.112C205.595 33.28 205.363 34.212 204.899 34.908C204.331 35.756 203.507 36.18 202.427 36.18C201.339 36.18 200.511 35.756 199.943 34.908ZM206.736 35.796C206.552 35.604 206.46 35.372 206.46 35.1C206.46 34.828 206.552 34.596 206.736 34.404C206.928 34.212 207.16 34.116 207.432 34.116C207.704 34.116 207.936 34.212 208.128 34.404C208.32 34.596 208.416 34.828 208.416 35.1C208.416 35.372 208.32 35.604 208.128 35.796C207.936 35.98 207.704 36.072 207.432 36.072C207.16 36.072 206.928 35.98 206.736 35.796ZM211.103 31.14L209.711 31.044C209.687 30.828 209.675 30.68 209.675 30.6C209.675 29.896 209.923 29.296 210.419 28.8C210.923 28.296 211.599 28.044 212.447 28.044C213.279 28.044 213.943 28.28 214.439 28.752C214.935 29.224 215.183 29.804 215.183 30.492C215.183 31.484 214.683 32.288 213.683 32.904L212.171 33.84C211.731 34.104 211.467 34.4 211.379 34.728H215.231V36H209.603C209.619 35.304 209.767 34.696 210.047 34.176C210.327 33.656 210.795 33.192 211.451 32.784L212.735 31.98C213.399 31.564 213.731 31.076 213.731 30.516C213.731 30.172 213.615 29.884 213.383 29.652C213.159 29.42 212.839 29.304 212.423 29.304C211.983 29.304 211.647 29.44 211.415 29.712C211.183 29.976 211.067 30.32 211.067 30.744L211.103 31.14ZM217.62 32.112C217.62 33.12 217.804 33.86 218.172 34.332C218.46 34.716 218.86 34.908 219.372 34.908C219.868 34.908 220.268 34.716 220.572 34.332C220.932 33.868 221.112 33.128 221.112 32.112C221.112 31.096 220.932 30.356 220.572 29.892C220.268 29.508 219.868 29.316 219.372 29.316C218.86 29.316 218.46 29.508 218.172 29.892C217.804 30.348 217.62 31.088 217.62 32.112ZM216.888 34.908C216.424 34.212 216.192 33.28 216.192 32.112C216.192 30.944 216.424 30.012 216.888 29.316C217.456 28.468 218.284 28.044 219.372 28.044C220.452 28.044 221.276 28.468 221.844 29.316C222.308 30.012 222.54 30.944 222.54 32.112C222.54 33.28 222.308 34.212 221.844 34.908C221.276 35.756 220.452 36.18 219.372 36.18C218.284 36.18 217.456 35.756 216.888 34.908Z" fill="black"/>
<path d="M43.764 36.18C42.604 36.18 41.608 35.78 40.776 34.98C39.952 34.18 39.54 33.1 39.54 31.74C39.54 30.828 39.748 30.028 40.164 29.34C40.58 28.652 41.104 28.144 41.736 27.816C42.368 27.48 43.044 27.312 43.764 27.312C44.724 27.312 45.532 27.556 46.188 28.044C46.852 28.524 47.292 29.18 47.508 30.012L46.416 30.396C46.256 29.756 45.948 29.264 45.492 28.92C45.036 28.568 44.46 28.392 43.764 28.392C42.932 28.392 42.22 28.688 41.628 29.28C41.036 29.864 40.74 30.684 40.74 31.74C40.74 32.796 41.036 33.62 41.628 34.212C42.22 34.804 42.932 35.1 43.764 35.1C44.46 35.1 45.04 34.916 45.504 34.548C45.968 34.172 46.292 33.676 46.476 33.06L47.52 33.444C47.288 34.268 46.84 34.932 46.176 35.436C45.52 35.932 44.716 36.18 43.764 36.18ZM49.9708 32.604V36H48.8428V27.312H49.9708V30.9C50.3548 30.34 50.9388 30.06 51.7228 30.06C52.3868 30.06 52.8948 30.272 53.2468 30.696C53.6068 31.12 53.7868 31.668 53.7868 32.34V36H52.6588V32.532C52.6588 31.564 52.2108 31.08 51.3148 31.08C50.8988 31.08 50.5748 31.224 50.3428 31.512C50.1108 31.792 49.9868 32.156 49.9708 32.604ZM56.6971 36H55.5811V30.228H56.6971V36ZM55.5571 28.62C55.4051 28.46 55.3291 28.268 55.3291 28.044C55.3291 27.82 55.4051 27.628 55.5571 27.468C55.7171 27.308 55.9091 27.228 56.1331 27.228C56.3571 27.228 56.5491 27.308 56.7091 27.468C56.8691 27.62 56.9491 27.812 56.9491 28.044C56.9491 28.268 56.8691 28.46 56.7091 28.62C56.5491 28.772 56.3571 28.848 56.1331 28.848C55.9091 28.848 55.7171 28.772 55.5571 28.62ZM63.7883 30.228L61.3283 32.664L63.8363 36H62.4203L60.5363 33.456L59.7323 34.26V36H58.6163V27.312H59.7323V32.784L62.2283 30.228H63.7883ZM65.3483 32.52H68.5043C68.4883 32.088 68.3443 31.736 68.0723 31.464C67.8003 31.184 67.4163 31.044 66.9203 31.044C66.4723 31.044 66.1043 31.192 65.8163 31.488C65.5283 31.776 65.3723 32.12 65.3483 32.52ZM68.6723 34.02L69.6443 34.356C69.4763 34.892 69.1643 35.332 68.7083 35.676C68.2523 36.012 67.7003 36.18 67.0523 36.18C66.2443 36.18 65.5563 35.904 64.9883 35.352C64.4283 34.792 64.1483 34.04 64.1483 33.096C64.1483 32.216 64.4203 31.488 64.9643 30.912C65.5083 30.336 66.1563 30.048 66.9083 30.048C67.7803 30.048 68.4603 30.324 68.9483 30.876C69.4363 31.42 69.6803 32.152 69.6803 33.072C69.6803 33.216 69.6723 33.336 69.6562 33.432H65.3123C65.3203 33.944 65.4883 34.364 65.8163 34.692C66.1523 35.02 66.5643 35.184 67.0523 35.184C67.8763 35.184 68.4163 34.796 68.6723 34.02ZM75.8002 29.28C75.2002 29.864 74.9002 30.684 74.9002 31.74C74.9002 32.796 75.2002 33.62 75.8002 34.212C76.4002 34.804 77.1242 35.1 77.9722 35.1C78.8202 35.1 79.5442 34.804 80.1442 34.212C80.7442 33.62 81.0442 32.796 81.0442 31.74C81.0442 30.684 80.7442 29.864 80.1442 29.28C79.5442 28.688 78.8202 28.392 77.9722 28.392C77.1242 28.392 76.4002 28.688 75.8002 29.28ZM73.7002 31.74C73.7002 31.052 73.8202 30.424 74.0602 29.856C74.3082 29.288 74.6322 28.824 75.0322 28.464C75.4402 28.096 75.8962 27.812 76.4002 27.612C76.9042 27.412 77.4282 27.312 77.9722 27.312C78.5162 27.312 79.0402 27.412 79.5442 27.612C80.0482 27.812 80.5002 28.096 80.9002 28.464C81.3082 28.824 81.6322 29.288 81.8722 29.856C82.1202 30.424 82.2442 31.052 82.2442 31.74C82.2442 32.652 82.0322 33.452 81.6082 34.14C81.1922 34.828 80.6642 35.34 80.0242 35.676C79.3842 36.012 78.7002 36.18 77.9722 36.18C77.2442 36.18 76.5602 36.012 75.9202 35.676C75.2802 35.34 74.7482 34.828 74.3242 34.14C73.9082 33.452 73.7002 32.652 73.7002 31.74ZM83.7413 36.624V30.228H84.8693V36.672C84.8693 37.2 84.7253 37.628 84.4373 37.956C84.1493 38.292 83.7613 38.46 83.2733 38.46C82.9933 38.46 82.7692 38.432 82.6012 38.376V37.428C82.7212 37.452 82.8413 37.464 82.9613 37.464C83.4813 37.464 83.7413 37.184 83.7413 36.624ZM83.7173 28.596C83.5653 28.436 83.4893 28.244 83.4893 28.02C83.4893 27.796 83.5653 27.604 83.7173 27.444C83.8773 27.284 84.0693 27.204 84.2933 27.204C84.5173 27.204 84.7093 27.284 84.8693 27.444C85.0293 27.596 85.1093 27.788 85.1093 28.02C85.1093 28.244 85.0293 28.436 84.8693 28.596C84.7093 28.748 84.5173 28.824 84.2933 28.824C84.0693 28.824 83.8773 28.748 83.7173 28.596ZM87.9761 34.632C88.3281 34.992 88.7561 35.172 89.2601 35.172C89.7641 35.172 90.1881 34.992 90.5321 34.632C90.8841 34.264 91.0601 33.756 91.0601 33.108C91.0601 32.468 90.8841 31.968 90.5321 31.608C90.1881 31.24 89.7641 31.056 89.2601 31.056C88.7561 31.056 88.3281 31.24 87.9761 31.608C87.6321 31.968 87.4601 32.468 87.4601 33.108C87.4601 33.756 87.6321 34.264 87.9761 34.632ZM87.1361 30.924C87.6961 30.34 88.4041 30.048 89.2601 30.048C90.1161 30.048 90.8201 30.34 91.3721 30.924C91.9321 31.5 92.2121 32.228 92.2121 33.108C92.2121 33.996 91.9361 34.732 91.3841 35.316C90.8321 35.892 90.1241 36.18 89.2601 36.18C88.3961 36.18 87.6881 35.892 87.1361 35.316C86.5841 34.732 86.3081 33.996 86.3081 33.108C86.3081 32.228 86.5841 31.5 87.1361 30.924Z" fill="black"/>
<circle cx="25" cy="31" r="9" fill="#DBE7FF"/>
<path d="M28.75 27.7321L21.25 35.2321" stroke="#1565D8" stroke-width="0.5" stroke-miterlimit="10" stroke-linecap="round" stroke-linejoin="round"/>
<path d="M28.75 33.2339L28.75 27.7321L23.2482 27.7321" stroke="#1565D8" stroke-width="0.5" stroke-miterlimit="10" stroke-linecap="round" stroke-linejoin="round"/>
</g>
<defs>
<filter id="filter0_d_1716_5883" x="0" y="0" width="341" height="68" filterUnits="userSpaceOnUse" color-interpolation-filters="sRGB">
<feFlood flood-opacity="0" result="BackgroundImageFix"/>
<feColorMatrix in="SourceAlpha" type="matrix" values="0 0 0 0 0 0 0 0 0 0 0 0 0 0 0 0 0 0 127 0" result="hardAlpha"/>
<feOffset dy="2"/>
<feGaussianBlur stdDeviation="1"/>
<feComposite in2="hardAlpha" operator="out"/>
<feColorMatrix type="matrix" values="0 0 0 0 0 0 0 0 0 0 0 0 0 0 0 0 0 0 0.15 0"/>
<feBlend mode="normal" in2="BackgroundImageFix" result="effect1_dropShadow_1716_5883"/>
<feBlend mode="normal" in="SourceGraphic" in2="effect1_dropShadow_1716_5883" result="shape"/>
</filter>
<filter id="filter1_d_1716_5883" x="268.379" y="23.192" width="60.7618" height="18.988" filterUnits="userSpaceOnUse" color-interpolation-filters="sRGB">
<feFlood flood-opacity="0" result="BackgroundImageFix"/>
<feColorMatrix in="SourceAlpha" type="matrix" values="0 0 0 0 0 0 0 0 0 0 0 0 0 0 0 0 0 0 127 0" result="hardAlpha"/>
<feOffset/>
<feGaussianBlur stdDeviation="2.5"/>
<feComposite in2="hardAlpha" operator="out"/>
<feColorMatrix type="matrix" values="0 0 0 0 0.188235 0 0 0 0 0.682353 0 0 0 0 0.301961 0 0 0 0.5 0"/>
<feBlend mode="normal" in2="BackgroundImageFix" result="effect1_dropShadow_1716_5883"/>
<feBlend mode="normal" in="SourceGraphic" in2="effect1_dropShadow_1716_5883" result="shape"/>
</filter>
</defs>
</svg>
