<svg width="15" height="15" viewBox="0 0 15 15" fill="none" xmlns="http://www.w3.org/2000/svg">
<path d="M14.8541 6.03102H14.25V5.9999H7.5V8.99985H11.7386C11.1202 10.7462 9.45862 11.9998 7.5 11.9998C5.01487 11.9998 3 9.98495 3 7.49987C3 5.01479 5.01487 2.99995 7.5 2.99995C8.64713 2.99995 9.69075 3.43269 10.4854 4.13955L12.6067 2.01822C11.2672 0.769862 9.4755 0 7.5 0C3.35812 0 0 3.35807 0 7.49987C0 11.6417 3.35812 14.9997 7.5 14.9997C11.6419 14.9997 15 11.6417 15 7.49987C15 6.997 14.9482 6.50614 14.8541 6.03102Z" fill="#FFC107"/>
<path d="M0.864258 4.00906L3.32838 5.81615C3.99513 4.16543 5.60988 2.99995 7.49951 2.99995C8.64663 2.99995 9.69026 3.43269 10.4849 4.13955L12.6063 2.01822C11.2668 0.769862 9.47501 0 7.49951 0C4.61876 0 2.12051 1.62635 0.864258 4.00906Z" fill="#FF3D00"/>
<path d="M7.49987 15C9.43712 15 11.1974 14.2587 12.5282 13.0531L10.207 11.0889C9.42865 11.6807 8.47765 12.0008 7.49987 12.0001C5.54912 12.0001 3.89275 10.7562 3.26875 9.02039L0.822998 10.9047C2.06425 13.3336 4.585 15 7.49987 15Z" fill="#4CAF50"/>
<path d="M14.8541 6.031H14.25V5.99988H7.5V8.99983H11.7386C11.4428 9.83096 10.91 10.5572 10.206 11.0889L10.2071 11.0882L12.5284 13.0524C12.3641 13.2016 15 11.2498 15 7.49985C15 6.99699 14.9482 6.50612 14.8541 6.031Z" fill="#1976D2"/>
</svg>
