<svg width="341" height="68" viewBox="0 0 341 68" fill="none" xmlns="http://www.w3.org/2000/svg">
<g filter="url(#filter0_d_1716_5898)">
<rect x="2" width="337" height="64" rx="3" fill="white"/>
<g filter="url(#filter1_d_1716_5898)">
<path d="M274.452 37.18C273.26 37.18 272.244 36.776 271.404 35.968C270.572 35.16 270.156 34.088 270.156 32.752C270.156 31.424 270.58 30.352 271.428 29.536C272.276 28.72 273.28 28.312 274.44 28.312C275.464 28.312 276.304 28.572 276.96 29.092C277.624 29.612 278.06 30.272 278.268 31.072L276.912 31.528C276.776 30.976 276.5 30.528 276.084 30.184C275.668 29.84 275.12 29.668 274.44 29.668C273.68 29.668 273.02 29.94 272.46 30.484C271.908 31.02 271.632 31.776 271.632 32.752C271.632 33.704 271.908 34.452 272.46 34.996C273.012 35.532 273.676 35.8 274.452 35.8C275.116 35.8 275.664 35.62 276.096 35.26C276.528 34.9 276.824 34.456 276.984 33.928L278.304 34.36C278.096 35.152 277.656 35.82 276.984 36.364C276.32 36.908 275.476 37.18 274.452 37.18ZM279.087 35.416C279.087 34.92 279.247 34.524 279.567 34.228C279.895 33.924 280.323 33.732 280.851 33.652L282.351 33.424C282.639 33.384 282.783 33.244 282.783 33.004C282.783 32.74 282.691 32.528 282.507 32.368C282.323 32.2 282.047 32.116 281.679 32.116C281.327 32.116 281.047 32.216 280.839 32.416C280.631 32.608 280.511 32.86 280.479 33.172L279.207 32.884C279.263 32.356 279.515 31.908 279.963 31.54C280.411 31.164 280.979 30.976 281.667 30.976C282.515 30.976 283.139 31.18 283.539 31.588C283.947 31.996 284.151 32.52 284.151 33.16V36.064C284.151 36.448 284.175 36.76 284.223 37H282.927C282.887 36.88 282.867 36.632 282.867 36.256C282.483 36.872 281.883 37.18 281.067 37.18C280.475 37.18 279.995 37.008 279.627 36.664C279.267 36.312 279.087 35.896 279.087 35.416ZM281.331 36.088C281.763 36.088 282.111 35.972 282.375 35.74C282.647 35.5 282.783 35.112 282.783 34.576V34.312L281.259 34.54C280.739 34.628 280.479 34.892 280.479 35.332C280.479 35.54 280.555 35.72 280.707 35.872C280.859 36.016 281.067 36.088 281.331 36.088ZM287.226 33.628V37H285.834V31.156H287.19V31.936C287.374 31.616 287.618 31.38 287.922 31.228C288.234 31.068 288.566 30.988 288.918 30.988C289.606 30.988 290.13 31.204 290.49 31.636C290.85 32.068 291.03 32.624 291.03 33.304V37H289.638V33.544C289.638 33.152 289.542 32.84 289.35 32.608C289.158 32.368 288.854 32.248 288.438 32.248C288.054 32.248 287.754 32.38 287.538 32.644C287.33 32.9 287.226 33.228 287.226 33.628ZM295.268 32.26C294.82 32.26 294.44 32.424 294.128 32.752C293.816 33.072 293.66 33.512 293.66 34.072C293.66 34.64 293.816 35.088 294.128 35.416C294.448 35.744 294.836 35.908 295.292 35.908C295.7 35.908 296.024 35.8 296.264 35.584C296.512 35.36 296.676 35.108 296.756 34.828L297.98 35.272C297.82 35.792 297.508 36.24 297.044 36.616C296.588 36.992 296.004 37.18 295.292 37.18C294.436 37.18 293.716 36.884 293.132 36.292C292.556 35.7 292.268 34.96 292.268 34.072C292.268 33.176 292.552 32.436 293.12 31.852C293.696 31.268 294.408 30.976 295.256 30.976C295.984 30.976 296.576 31.164 297.032 31.54C297.496 31.916 297.796 32.368 297.932 32.896L296.684 33.352C296.604 33.048 296.448 32.792 296.216 32.584C295.992 32.368 295.676 32.26 295.268 32.26ZM300.13 33.436H302.998C302.982 33.068 302.85 32.76 302.602 32.512C302.362 32.264 302.014 32.14 301.558 32.14C301.142 32.14 300.806 32.272 300.55 32.536C300.294 32.792 300.154 33.092 300.13 33.436ZM303.154 34.96L304.33 35.332C304.162 35.868 303.846 36.312 303.382 36.664C302.926 37.008 302.362 37.18 301.69 37.18C300.858 37.18 300.15 36.896 299.566 36.328C298.99 35.76 298.702 35 298.702 34.048C298.702 33.152 298.982 32.416 299.542 31.84C300.11 31.264 300.778 30.976 301.546 30.976C302.442 30.976 303.142 31.252 303.646 31.804C304.15 32.348 304.402 33.084 304.402 34.012C304.402 34.26 304.39 34.408 304.366 34.456H300.094C300.11 34.896 300.27 35.26 300.574 35.548C300.886 35.836 301.258 35.98 301.69 35.98C302.442 35.98 302.93 35.64 303.154 34.96ZM307.124 37H305.732V28.312H307.124V37ZM310.312 37H308.92V28.312H310.312V37ZM313.079 33.436H315.947C315.931 33.068 315.799 32.76 315.551 32.512C315.311 32.264 314.963 32.14 314.507 32.14C314.091 32.14 313.755 32.272 313.499 32.536C313.243 32.792 313.103 33.092 313.079 33.436ZM316.103 34.96L317.279 35.332C317.111 35.868 316.795 36.312 316.331 36.664C315.875 37.008 315.311 37.18 314.639 37.18C313.807 37.18 313.099 36.896 312.515 36.328C311.939 35.76 311.651 35 311.651 34.048C311.651 33.152 311.931 32.416 312.491 31.84C313.059 31.264 313.727 30.976 314.495 30.976C315.391 30.976 316.091 31.252 316.595 31.804C317.099 32.348 317.351 33.084 317.351 34.012C317.351 34.26 317.339 34.408 317.315 34.456H313.043C313.059 34.896 313.219 35.26 313.523 35.548C313.835 35.836 314.207 35.98 314.639 35.98C315.391 35.98 315.879 35.64 316.103 34.96ZM319.617 34.06C319.617 34.62 319.761 35.072 320.049 35.416C320.337 35.752 320.717 35.92 321.189 35.92C321.645 35.92 322.017 35.748 322.305 35.404C322.593 35.06 322.737 34.608 322.737 34.048C322.737 33.496 322.597 33.056 322.317 32.728C322.037 32.4 321.665 32.236 321.201 32.236C320.737 32.236 320.357 32.404 320.061 32.74C319.765 33.068 319.617 33.508 319.617 34.06ZM324.081 28.312V35.932C324.081 36.324 324.101 36.68 324.141 37H322.809C322.769 36.776 322.749 36.524 322.749 36.244C322.605 36.508 322.381 36.724 322.077 36.892C321.773 37.06 321.425 37.144 321.033 37.144C320.201 37.144 319.525 36.852 319.005 36.268C318.485 35.684 318.225 34.948 318.225 34.06C318.225 33.204 318.485 32.48 319.005 31.888C319.533 31.296 320.201 31 321.009 31C321.473 31 321.845 31.084 322.125 31.252C322.413 31.42 322.613 31.616 322.725 31.84V28.312H324.081Z" fill="#E30A17"/>
</g>
<path d="M180.52 36.06C180.312 36.06 180.124 36.052 179.956 36.036C179.788 36.028 179.644 36.016 179.524 36V32.088L178.24 32.532V31.752L179.524 31.32V30.372L178.24 30.804V30.024L179.524 29.592V27.432H180.556V29.232L183.028 28.38V29.16L180.556 30.012V30.96L183.028 30.108V30.876L180.556 31.74V35.148C181.284 35.148 181.86 35 182.284 34.704C182.708 34.4 183.012 33.996 183.196 33.492C183.38 32.988 183.472 32.424 183.472 31.8H184.504C184.504 32.352 184.432 32.884 184.288 33.396C184.152 33.908 183.924 34.364 183.604 34.764C183.292 35.164 182.884 35.48 182.38 35.712C181.876 35.944 181.256 36.06 180.52 36.06ZM185.251 33.852L186.607 33.504C186.639 33.928 186.799 34.276 187.087 34.548C187.375 34.82 187.739 34.956 188.179 34.956C188.595 34.956 188.943 34.828 189.223 34.572C189.511 34.308 189.655 33.964 189.655 33.54C189.655 33.084 189.511 32.732 189.223 32.484C188.935 32.228 188.579 32.1 188.155 32.1C187.611 32.1 187.179 32.28 186.859 32.64L185.503 32.148L186.463 28.224H190.723V29.484H187.435L186.955 31.452C187.299 31.092 187.795 30.912 188.443 30.912C189.235 30.912 189.875 31.144 190.363 31.608C190.859 32.072 191.107 32.704 191.107 33.504C191.107 34.256 190.839 34.892 190.303 35.412C189.767 35.932 189.059 36.192 188.179 36.192C187.363 36.192 186.683 35.964 186.139 35.508C185.595 35.044 185.299 34.492 185.251 33.852ZM193.421 32.112C193.421 33.12 193.605 33.86 193.973 34.332C194.261 34.716 194.661 34.908 195.173 34.908C195.669 34.908 196.069 34.716 196.373 34.332C196.733 33.868 196.913 33.128 196.913 32.112C196.913 31.096 196.733 30.356 196.373 29.892C196.069 29.508 195.669 29.316 195.173 29.316C194.661 29.316 194.261 29.508 193.973 29.892C193.605 30.348 193.421 31.088 193.421 32.112ZM192.689 34.908C192.225 34.212 191.993 33.28 191.993 32.112C191.993 30.944 192.225 30.012 192.689 29.316C193.257 28.468 194.085 28.044 195.173 28.044C196.253 28.044 197.077 28.468 197.645 29.316C198.109 30.012 198.341 30.944 198.341 32.112C198.341 33.28 198.109 34.212 197.645 34.908C197.077 35.756 196.253 36.18 195.173 36.18C194.085 36.18 193.257 35.756 192.689 34.908ZM200.816 32.112C200.816 33.12 201 33.86 201.368 34.332C201.656 34.716 202.056 34.908 202.568 34.908C203.064 34.908 203.464 34.716 203.768 34.332C204.128 33.868 204.308 33.128 204.308 32.112C204.308 31.096 204.128 30.356 203.768 29.892C203.464 29.508 203.064 29.316 202.568 29.316C202.056 29.316 201.656 29.508 201.368 29.892C201 30.348 200.816 31.088 200.816 32.112ZM200.084 34.908C199.62 34.212 199.388 33.28 199.388 32.112C199.388 30.944 199.62 30.012 200.084 29.316C200.652 28.468 201.48 28.044 202.568 28.044C203.648 28.044 204.472 28.468 205.04 29.316C205.504 30.012 205.736 30.944 205.736 32.112C205.736 33.28 205.504 34.212 205.04 34.908C204.472 35.756 203.648 36.18 202.568 36.18C201.48 36.18 200.652 35.756 200.084 34.908ZM206.877 35.796C206.693 35.604 206.601 35.372 206.601 35.1C206.601 34.828 206.693 34.596 206.877 34.404C207.069 34.212 207.301 34.116 207.573 34.116C207.845 34.116 208.077 34.212 208.269 34.404C208.461 34.596 208.557 34.828 208.557 35.1C208.557 35.372 208.461 35.604 208.269 35.796C208.077 35.98 207.845 36.072 207.573 36.072C207.301 36.072 207.069 35.98 206.877 35.796ZM211.081 32.112C211.081 33.12 211.265 33.86 211.633 34.332C211.921 34.716 212.321 34.908 212.833 34.908C213.329 34.908 213.729 34.716 214.033 34.332C214.393 33.868 214.573 33.128 214.573 32.112C214.573 31.096 214.393 30.356 214.033 29.892C213.729 29.508 213.329 29.316 212.833 29.316C212.321 29.316 211.921 29.508 211.633 29.892C211.265 30.348 211.081 31.088 211.081 32.112ZM210.349 34.908C209.885 34.212 209.653 33.28 209.653 32.112C209.653 30.944 209.885 30.012 210.349 29.316C210.917 28.468 211.745 28.044 212.833 28.044C213.913 28.044 214.737 28.468 215.305 29.316C215.769 30.012 216.001 30.944 216.001 32.112C216.001 33.28 215.769 34.212 215.305 34.908C214.737 35.756 213.913 36.18 212.833 36.18C211.745 36.18 210.917 35.756 210.349 34.908ZM218.476 32.112C218.476 33.12 218.66 33.86 219.028 34.332C219.316 34.716 219.716 34.908 220.228 34.908C220.724 34.908 221.124 34.716 221.428 34.332C221.788 33.868 221.968 33.128 221.968 32.112C221.968 31.096 221.788 30.356 221.428 29.892C221.124 29.508 220.724 29.316 220.228 29.316C219.716 29.316 219.316 29.508 219.028 29.892C218.66 30.348 218.476 31.088 218.476 32.112ZM217.744 34.908C217.28 34.212 217.048 33.28 217.048 32.112C217.048 30.944 217.28 30.012 217.744 29.316C218.312 28.468 219.14 28.044 220.228 28.044C221.308 28.044 222.132 28.468 222.7 29.316C223.164 30.012 223.396 30.944 223.396 32.112C223.396 33.28 223.164 34.212 222.7 34.908C222.132 35.756 221.308 36.18 220.228 36.18C219.14 36.18 218.312 35.756 217.744 34.908Z" fill="black"/>
<path d="M49.272 36H48.108V29.376L45.204 36H44.124L41.244 29.376V36H40.08V27.492H41.676L44.676 34.416L47.7 27.492H49.272V36ZM50.8969 34.452C50.8969 33.956 51.0569 33.56 51.3769 33.264C51.6969 32.96 52.1209 32.772 52.6489 32.7L54.2089 32.472C54.5049 32.432 54.6529 32.288 54.6529 32.04C54.6529 31.736 54.5489 31.488 54.3409 31.296C54.1329 31.104 53.8209 31.008 53.4049 31.008C53.0209 31.008 52.7169 31.116 52.4929 31.332C52.2689 31.54 52.1369 31.82 52.0969 32.172L51.0169 31.92C51.0729 31.368 51.3249 30.92 51.7729 30.576C52.2209 30.224 52.7569 30.048 53.3809 30.048C54.1969 30.048 54.8009 30.248 55.1929 30.648C55.5849 31.04 55.7809 31.544 55.7809 32.16V35.052C55.7809 35.396 55.8049 35.712 55.8529 36H54.7489C54.7089 35.76 54.6889 35.5 54.6889 35.22C54.5289 35.476 54.2929 35.7 53.9809 35.892C53.6769 36.084 53.2929 36.18 52.8289 36.18C52.2609 36.18 51.7969 36.012 51.4369 35.676C51.0769 35.332 50.8969 34.924 50.8969 34.452ZM52.9849 35.232C53.4889 35.232 53.8929 35.096 54.1969 34.824C54.5009 34.552 54.6529 34.12 54.6529 33.528V33.264L52.8889 33.528C52.6329 33.568 52.4289 33.66 52.2769 33.804C52.1249 33.948 52.0489 34.144 52.0489 34.392C52.0489 34.616 52.1329 34.812 52.3009 34.98C52.4769 35.148 52.7049 35.232 52.9849 35.232ZM60.7421 30.168V31.368C60.5741 31.344 60.4101 31.332 60.2501 31.332C59.1941 31.332 58.6661 31.924 58.6661 33.108V36H57.5381V30.228H58.6421V31.236C58.9941 30.5 59.5701 30.132 60.3701 30.132C60.4981 30.132 60.6221 30.144 60.7421 30.168ZM67.0642 30.228L64.7602 36H63.6202L61.2802 30.228H62.5522L64.1962 34.68L65.8522 30.228H67.0642ZM68.6998 32.52H71.8558C71.8398 32.088 71.6958 31.736 71.4238 31.464C71.1518 31.184 70.7678 31.044 70.2718 31.044C69.8238 31.044 69.4558 31.192 69.1678 31.488C68.8798 31.776 68.7238 32.12 68.6998 32.52ZM72.0238 34.02L72.9958 34.356C72.8278 34.892 72.5158 35.332 72.0598 35.676C71.6038 36.012 71.0518 36.18 70.4038 36.18C69.5958 36.18 68.9078 35.904 68.3398 35.352C67.7798 34.792 67.4998 34.04 67.4998 33.096C67.4998 32.216 67.7718 31.488 68.3158 30.912C68.8598 30.336 69.5078 30.048 70.2598 30.048C71.1318 30.048 71.8118 30.324 72.2998 30.876C72.7878 31.42 73.0318 32.152 73.0318 33.072C73.0318 33.216 73.0238 33.336 73.0078 33.432H68.6638C68.6718 33.944 68.8398 34.364 69.1678 34.692C69.5038 35.02 69.9158 35.184 70.4038 35.184C71.2278 35.184 71.7678 34.796 72.0238 34.02ZM75.5997 36H74.4717V27.312H75.5997V36ZM85.8106 36H80.6386V27.492H85.8106V28.584H81.8146V31.2H85.4386V32.304H81.8146V34.908H85.8106V36ZM92.6633 30.228L90.2033 32.664L92.7113 36H91.2953L89.4113 33.456L88.6073 34.26V36H87.4913V27.312H88.6073V32.784L91.1033 30.228H92.6633ZM94.9119 38.28H93.7959V30.228H94.8879V31.128C95.0559 30.824 95.3079 30.576 95.6439 30.384C95.9799 30.192 96.3719 30.096 96.8199 30.096C97.6519 30.096 98.2999 30.38 98.7639 30.948C99.2359 31.516 99.4719 32.236 99.4719 33.108C99.4719 33.988 99.2279 34.716 98.7399 35.292C98.2599 35.868 97.6079 36.156 96.7839 36.156C96.3599 36.156 95.9839 36.068 95.6559 35.892C95.3279 35.716 95.0799 35.492 94.9119 35.22V38.28ZM98.3199 33.108C98.3199 32.524 98.1639 32.044 97.8519 31.668C97.5479 31.284 97.1359 31.092 96.6159 31.092C96.1039 31.092 95.6879 31.284 95.3679 31.668C95.0559 32.044 94.8999 32.524 94.8999 33.108C94.8999 33.708 95.0559 34.2 95.3679 34.584C95.6879 34.96 96.1039 35.148 96.6159 35.148C97.1279 35.148 97.5399 34.96 97.8519 34.584C98.1639 34.2 98.3199 33.708 98.3199 33.108ZM102.097 34.632C102.449 34.992 102.877 35.172 103.381 35.172C103.885 35.172 104.309 34.992 104.653 34.632C105.005 34.264 105.181 33.756 105.181 33.108C105.181 32.468 105.005 31.968 104.653 31.608C104.309 31.24 103.885 31.056 103.381 31.056C102.877 31.056 102.449 31.24 102.097 31.608C101.753 31.968 101.581 32.468 101.581 33.108C101.581 33.756 101.753 34.264 102.097 34.632ZM101.257 30.924C101.817 30.34 102.525 30.048 103.381 30.048C104.237 30.048 104.941 30.34 105.493 30.924C106.053 31.5 106.333 32.228 106.333 33.108C106.333 33.996 106.057 34.732 105.505 35.316C104.953 35.892 104.245 36.18 103.381 36.18C102.517 36.18 101.809 35.892 101.257 35.316C100.705 34.732 100.429 33.996 100.429 33.108C100.429 32.228 100.705 31.5 101.257 30.924Z" fill="black"/>
<circle cx="25" cy="31" r="9" fill="#DBE7FF"/>
<path d="M28.75 27.7321L21.25 35.2321" stroke="#1565D8" stroke-width="0.5" stroke-miterlimit="10" stroke-linecap="round" stroke-linejoin="round"/>
<path d="M28.75 33.2339L28.75 27.7321L23.2482 27.7321" stroke="#1565D8" stroke-width="0.5" stroke-miterlimit="10" stroke-linecap="round" stroke-linejoin="round"/>
</g>
<defs>
<filter id="filter0_d_1716_5898" x="0" y="0" width="341" height="68" filterUnits="userSpaceOnUse" color-interpolation-filters="sRGB">
<feFlood flood-opacity="0" result="BackgroundImageFix"/>
<feColorMatrix in="SourceAlpha" type="matrix" values="0 0 0 0 0 0 0 0 0 0 0 0 0 0 0 0 0 0 127 0" result="hardAlpha"/>
<feOffset dy="2"/>
<feGaussianBlur stdDeviation="1"/>
<feComposite in2="hardAlpha" operator="out"/>
<feColorMatrix type="matrix" values="0 0 0 0 0 0 0 0 0 0 0 0 0 0 0 0 0 0 0.15 0"/>
<feBlend mode="normal" in2="BackgroundImageFix" result="effect1_dropShadow_1716_5898"/>
<feBlend mode="normal" in="SourceGraphic" in2="effect1_dropShadow_1716_5898" result="shape"/>
</filter>
<filter id="filter1_d_1716_5898" x="265.156" y="23.312" width="63.9849" height="18.868" filterUnits="userSpaceOnUse" color-interpolation-filters="sRGB">
<feFlood flood-opacity="0" result="BackgroundImageFix"/>
<feColorMatrix in="SourceAlpha" type="matrix" values="0 0 0 0 0 0 0 0 0 0 0 0 0 0 0 0 0 0 127 0" result="hardAlpha"/>
<feOffset/>
<feGaussianBlur stdDeviation="2.5"/>
<feComposite in2="hardAlpha" operator="out"/>
<feColorMatrix type="matrix" values="0 0 0 0 0.890196 0 0 0 0 0.0392157 0 0 0 0 0.0901961 0 0 0 0.5 0"/>
<feBlend mode="normal" in2="BackgroundImageFix" result="effect1_dropShadow_1716_5898"/>
<feBlend mode="normal" in="SourceGraphic" in2="effect1_dropShadow_1716_5898" result="shape"/>
</filter>
</defs>
</svg>
