<svg width="15" height="18" viewBox="0 0 15 18" fill="none" xmlns="http://www.w3.org/2000/svg">
<path fill-rule="evenodd" clip-rule="evenodd" d="M8.00859 16.3199L8.48847 13.1436L8.51132 12.9608C8.53417 12.8008 8.60272 12.6637 8.73983 12.5723C8.87694 12.4809 9.01405 12.4123 9.17401 12.4123H9.56248C10.2252 12.4123 10.8422 12.3438 11.3677 12.2067C11.939 12.0467 12.4418 11.8182 12.8759 11.5211C13.333 11.2012 13.7214 10.767 14.0185 10.2643C14.3384 9.73871 14.5669 9.09887 14.7041 8.34477C14.8412 7.70493 14.864 7.1108 14.7726 6.63092C14.6812 6.10533 14.4755 5.67116 14.1785 5.30554C13.9957 5.09987 13.7443 4.89421 13.4472 4.7571C13.5386 4.11726 13.5386 3.56883 13.4244 3.1118C13.3101 2.65477 13.1045 2.22059 12.7388 1.83212C12.0304 1.00947 10.7051 0.598145 8.85409 0.598145H3.80393C3.64397 0.598145 3.46116 0.666699 3.3469 0.780956C3.20979 0.895213 3.14124 1.05517 3.09553 1.21513L0.970351 14.6975C0.9475 14.8117 0.993203 14.9488 1.06176 15.0402C1.15316 15.1316 1.26742 15.2002 1.38168 15.2002H4.55802V15.223L4.32951 16.5941C4.30666 16.7084 4.35236 16.7998 4.42091 16.8912C4.48947 16.9826 4.60373 17.0283 4.69513 17.0283H7.3459C7.50586 17.0283 7.64296 16.9826 7.75722 16.8683C7.87148 16.7769 7.94003 16.6398 7.96288 16.4799L8.00859 16.3199Z" fill="#27346A"/>
<path fill-rule="evenodd" clip-rule="evenodd" d="M6.18053 4.73396C6.20338 4.52829 6.34049 4.34548 6.54615 4.25408C6.63756 4.20837 6.72896 4.18552 6.82037 4.18552H10.8194C11.2992 4.18552 11.7334 4.20837 12.1447 4.27693C12.259 4.29978 12.3733 4.32263 12.4875 4.34548C12.6018 4.36833 12.6932 4.39119 12.8074 4.43689C12.8531 4.45974 12.8988 4.45974 12.9674 4.48259C13.1731 4.55115 13.3559 4.6197 13.5158 4.71111C13.7215 3.43143 13.5158 2.56307 12.8303 1.76327C12.0762 0.89492 10.6823 0.529297 8.9227 0.529297H3.80398C3.43836 0.529297 3.14129 0.780662 3.07274 1.14628L0.947554 14.6286C0.901851 14.9028 1.10751 15.1313 1.38173 15.1313H4.53523L6.18053 4.73396Z" fill="#27346A"/>
<path fill-rule="evenodd" clip-rule="evenodd" d="M13.4931 4.73376C13.4702 4.82517 13.4702 4.93943 13.4474 5.03083C12.7847 8.4814 10.4767 9.69252 7.52886 9.69252H6.02067C5.65505 9.69252 5.35798 9.94389 5.31227 10.3095L4.32966 16.5479C4.28396 16.7765 4.46677 16.9821 4.71814 16.9821H7.3689C7.68882 16.9821 7.94019 16.7536 8.00874 16.4337L8.03159 16.2966L8.51147 13.1431L8.53432 12.9603C8.58003 12.6404 8.85424 12.4118 9.17416 12.4118H9.56264C12.1448 12.4118 14.1558 11.3607 14.7499 8.34429C15.0013 7.08746 14.8642 6.01344 14.2243 5.2822C14.0187 5.05368 13.7901 4.87087 13.4931 4.73376Z" fill="#2790C3"/>
<path fill-rule="evenodd" clip-rule="evenodd" d="M12.7853 4.43691C12.6939 4.41406 12.5796 4.39121 12.4654 4.34551C12.3511 4.32266 12.2369 4.2998 12.1226 4.27695C11.7113 4.2084 11.2771 4.18555 10.7972 4.18555H6.79823C6.70683 4.18555 6.61542 4.2084 6.52402 4.2541C6.34121 4.34551 6.2041 4.52832 6.15839 4.73398L5.31289 10.1269L5.29004 10.2869C5.33574 9.92125 5.65566 9.66989 5.99843 9.66989H7.50663C10.4545 9.66989 12.7625 8.48161 13.4251 5.0082C13.448 4.91679 13.4708 4.80254 13.4708 4.71113C13.3109 4.61972 13.1052 4.55117 12.9224 4.48262C12.8996 4.48262 12.831 4.45976 12.7853 4.43691Z" fill="#1F264F"/>
</svg>
