<svg width="174" height="31" viewBox="0 0 174 31" fill="none" xmlns="http://www.w3.org/2000/svg">
<g clip-path="url(#clip0_1578_9666)">
<path d="M20.2654 28.109C27.7138 24.9918 31.2248 16.4266 28.1076 8.97819C24.9903 1.52979 16.4252 -1.98129 8.97676 1.13597C1.52836 4.25323 -1.98273 12.8184 1.13453 20.2668C4.2518 27.7152 12.817 31.2263 20.2654 28.109Z" fill="#141414"/>
<path d="M6.7207 22.8998L7.9407 18.3498C6.95832 16.5771 6.64835 14.5095 7.06769 12.5265C7.48703 10.5436 8.60754 8.77851 10.2235 7.55524C11.8395 6.33196 13.8425 5.73262 15.8648 5.86724C17.8871 6.00186 19.7929 6.86141 21.2325 8.28809C22.6721 9.71476 23.5487 11.6128 23.7015 13.6338C23.8543 15.6548 23.273 17.6631 22.0643 19.29C20.8557 20.9169 19.1007 22.0533 17.1216 22.4904C15.1426 22.9276 13.0722 22.6362 11.2907 21.6698L6.7207 22.8998ZM11.5207 19.9998L11.8107 20.1698C13.2472 21.0274 14.9479 21.3296 16.5919 21.0195C18.2359 20.7093 19.7096 19.8082 20.7349 18.4862C21.7602 17.1642 22.2662 15.5126 22.1575 13.8432C22.0488 12.1737 21.3329 10.6017 20.1448 9.4238C18.9568 8.24589 17.3787 7.54349 15.7083 7.44913C14.038 7.35477 12.3909 7.87496 11.0777 8.91156C9.76451 9.94817 8.8761 11.4295 8.58006 13.0761C8.28403 14.7227 8.60083 16.4208 9.4707 17.8498L9.6507 18.1398L9.0007 20.6498L11.5207 19.9998Z" fill="white"/>
<path fill-rule="evenodd" clip-rule="evenodd" d="M18.41 15.4603C18.2441 15.3262 18.0495 15.2322 17.8414 15.1853C17.6334 15.1385 17.4173 15.1402 17.21 15.1903C16.89 15.3103 16.7 15.8003 16.49 16.0503C16.4478 16.1082 16.3863 16.1491 16.3166 16.1656C16.2469 16.1821 16.1736 16.1731 16.11 16.1403C14.9646 15.6957 14.0052 14.8738 13.39 13.8103C13.3323 13.7476 13.3004 13.6655 13.3004 13.5803C13.3004 13.4951 13.3323 13.413 13.39 13.3503C13.6193 13.1302 13.7881 12.8546 13.88 12.5503C13.9118 12.2022 13.8349 11.8529 13.66 11.5503C13.5237 11.1586 13.2814 10.8124 12.96 10.5503C12.795 10.4842 12.6154 10.4632 12.4396 10.4896C12.2638 10.5159 12.0983 10.5887 11.96 10.7003C11.7204 10.9079 11.5305 11.1666 11.4041 11.4574C11.2778 11.7481 11.2183 12.0635 11.23 12.3803C11.2296 12.5587 11.2497 12.7365 11.29 12.9103C11.3993 13.3272 11.5712 13.725 11.8 14.0903C11.97 14.3703 12.14 14.6403 12.33 14.9003C12.9608 15.7432 13.7485 16.4563 14.65 17.0003C15.1013 17.2859 15.5846 17.5175 16.09 17.6903C16.6119 17.9295 17.19 18.0194 17.76 17.9503C18.0887 17.9038 18.4008 17.7761 18.6679 17.5788C18.935 17.3815 19.1488 17.1209 19.29 16.8203C19.3705 16.6382 19.3949 16.4363 19.36 16.2403C19.27 15.8903 18.73 15.6503 18.41 15.4603Z" fill="white"/>
</g>
<g clip-path="url(#clip1_1578_9666)">
<path d="M62.62 29.24C70.6944 29.24 77.24 22.6944 77.24 14.62C77.24 6.5456 70.6944 0 62.62 0C54.5456 0 48 6.5456 48 14.62C48 22.6944 54.5456 29.24 62.62 29.24Z" fill="#141414"/>
<path d="M56.4899 11.8999H59.3199V20.9999H56.4899V11.8999ZM57.9099 7.37991C58.2347 7.38192 58.5515 7.48031 58.8203 7.66261C59.0891 7.84492 59.2977 8.10292 59.4197 8.40393C59.5417 8.70493 59.5715 9.03537 59.5055 9.35337C59.4395 9.67136 59.2805 9.96259 59.0487 10.1901C58.817 10.4177 58.5229 10.5713 58.2037 10.6315C57.8846 10.6917 57.5547 10.6557 57.256 10.5283C56.9573 10.4008 56.7032 10.1875 56.5258 9.91538C56.3485 9.64329 56.2559 9.32467 56.2599 8.99991C56.2652 8.5667 56.4416 8.15317 56.7508 7.84964C57.0599 7.54611 57.4766 7.37724 57.9099 7.37991Z" fill="white"/>
<path d="M61.0996 11.8996H63.8096V13.1396C64.0836 12.6769 64.4769 12.2963 64.9483 12.0377C65.4198 11.7791 65.9522 11.6519 66.4896 11.6696C69.3596 11.6696 69.8796 13.5596 69.8796 16.0096V21.0096H67.0896V16.5696C67.0896 15.5196 67.0896 14.1596 65.6196 14.1596C64.1496 14.1596 63.9196 15.3096 63.9196 16.4996V20.9996H61.0996V11.8996Z" fill="white"/>
</g>
<g clip-path="url(#clip2_1578_9666)">
<path d="M110.62 30.24C118.694 30.24 125.24 23.6944 125.24 15.62C125.24 7.5456 118.694 1 110.62 1C102.546 1 96 7.5456 96 15.62C96 23.6944 102.546 30.24 110.62 30.24Z" fill="#141414"/>
<path d="M118.701 10.6101C118.186 10.8315 117.645 10.9861 117.091 11.0701C117.351 11.0701 117.731 10.5601 117.881 10.3701C118.123 10.0742 118.306 9.73482 118.421 9.37012C118.421 9.37012 118.421 9.31012 118.421 9.29012C118.41 9.28028 118.395 9.27484 118.381 9.27484C118.366 9.27484 118.352 9.28028 118.341 9.29012C117.732 9.60973 117.088 9.85483 116.421 10.0201C116.401 10.0315 116.378 10.0375 116.356 10.0375C116.333 10.0375 116.31 10.0315 116.291 10.0201L116.131 9.85012C115.851 9.61373 115.538 9.4215 115.201 9.28012C114.751 9.09801 114.264 9.02271 113.781 9.06012C113.309 9.09071 112.849 9.22018 112.431 9.44012C112.011 9.65558 111.64 9.95513 111.341 10.3201C111.036 10.7038 110.815 11.1465 110.691 11.6201C110.601 12.0757 110.601 12.5445 110.691 13.0001C110.691 13.0701 110.691 13.0801 110.621 13.0701C108.073 12.8202 105.711 11.6251 104.001 9.72012C103.931 9.63012 103.891 9.63012 103.821 9.72012C103.479 10.3491 103.35 11.0715 103.453 11.7797C103.556 12.4879 103.885 13.144 104.391 13.6501C104.521 13.7701 104.651 13.9001 104.791 14.0101C104.351 13.9753 103.922 13.8529 103.531 13.6501C103.451 13.6001 103.411 13.6501 103.401 13.7201C103.391 13.8466 103.391 13.9736 103.401 14.1001C103.476 14.6904 103.708 15.2499 104.072 15.7209C104.436 16.192 104.919 16.5576 105.471 16.7801C105.604 16.8429 105.745 16.8867 105.891 16.9101C105.48 16.9837 105.061 16.9837 104.651 16.9101C104.561 16.9101 104.521 16.9101 104.561 17.0201C104.774 17.5767 105.125 18.0699 105.582 18.453C106.039 18.8362 106.585 19.0967 107.171 19.2101C107.291 19.2101 107.411 19.2101 107.531 19.2101C107.026 19.6866 106.411 20.0302 105.741 20.2101C104.872 20.5171 103.948 20.6331 103.031 20.5501C102.891 20.5501 102.861 20.5501 102.821 20.5501C102.781 20.5501 102.821 20.6101 102.821 20.6501C102.821 20.6901 103.191 20.8801 103.381 20.9901C103.956 21.2941 104.563 21.5355 105.191 21.7101C106.807 22.1978 108.524 22.2522 110.168 21.8678C111.813 21.4835 113.327 20.6739 114.561 19.5201C115.448 18.5577 116.134 17.4277 116.579 16.1964C117.024 14.9652 117.218 13.6575 117.151 12.3501C117.151 12.2501 117.271 12.1901 117.351 12.1301C117.838 11.7563 118.266 11.3113 118.621 10.8101C118.676 10.7381 118.707 10.6507 118.711 10.5601C118.711 10.5601 118.761 10.5801 118.701 10.6101Z" fill="white"/>
</g>
<g clip-path="url(#clip3_1578_9666)">
<path d="M158.62 29.98C166.694 29.98 173.24 23.4926 173.24 15.49C173.24 7.48739 166.694 1 158.62 1C150.546 1 144 7.48739 144 15.49C144 23.4926 150.546 29.98 158.62 29.98Z" fill="#141414"/>
<path d="M163.16 10C162.962 10 162.769 10.0586 162.605 10.1685C162.44 10.2784 162.312 10.4346 162.236 10.6173C162.161 10.8 162.141 11.0011 162.179 11.1951C162.218 11.3891 162.313 11.5673 162.453 11.7071C162.593 11.847 162.771 11.9422 162.965 11.9808C163.159 12.0194 163.36 11.9996 163.543 11.9239C163.726 11.8482 163.882 11.72 163.992 11.5556C164.102 11.3911 164.16 11.1978 164.16 11C164.16 10.7348 164.055 10.4804 163.867 10.2929C163.68 10.1054 163.425 10 163.16 10Z" fill="white"/>
<path d="M158.689 11.2803C157.862 11.2862 157.055 11.537 156.37 12.001C155.685 12.465 155.152 13.1214 154.84 13.8875C154.527 14.6536 154.448 15.4952 154.613 16.3059C154.779 17.1167 155.18 17.8605 155.767 18.4435C156.354 19.0265 157.101 19.4226 157.913 19.5818C158.725 19.7411 159.566 19.6564 160.33 19.3384C161.093 19.0204 161.746 18.4834 162.205 17.795C162.664 17.1066 162.909 16.2977 162.909 15.4703C162.904 14.3555 162.457 13.2882 161.666 12.5028C160.875 11.7173 159.804 11.2776 158.689 11.2803ZM158.689 18.1503C158.161 18.1444 157.645 17.9822 157.209 17.6841C156.772 17.3861 156.433 16.9655 156.235 16.4753C156.037 15.9851 155.988 15.4472 156.095 14.9293C156.201 14.4114 156.459 13.9367 156.835 13.5649C157.211 13.1931 157.688 12.9408 158.207 12.8398C158.726 12.7388 159.264 12.7936 159.752 12.9973C160.24 13.201 160.656 13.5445 160.95 13.9845C161.243 14.4246 161.399 14.9415 161.399 15.4703C161.398 15.8244 161.327 16.1747 161.19 16.5013C161.053 16.8278 160.853 17.124 160.601 17.373C160.349 17.622 160.051 17.8189 159.723 17.9522C159.395 18.0856 159.043 18.1529 158.689 18.1503Z" fill="white"/>
<path d="M162.001 24H155.201C153.842 24.0054 152.537 23.4713 151.571 22.5152C150.605 21.559 150.059 20.2589 150.051 18.9V12.08C150.064 10.7247 150.613 9.42965 151.578 8.47781C152.543 7.52597 153.845 6.99469 155.201 7.00004H162.001C162.674 6.99741 163.342 7.1275 163.965 7.38287C164.589 7.63825 165.156 8.01392 165.634 8.48843C166.112 8.96294 166.492 9.52699 166.753 10.1484C167.013 10.7698 167.148 11.4364 167.151 12.11V18.89C167.148 19.5637 167.013 20.2303 166.753 20.8517C166.492 21.4731 166.112 22.0371 165.634 22.5117C165.156 22.9862 164.589 23.3618 163.965 23.6172C163.342 23.8726 162.674 24.0027 162.001 24ZM155.201 8.57004C154.266 8.56738 153.369 8.93537 152.705 9.59334C152.042 10.2513 151.666 11.1456 151.661 12.08V18.86C151.669 19.7928 152.045 20.6845 152.709 21.3403C153.372 21.9961 154.268 22.3627 155.201 22.36H162.001C162.934 22.3627 163.829 21.9961 164.493 21.3403C165.156 20.6845 165.533 19.7928 165.541 18.86V12.08C165.535 11.1456 165.16 10.2513 164.496 9.59334C163.833 8.93537 162.935 8.56738 162.001 8.57004H155.201Z" fill="white"/>
</g>
<defs>
<clipPath id="clip0_1578_9666">
<rect width="29.24" height="29.24" fill="white"/>
</clipPath>
<clipPath id="clip1_1578_9666">
<rect width="29.24" height="29.24" fill="white" transform="translate(48)"/>
</clipPath>
<clipPath id="clip2_1578_9666">
<rect width="29.24" height="29.24" fill="white" transform="translate(96 1)"/>
</clipPath>
<clipPath id="clip3_1578_9666">
<rect width="29.24" height="28.98" fill="white" transform="translate(144 1)"/>
</clipPath>
</defs>
</svg>
