<svg width="14" height="314" viewBox="0 0 14 314" fill="none" xmlns="http://www.w3.org/2000/svg">
<path d="M8.19925 146.319H5.46619V306.203H8.19925V146.319Z" fill="#A3D3E3"/>
<path d="M8.19925 2.83264H5.46619V151.785H8.19925V2.83264Z" fill="#A3D3E3"/>
<path d="M8.19925 2.83264H5.46619V71.1593H8.19925V2.83264Z" fill="#30AE4D"/>
<path d="M6.83273 313.036C10.6063 313.036 13.6654 309.977 13.6654 306.203C13.6654 302.43 10.6063 299.37 6.83273 299.37C3.05915 299.37 6.10352e-05 302.43 6.10352e-05 306.203C6.10352e-05 309.977 3.05915 313.036 6.83273 313.036Z" fill="#A3D3E3"/>
<path d="M6.83273 236.51C10.6063 236.51 13.6654 233.451 13.6654 229.677C13.6654 225.904 10.6063 222.845 6.83273 222.845C3.05915 222.845 6.10352e-05 225.904 6.10352e-05 229.677C6.10352e-05 233.451 3.05915 236.51 6.83273 236.51Z" fill="#A3D3E3"/>
<path d="M6.83273 155.884C10.6063 155.884 13.6654 152.825 13.6654 149.052C13.6654 145.278 10.6063 142.219 6.83273 142.219C3.05915 142.219 6.10352e-05 145.278 6.10352e-05 149.052C6.10352e-05 152.825 3.05915 155.884 6.83273 155.884Z" fill="#A3D3E3"/>
<path d="M6.83267 13.7649C10.6062 13.7649 13.6653 10.7059 13.6653 6.93228C13.6653 3.1587 10.6062 0.0996094 6.83267 0.0996094C3.05909 0.0996094 0 3.1587 0 6.93228C0 10.7059 3.05909 13.7649 6.83267 13.7649Z" fill="#A3D3E3"/>
<path d="M6.83273 77.992C10.6063 77.992 13.6654 74.9329 13.6654 71.1593C13.6654 67.3858 10.6063 64.3267 6.83273 64.3267C3.05915 64.3267 6.10352e-05 67.3858 6.10352e-05 71.1593C6.10352e-05 74.9329 3.05915 77.992 6.83273 77.992Z" fill="#A3D3E3"/>
</svg>
