<svg width="341" height="68" viewBox="0 0 341 68" fill="none" xmlns="http://www.w3.org/2000/svg">
<g filter="url(#filter0_d_1496_5729)">
<rect x="2" width="337" height="64" rx="3" fill="white"/>
<g filter="url(#filter1_d_1496_5729)">
<path d="M267.812 32.404H269.312C269.768 32.404 270.124 32.288 270.38 32.056C270.644 31.816 270.776 31.496 270.776 31.096C270.776 30.688 270.644 30.364 270.38 30.124C270.124 29.884 269.768 29.764 269.312 29.764H267.812V32.404ZM269.528 33.676H267.812V37H266.372V28.492H269.528C270.336 28.492 270.988 28.736 271.484 29.224C271.988 29.712 272.24 30.332 272.24 31.084C272.24 31.844 271.988 32.468 271.484 32.956C270.988 33.436 270.336 33.676 269.528 33.676ZM276.738 31.12V32.536C276.578 32.512 276.426 32.5 276.282 32.5C275.234 32.5 274.71 33.072 274.71 34.216V37H273.318V31.156H274.674V32.092C274.81 31.78 275.03 31.536 275.334 31.36C275.638 31.176 275.982 31.084 276.366 31.084C276.494 31.084 276.618 31.096 276.738 31.12ZM279.245 35.44C279.565 35.768 279.953 35.932 280.409 35.932C280.865 35.932 281.249 35.768 281.561 35.44C281.881 35.112 282.041 34.656 282.041 34.072C282.041 33.496 281.881 33.048 281.561 32.728C281.249 32.4 280.865 32.236 280.409 32.236C279.953 32.236 279.565 32.4 279.245 32.728C278.933 33.048 278.777 33.496 278.777 34.072C278.777 34.648 278.933 35.104 279.245 35.44ZM280.409 30.976C281.289 30.976 282.013 31.268 282.581 31.852C283.157 32.436 283.445 33.176 283.445 34.072C283.445 34.968 283.157 35.712 282.581 36.304C282.013 36.888 281.289 37.18 280.409 37.18C279.537 37.18 278.813 36.888 278.237 36.304C277.669 35.712 277.385 34.968 277.385 34.072C277.385 33.176 277.669 32.436 278.237 31.852C278.813 31.268 279.537 30.976 280.409 30.976ZM287.335 32.26C286.887 32.26 286.507 32.424 286.195 32.752C285.883 33.072 285.727 33.512 285.727 34.072C285.727 34.64 285.883 35.088 286.195 35.416C286.515 35.744 286.903 35.908 287.359 35.908C287.767 35.908 288.091 35.8 288.331 35.584C288.579 35.36 288.743 35.108 288.823 34.828L290.047 35.272C289.887 35.792 289.575 36.24 289.111 36.616C288.655 36.992 288.071 37.18 287.359 37.18C286.503 37.18 285.783 36.884 285.199 36.292C284.623 35.7 284.335 34.96 284.335 34.072C284.335 33.176 284.619 32.436 285.187 31.852C285.763 31.268 286.475 30.976 287.323 30.976C288.051 30.976 288.643 31.164 289.099 31.54C289.563 31.916 289.863 32.368 289.999 32.896L288.751 33.352C288.671 33.048 288.515 32.792 288.283 32.584C288.059 32.368 287.743 32.26 287.335 32.26ZM292.196 33.436H295.064C295.048 33.068 294.916 32.76 294.668 32.512C294.428 32.264 294.08 32.14 293.624 32.14C293.208 32.14 292.872 32.272 292.616 32.536C292.36 32.792 292.22 33.092 292.196 33.436ZM295.22 34.96L296.396 35.332C296.228 35.868 295.912 36.312 295.448 36.664C294.992 37.008 294.428 37.18 293.756 37.18C292.924 37.18 292.216 36.896 291.632 36.328C291.056 35.76 290.768 35 290.768 34.048C290.768 33.152 291.048 32.416 291.608 31.84C292.176 31.264 292.844 30.976 293.612 30.976C294.508 30.976 295.208 31.252 295.712 31.804C296.216 32.348 296.468 33.084 296.468 34.012C296.468 34.26 296.456 34.408 296.432 34.456H292.16C292.176 34.896 292.336 35.26 292.64 35.548C292.952 35.836 293.324 35.98 293.756 35.98C294.508 35.98 294.996 35.64 295.22 34.96ZM297.282 35.416L298.494 35.08C298.518 35.36 298.634 35.596 298.842 35.788C299.05 35.98 299.33 36.076 299.682 36.076C299.954 36.076 300.166 36.012 300.318 35.884C300.478 35.756 300.558 35.596 300.558 35.404C300.558 35.068 300.33 34.852 299.874 34.756L299.01 34.564C298.506 34.452 298.118 34.244 297.846 33.94C297.574 33.636 297.438 33.276 297.438 32.86C297.438 32.348 297.646 31.908 298.062 31.54C298.478 31.164 298.986 30.976 299.586 30.976C299.97 30.976 300.31 31.032 300.606 31.144C300.902 31.256 301.13 31.404 301.29 31.588C301.458 31.764 301.586 31.936 301.674 32.104C301.762 32.272 301.818 32.44 301.842 32.608L300.666 32.944C300.634 32.72 300.53 32.52 300.354 32.344C300.186 32.16 299.93 32.068 299.586 32.068C299.346 32.068 299.146 32.136 298.986 32.272C298.826 32.4 298.746 32.556 298.746 32.74C298.746 33.068 298.942 33.272 299.334 33.352L300.222 33.532C300.766 33.652 301.182 33.868 301.47 34.18C301.758 34.492 301.902 34.868 301.902 35.308C301.902 35.796 301.706 36.232 301.314 36.616C300.93 36.992 300.39 37.18 299.694 37.18C299.294 37.18 298.934 37.12 298.614 37C298.302 36.88 298.054 36.728 297.87 36.544C297.694 36.352 297.554 36.164 297.45 35.98C297.354 35.788 297.298 35.6 297.282 35.416ZM302.767 35.416L303.979 35.08C304.003 35.36 304.119 35.596 304.327 35.788C304.535 35.98 304.815 36.076 305.167 36.076C305.439 36.076 305.651 36.012 305.803 35.884C305.963 35.756 306.043 35.596 306.043 35.404C306.043 35.068 305.815 34.852 305.359 34.756L304.495 34.564C303.991 34.452 303.603 34.244 303.331 33.94C303.059 33.636 302.923 33.276 302.923 32.86C302.923 32.348 303.131 31.908 303.547 31.54C303.963 31.164 304.471 30.976 305.071 30.976C305.455 30.976 305.795 31.032 306.091 31.144C306.387 31.256 306.615 31.404 306.775 31.588C306.943 31.764 307.071 31.936 307.159 32.104C307.247 32.272 307.303 32.44 307.327 32.608L306.151 32.944C306.119 32.72 306.015 32.52 305.839 32.344C305.671 32.16 305.415 32.068 305.071 32.068C304.831 32.068 304.631 32.136 304.471 32.272C304.311 32.4 304.231 32.556 304.231 32.74C304.231 33.068 304.427 33.272 304.819 33.352L305.707 33.532C306.251 33.652 306.667 33.868 306.955 34.18C307.243 34.492 307.387 34.868 307.387 35.308C307.387 35.796 307.191 36.232 306.799 36.616C306.415 36.992 305.875 37.18 305.179 37.18C304.779 37.18 304.419 37.12 304.099 37C303.787 36.88 303.539 36.728 303.355 36.544C303.179 36.352 303.039 36.164 302.935 35.98C302.839 35.788 302.783 35.6 302.767 35.416ZM310.147 37H308.767V31.156H310.147V37ZM308.815 29.74C308.639 29.564 308.551 29.352 308.551 29.104C308.551 28.856 308.639 28.644 308.815 28.468C308.991 28.284 309.203 28.192 309.451 28.192C309.707 28.192 309.923 28.28 310.099 28.456C310.275 28.632 310.363 28.848 310.363 29.104C310.363 29.352 310.275 29.564 310.099 29.74C309.923 29.916 309.707 30.004 309.451 30.004C309.203 30.004 308.991 29.916 308.815 29.74ZM313.335 33.628V37H311.943V31.156H313.299V31.936C313.483 31.616 313.727 31.38 314.031 31.228C314.343 31.068 314.675 30.988 315.027 30.988C315.715 30.988 316.239 31.204 316.599 31.636C316.959 32.068 317.139 32.624 317.139 33.304V37H315.747V33.544C315.747 33.152 315.651 32.84 315.459 32.608C315.267 32.368 314.963 32.248 314.547 32.248C314.163 32.248 313.863 32.38 313.647 32.644C313.439 32.9 313.335 33.228 313.335 33.628ZM318.414 37.324L319.698 36.988C319.746 37.356 319.902 37.656 320.166 37.888C320.438 38.128 320.77 38.248 321.162 38.248C322.266 38.248 322.818 37.664 322.818 36.496V35.884C322.682 36.132 322.466 36.336 322.17 36.496C321.874 36.656 321.526 36.736 321.126 36.736C320.342 36.736 319.694 36.468 319.182 35.932C318.678 35.396 318.426 34.716 318.426 33.892C318.426 33.1 318.678 32.428 319.182 31.876C319.686 31.324 320.334 31.048 321.126 31.048C321.982 31.048 322.558 31.332 322.854 31.9V31.156H324.198V36.448C324.198 37.312 323.954 38.028 323.466 38.596C322.978 39.172 322.222 39.46 321.198 39.46C320.446 39.46 319.814 39.256 319.302 38.848C318.79 38.44 318.494 37.932 318.414 37.324ZM321.354 35.548C321.802 35.548 322.162 35.4 322.434 35.104C322.714 34.8 322.854 34.396 322.854 33.892C322.854 33.396 322.714 33 322.434 32.704C322.154 32.4 321.794 32.248 321.354 32.248C320.906 32.248 320.538 32.4 320.25 32.704C319.97 33 319.83 33.396 319.83 33.892C319.83 34.396 319.97 34.8 320.25 35.104C320.53 35.4 320.898 35.548 321.354 35.548Z" fill="#FF9900"/>
</g>
<path d="M182.248 37.404H181.144V36.144C180.368 36.048 179.76 35.764 179.32 35.292C178.88 34.82 178.628 34.296 178.564 33.72L179.908 33.348C179.94 33.724 180.06 34.056 180.268 34.344C180.476 34.624 180.768 34.808 181.144 34.896V32.688L180.928 32.64C180.28 32.496 179.772 32.236 179.404 31.86C179.044 31.484 178.864 31.008 178.864 30.432C178.864 29.84 179.076 29.324 179.5 28.884C179.932 28.436 180.48 28.168 181.144 28.08V26.808H182.248V28.092C182.896 28.196 183.396 28.44 183.748 28.824C184.108 29.2 184.336 29.624 184.432 30.096L183.136 30.504C183.04 29.936 182.744 29.556 182.248 29.364V31.512L182.356 31.536C183.052 31.688 183.584 31.968 183.952 32.376C184.328 32.784 184.516 33.264 184.516 33.816C184.516 34.384 184.316 34.888 183.916 35.328C183.516 35.768 182.96 36.036 182.248 36.132V37.404ZM180.268 30.348C180.268 30.572 180.34 30.772 180.484 30.948C180.636 31.116 180.856 31.228 181.144 31.284V29.316C180.864 29.388 180.648 29.52 180.496 29.712C180.344 29.896 180.268 30.108 180.268 30.348ZM183.124 33.888C183.124 33.408 182.832 33.088 182.248 32.928V34.896C182.536 34.84 182.752 34.72 182.896 34.536C183.048 34.344 183.124 34.128 183.124 33.888ZM188.738 36H187.322V30.672H185.438V29.688C185.982 29.68 186.438 29.54 186.806 29.268C187.174 28.988 187.402 28.64 187.49 28.224H188.738V36ZM193.249 36H191.833V30.672H189.949V29.688C190.493 29.68 190.949 29.54 191.317 29.268C191.685 28.988 191.913 28.64 192.001 28.224H193.249V36ZM194.521 34.296V32.736L197.833 28.224H199.681V33.024H200.989V34.296H199.681V36H198.265V34.296H194.521ZM198.265 33.024V29.676L195.817 33.024H198.265ZM202.248 35.796C202.064 35.604 201.972 35.372 201.972 35.1C201.972 34.828 202.064 34.596 202.248 34.404C202.44 34.212 202.672 34.116 202.944 34.116C203.216 34.116 203.448 34.212 203.64 34.404C203.832 34.596 203.928 34.828 203.928 35.1C203.928 35.372 203.832 35.604 203.64 35.796C203.448 35.98 203.216 36.072 202.944 36.072C202.672 36.072 202.44 35.98 202.248 35.796ZM206.615 31.14L205.223 31.044C205.199 30.828 205.187 30.68 205.187 30.6C205.187 29.896 205.435 29.296 205.931 28.8C206.435 28.296 207.111 28.044 207.959 28.044C208.791 28.044 209.455 28.28 209.951 28.752C210.447 29.224 210.695 29.804 210.695 30.492C210.695 31.484 210.195 32.288 209.195 32.904L207.683 33.84C207.243 34.104 206.979 34.4 206.891 34.728H210.743V36H205.115C205.131 35.304 205.279 34.696 205.559 34.176C205.839 33.656 206.307 33.192 206.963 32.784L208.247 31.98C208.911 31.564 209.243 31.076 209.243 30.516C209.243 30.172 209.127 29.884 208.895 29.652C208.671 29.42 208.351 29.304 207.935 29.304C207.495 29.304 207.159 29.44 206.927 29.712C206.695 29.976 206.579 30.32 206.579 30.744L206.615 31.14ZM211.408 34.296V32.736L214.72 28.224H216.568V33.024H217.876V34.296H216.568V36H215.152V34.296H211.408ZM215.152 33.024V29.676L212.704 33.024H215.152Z" fill="black"/>
<path d="M39.24 33.468C39.24 35.1 40.224 36.18 41.892 36.18C43.476 36.18 44.448 34.944 44.448 33.456V27.492H43.272V33.54C43.272 34.524 42.744 35.088 41.88 35.088C41.028 35.088 40.416 34.584 40.416 33.456V32.652L39.24 32.916V33.468ZM48.7836 35.172C47.8236 35.172 46.9836 34.452 46.9836 33.108C46.9836 31.776 47.8236 31.056 48.7836 31.056C49.7436 31.056 50.5836 31.776 50.5836 33.108C50.5836 34.452 49.7436 35.172 48.7836 35.172ZM48.7836 30.048C47.0556 30.048 45.8316 31.356 45.8316 33.108C45.8316 34.872 47.0556 36.18 48.7836 36.18C50.5116 36.18 51.7356 34.872 51.7356 33.108C51.7356 31.356 50.5116 30.048 48.7836 30.048ZM54.3068 32.604C54.3308 31.752 54.7868 31.08 55.6508 31.08C56.6588 31.08 56.9948 31.728 56.9948 32.532V36H58.1228V32.34C58.1228 31.056 57.4388 30.06 56.0588 30.06C55.3988 30.06 54.7268 30.288 54.3068 30.9V27.312H53.1788V36H54.3068V32.604ZM61.045 32.664C61.045 31.788 61.501 31.08 62.389 31.08C63.397 31.08 63.733 31.728 63.733 32.532V36H64.861V32.34C64.861 31.056 64.177 30.06 62.797 30.06C62.125 30.06 61.441 30.336 61.021 31.056V30.228H59.917V36H61.045V32.664ZM68.9353 33.468C68.9353 35.1 69.9193 36.18 71.5873 36.18C73.1713 36.18 74.1433 34.944 74.1433 33.456V27.492H72.9673V33.54C72.9673 34.524 72.4393 35.088 71.5753 35.088C70.7233 35.088 70.1113 34.584 70.1113 33.456V32.652L68.9353 32.916V33.468ZM75.7055 34.452C75.7055 35.364 76.4615 36.18 77.6375 36.18C78.6695 36.18 79.2455 35.628 79.4975 35.22C79.4975 35.64 79.5335 35.856 79.5575 36H80.6615C80.6375 35.856 80.5895 35.556 80.5895 35.052V32.16C80.5895 31.032 79.9175 30.048 78.1895 30.048C76.9415 30.048 75.9455 30.816 75.8255 31.92L76.9055 32.172C76.9775 31.5 77.4215 31.008 78.2135 31.008C79.0895 31.008 79.4615 31.476 79.4615 32.04C79.4615 32.244 79.3655 32.424 79.0175 32.472L77.4575 32.7C76.4615 32.844 75.7055 33.42 75.7055 34.452ZM77.7935 35.232C77.2175 35.232 76.8575 34.824 76.8575 34.392C76.8575 33.876 77.2175 33.6 77.6975 33.528L79.4615 33.264V33.528C79.4615 34.788 78.7175 35.232 77.7935 35.232ZM83.4627 36V32.52C83.4627 31.656 84.0027 31.056 84.8067 31.056C85.6707 31.056 86.0307 31.632 86.0307 32.376V36H87.1587V32.508C87.1587 31.68 87.6987 31.056 88.4907 31.056C89.3427 31.056 89.7147 31.62 89.7147 32.376V36H90.8307V32.256C90.8307 30.744 89.8467 30.06 88.8387 30.06C88.1067 30.06 87.3627 30.324 86.9067 31.152C86.5947 30.408 85.8987 30.06 85.1787 30.06C84.5067 30.06 83.7867 30.36 83.4267 30.996V30.228H82.3467V36H83.4627ZM93.3678 32.52C93.4158 31.776 93.9918 31.044 94.9398 31.044C95.9598 31.044 96.4998 31.692 96.5238 32.52H93.3678ZM96.6918 34.02C96.4758 34.668 96.0078 35.184 95.0718 35.184C94.0998 35.184 93.3558 34.464 93.3318 33.432H97.6758C97.6878 33.36 97.6998 33.216 97.6998 33.072C97.6998 31.272 96.7038 30.048 94.9278 30.048C93.4758 30.048 92.1678 31.284 92.1678 33.096C92.1678 35.052 93.5238 36.18 95.0718 36.18C96.4158 36.18 97.3398 35.376 97.6638 34.356L96.6918 34.02ZM98.5997 34.5C98.6957 35.16 99.3677 36.18 100.952 36.18C102.38 36.18 103.064 35.208 103.064 34.392C103.064 33.54 102.512 32.904 101.468 32.676L100.532 32.472C100.088 32.376 99.8717 32.124 99.8717 31.776C99.8717 31.38 100.256 31.008 100.832 31.008C101.744 31.008 101.984 31.668 102.032 31.968L103.028 31.596C102.908 31.08 102.416 30.048 100.832 30.048C99.7037 30.048 98.7797 30.888 98.7797 31.872C98.7797 32.688 99.3197 33.3 100.22 33.492L101.204 33.708C101.684 33.816 101.948 34.092 101.948 34.452C101.948 34.86 101.6 35.22 100.964 35.22C100.148 35.22 99.6917 34.74 99.6197 34.14L98.5997 34.5ZM108.345 31.74C108.345 29.52 109.833 28.392 111.417 28.392C113.001 28.392 114.489 29.52 114.489 31.74C114.489 33.96 113.001 35.1 111.417 35.1C109.833 35.1 108.345 33.96 108.345 31.74ZM107.145 31.74C107.145 34.584 109.281 36.18 111.417 36.18C113.553 36.18 115.689 34.584 115.689 31.74C115.689 28.896 113.553 27.312 111.417 27.312C109.281 27.312 107.145 28.896 107.145 31.74ZM122.359 30.228H120.799L118.303 32.784V27.312H117.187V36H118.303V34.26L119.107 33.456L120.991 36H122.407L119.899 32.664L122.359 30.228ZM122.955 34.452C122.955 35.364 123.711 36.18 124.887 36.18C125.919 36.18 126.495 35.628 126.747 35.22C126.747 35.64 126.783 35.856 126.807 36H127.911C127.887 35.856 127.839 35.556 127.839 35.052V32.16C127.839 31.032 127.167 30.048 125.439 30.048C124.191 30.048 123.195 30.816 123.075 31.92L124.155 32.172C124.227 31.5 124.671 31.008 125.463 31.008C126.339 31.008 126.711 31.476 126.711 32.04C126.711 32.244 126.615 32.424 126.267 32.472L124.707 32.7C123.711 32.844 122.955 33.42 122.955 34.452ZM125.043 35.232C124.467 35.232 124.107 34.824 124.107 34.392C124.107 33.876 124.467 33.6 124.947 33.528L126.711 33.264V33.528C126.711 34.788 125.967 35.232 125.043 35.232ZM132.501 31.248V30.228H131.109V29.316C131.109 28.524 131.625 28.332 132.021 28.332C132.309 28.332 132.453 28.38 132.513 28.404V27.396C132.465 27.36 132.225 27.276 131.841 27.276C130.797 27.276 129.945 27.972 129.945 29.256V30.228H128.877V31.248H129.945V36H131.109V31.248H132.501ZM135.948 35.172C134.988 35.172 134.148 34.452 134.148 33.108C134.148 31.776 134.988 31.056 135.948 31.056C136.908 31.056 137.748 31.776 137.748 33.108C137.748 34.452 136.908 35.172 135.948 35.172ZM135.948 30.048C134.22 30.048 132.996 31.356 132.996 33.108C132.996 34.872 134.22 36.18 135.948 36.18C137.676 36.18 138.9 34.872 138.9 33.108C138.9 31.356 137.676 30.048 135.948 30.048ZM143.547 30.168C143.487 30.156 143.331 30.132 143.175 30.132C142.587 30.132 141.867 30.348 141.447 31.236V30.228H140.343V36H141.471V33.108C141.471 31.836 142.107 31.332 143.055 31.332C143.211 31.332 143.379 31.344 143.547 31.368V30.168Z" fill="black"/>
<circle cx="25" cy="31" r="9" fill="#DBE7FF"/>
<path d="M28.75 27.7321L21.25 35.2321" stroke="#1565D8" stroke-width="0.5" stroke-miterlimit="10" stroke-linecap="round" stroke-linejoin="round"/>
<path d="M28.75 33.2339L28.75 27.7321L23.2482 27.7321" stroke="#1565D8" stroke-width="0.5" stroke-miterlimit="10" stroke-linecap="round" stroke-linejoin="round"/>
</g>
<defs>
<filter id="filter0_d_1496_5729" x="0" y="0" width="341" height="68" filterUnits="userSpaceOnUse" color-interpolation-filters="sRGB">
<feFlood flood-opacity="0" result="BackgroundImageFix"/>
<feColorMatrix in="SourceAlpha" type="matrix" values="0 0 0 0 0 0 0 0 0 0 0 0 0 0 0 0 0 0 127 0" result="hardAlpha"/>
<feOffset dy="2"/>
<feGaussianBlur stdDeviation="1"/>
<feComposite in2="hardAlpha" operator="out"/>
<feColorMatrix type="matrix" values="0 0 0 0 0 0 0 0 0 0 0 0 0 0 0 0 0 0 0.15 0"/>
<feBlend mode="normal" in2="BackgroundImageFix" result="effect1_dropShadow_1496_5729"/>
<feBlend mode="normal" in="SourceGraphic" in2="effect1_dropShadow_1496_5729" result="shape"/>
</filter>
<filter id="filter1_d_1496_5729" x="261.372" y="23.192" width="67.826" height="21.268" filterUnits="userSpaceOnUse" color-interpolation-filters="sRGB">
<feFlood flood-opacity="0" result="BackgroundImageFix"/>
<feColorMatrix in="SourceAlpha" type="matrix" values="0 0 0 0 0 0 0 0 0 0 0 0 0 0 0 0 0 0 127 0" result="hardAlpha"/>
<feOffset/>
<feGaussianBlur stdDeviation="2.5"/>
<feComposite in2="hardAlpha" operator="out"/>
<feColorMatrix type="matrix" values="0 0 0 0 1 0 0 0 0 0.6 0 0 0 0 0 0 0 0 0.5 0"/>
<feBlend mode="normal" in2="BackgroundImageFix" result="effect1_dropShadow_1496_5729"/>
<feBlend mode="normal" in="SourceGraphic" in2="effect1_dropShadow_1496_5729" result="shape"/>
</filter>
</defs>
</svg>
