<svg width="22" height="21" viewBox="0 0 22 21" fill="none" xmlns="http://www.w3.org/2000/svg">
<path d="M18.6372 17.2871C9.96958 21.4121 4.59035 17.9608 1.14693 15.8646C0.933858 15.7324 0.571701 15.8954 0.885921 16.2564C2.0331 17.6473 5.79263 21 10.6999 21C15.6106 21 18.532 18.3205 18.8974 17.8531C19.2604 17.3896 19.004 17.134 18.6371 17.2871H18.6372ZM21.0715 15.9427C20.8387 15.6396 19.6561 15.5831 18.9119 15.6745C18.1665 15.7633 17.0477 16.2189 17.1449 16.4924C17.1948 16.5949 17.2967 16.5489 17.8088 16.5029C18.3223 16.4517 19.7607 16.2701 20.0604 16.6619C20.3615 17.0565 19.6016 18.9359 19.4628 19.239C19.3287 19.5421 19.5141 19.6202 19.7659 19.4183C20.0144 19.2165 20.4641 18.6939 20.7658 17.9544C21.0656 17.2108 21.2483 16.1735 21.0714 15.9427H21.0715Z" fill="#FF9900"/>
<path fill-rule="evenodd" clip-rule="evenodd" d="M12.809 8.86998C12.809 9.95233 12.8364 10.855 12.2893 11.8162C11.8477 12.5977 11.1483 13.0783 10.3668 13.0783C9.30004 13.0783 8.67876 12.2655 8.67876 11.066C8.67876 8.698 10.8005 8.26822 12.809 8.26822V8.86998ZM15.6106 15.6417C15.427 15.8057 15.1613 15.8175 14.9542 15.708C14.032 14.9422 13.8679 14.5867 13.36 13.8559C11.836 15.4111 10.7576 15.8761 8.7804 15.8761C6.44372 15.8761 4.6228 14.4342 4.6228 11.5466C4.6228 9.29201 5.84592 7.75632 7.58463 7.00615C9.09297 6.34179 11.1991 6.22459 12.809 6.041V5.68148C12.809 5.02108 12.8598 4.2396 12.473 3.66915C12.133 3.15725 11.4843 2.94623 10.9138 2.94623C9.85493 2.94623 8.9093 3.48934 8.67876 4.61469C8.63181 4.86483 8.44822 5.11102 8.19817 5.12272L5.50196 4.83362C5.27538 4.78272 5.02532 4.59912 5.08783 4.2513C5.70911 0.98472 8.65916 -3.05176e-05 11.3006 -3.05176e-05C12.6526 -3.05176e-05 14.4187 0.359491 15.4855 1.38328C16.8375 2.64535 16.7086 4.32946 16.7086 6.16207V10.4916C16.7086 11.7928 17.2478 12.3632 17.7557 13.0666C17.9355 13.3167 17.9746 13.6176 17.7479 13.8051C17.1813 14.2779 16.1732 15.1571 15.6184 15.6495L15.6106 15.6417" fill="black"/>
</svg>
