<svg width="31" height="31" viewBox="0 0 31 31" fill="none" xmlns="http://www.w3.org/2000/svg">
<path fill-rule="evenodd" clip-rule="evenodd" d="M0 0H31V31H0V0Z" fill="#D94F00"/>
<path fill-rule="evenodd" clip-rule="evenodd" d="M17.6374 6.01129H25.5843V13.8794H17.6374V6.01129ZM8.03008 17.8593V18.629H9.39974V22.7012H10.3441V18.5979H11.6194V17.8282L8.03008 17.8598V17.8593ZM7.32471 18.8136V18.0438C6.56705 17.7054 5.69574 17.6031 4.80363 18.0438C3.3406 18.6902 3.28831 21.8909 4.75187 22.5167C5.59223 22.9374 7.34499 22.7423 7.5216 22.3728V19.839H5.77898V20.5059H6.54624V21.8397C4.02516 23.0502 3.55829 17.2335 7.32471 18.8136ZM13.1555 20.4648H14.0577C14.8047 20.4959 15.0021 21.8909 14.0268 21.8803H13.1555V20.4648ZM13.1555 18.5057H14.0577C14.8047 18.639 14.5353 19.7367 14.0268 19.7673H13.1555V18.5057ZM12.2217 17.757V22.6601H14.7012C15.9668 22.2088 16.0191 20.2702 14.7012 20.0646C15.9151 19.9318 15.9775 17.7259 13.8817 17.7259L12.2217 17.757ZM16.5996 19.1315V19.8595C17.2634 19.675 18.7056 19.162 18.5706 20.2497C17.305 20.1674 16.4438 20.3931 16.2987 21.1723C16.0602 22.8552 17.8861 23.0191 18.6538 22.1882V22.5884H19.5252V19.6339C19.3075 18.6796 17.8658 18.5568 16.5996 19.1315ZM17.3359 21.0294C17.5334 20.7727 18.1662 20.7827 18.5914 20.9061V21.5524C17.8967 22.2905 16.7762 21.9526 17.3365 21.0289L17.3359 21.0294ZM21.3307 20.0035C21.5591 19.7573 22.773 19.2954 22.9597 20.0035V22.6089H23.9345V19.8495C23.727 18.7002 22.6166 18.4951 21.2683 19.2749V18.8441H20.3452V22.6295H21.3201L21.3307 20.0035ZM26.995 18.803L25.7193 20.4954L27.0681 22.5778L28.2404 22.5473L26.7571 20.547L28.0952 18.8336L26.9956 18.803H26.995ZM24.6612 17.5614H25.6259V22.5778H24.6607V17.562L24.6612 17.5614Z" fill="white"/>
<path fill-rule="evenodd" clip-rule="evenodd" d="M17.6375 6.01129H25.5843V13.8794H17.6375V6.01129Z" fill="white"/>
</svg>
