<svg width="43" height="16" viewBox="0 0 43 16" fill="none" xmlns="http://www.w3.org/2000/svg">
<path d="M34.28 7.48792C34.4394 7.25896 40.646 0.254403 40.9144 0H42.7903C42.8295 0.0961077 42.7652 0.135681 42.726 0.178082C42.3821 0.573819 42.0327 0.969557 41.686 1.36529L36.5614 7.20242L36.3601 7.44269C36.3874 7.55817 36.45 7.66201 36.539 7.7395L38.3199 10.0009L42.849 15.7221C42.9153 15.7875 42.9668 15.8665 43 15.9539C42.3414 16.0052 41.6803 16.0137 41.0206 15.9793C40.92 15.9018 40.8347 15.8059 40.769 15.6966L37.319 11.3407L34.4757 7.7508C34.4114 7.66883 34.3499 7.58403 34.28 7.48792Z" fill="#182CD1"/>
<path d="M9.19366 0.0197869C9.29151 0.0197869 9.3642 0 9.43689 0H10.8348C10.8515 0 10.8711 0.0169602 10.8879 0.028267C10.9047 0.0395737 10.9158 0.0621873 10.9158 0.0819742C10.9158 5.31136 10.9158 10.5417 10.9158 15.773C10.9158 15.8238 10.9158 15.8747 10.8991 15.9397C10.7552 15.9725 10.607 15.9821 10.4601 15.968C10.3148 15.968 10.1666 15.968 10.0212 15.968C9.87582 15.968 9.74163 15.968 9.61302 15.968C9.46918 15.9817 9.32414 15.974 9.18247 15.9454C9.16641 15.9153 9.15509 15.8829 9.14893 15.8493C9.14893 10.6199 9.14893 5.38863 9.14893 0.155468C9.16103 0.109345 9.17597 0.0640297 9.19366 0.0197869Z" fill="#182CD1"/>
<path d="M26.533 0C27.0921 0 27.6513 0 28.2104 0C28.2237 0.06532 28.233 0.131399 28.2384 0.197869C28.2426 0.272245 28.2426 0.346802 28.2384 0.421178V15.5468C28.2384 15.674 28.2384 15.7984 28.2384 15.9341C28.1971 15.9515 28.1539 15.9638 28.1098 15.9708H26.614C26.5805 15.9664 26.5477 15.9578 26.5162 15.9454C26.5017 15.8965 26.4914 15.8463 26.4854 15.7956C26.4854 15.691 26.4854 15.5836 26.4854 15.479C26.4854 10.4757 26.4854 5.47343 26.4854 0.472058C26.4657 0.313097 26.482 0.151679 26.533 0V0Z" fill="#182CD1"/>
<path d="M16.4068 15.9426C15.8385 15.9898 15.2676 15.9955 14.6986 15.9595C14.68 15.9052 14.666 15.8494 14.6566 15.7928C14.6566 15.6966 14.6566 15.6005 14.6566 15.5101C14.6566 10.4955 14.6566 5.48285 14.6566 0.472058C14.6566 0.33355 14.6566 0.189389 14.6566 0.0508805C14.7084 0.027268 14.7629 0.0101797 14.8188 0L16.2614 0C16.3041 0.00380784 16.3463 0.0123389 16.3872 0.0254403C16.398 0.0681297 16.4055 0.111604 16.4096 0.155468L16.4068 15.9426Z" fill="#182CD1"/>
<path d="M33.4637 15.9397C32.8955 15.9893 32.3245 15.9959 31.7554 15.9595C31.7378 15.9042 31.7247 15.8474 31.7163 15.7899C31.7163 15.6938 31.7163 15.6005 31.7163 15.5072V0.469212C31.7163 0.330704 31.7163 0.186543 31.7163 0.0452081C31.7771 0.024508 31.8399 0.0102972 31.9036 0.00280762H33.2847C33.3316 0.00541029 33.3783 0.0110755 33.4245 0.0197678C33.4396 0.0775207 33.4517 0.136016 33.4609 0.195023C33.4609 0.279824 33.4609 0.364625 33.4609 0.449426V15.9397H33.4637Z" fill="#182CD1"/>
<path d="M0.0571952 0H1.73465C1.75079 0.0411182 1.76296 0.0837165 1.771 0.127201C1.771 4.29375 1.771 8.46124 1.771 12.6297C1.76555 12.6631 1.75518 12.6955 1.74024 12.7258C1.70374 12.7417 1.66512 12.7522 1.62562 12.7569H0.121498C0.0934253 12.7495 0.0669043 12.7371 0.0432164 12.7201C0.0301039 12.6913 0.0207078 12.6609 0.0152588 12.6297V0.130028C0.0239816 0.0851292 0.0380634 0.0414671 0.0571952 0V0Z" fill="#182CD1"/>
<path d="M17.785 4.55944C17.7515 3.7934 17.7655 3.03302 17.7627 2.27264C17.7653 2.23363 17.7709 2.19489 17.7795 2.15675C17.8885 2.13979 17.9136 2.22459 17.9556 2.27547C18.4169 2.84081 18.8754 3.42593 19.3339 3.99975L24.8499 10.9025L25.1295 11.2474V13.7236C25.0372 13.7632 25.0149 13.6812 24.9841 13.6388C24.5815 13.1385 24.1845 12.6353 23.7847 12.1322L17.9807 4.80536L17.785 4.55944Z" fill="#182CD1"/>
<path d="M7.05214 15.9511C6.753 15.9935 0.305978 15.9907 0.0403809 15.9511C0.0278608 15.9028 0.0185211 15.8537 0.0124233 15.8041C-0.0122787 15.2819 -0.000132975 14.7586 0.0487681 14.2381C0.0990918 14.2381 0.157803 14.2155 0.216514 14.2098C0.275225 14.2042 0.342323 14.2098 0.403829 14.2098H6.66912C6.7987 14.1978 6.92937 14.2093 7.05494 14.2438C7.07009 14.2917 7.08131 14.3409 7.08849 14.3908C7.11716 14.911 7.10501 15.4328 7.05214 15.9511Z" fill="#182CD1"/>
</svg>
