<svg width="51" height="20" viewBox="0 0 51 20" fill="none" xmlns="http://www.w3.org/2000/svg">
<path d="M40.6577 9.35991C40.8467 9.0737 48.208 0.318011 48.5263 7.62939e-06H50.7513C50.7977 0.120142 50.7215 0.169609 50.6751 0.22261C50.2672 0.717282 49.8527 1.21195 49.4415 1.70663L43.3635 9.00304L43.1247 9.30337C43.1572 9.44772 43.2314 9.57752 43.337 9.67438L45.4492 12.5011L50.8209 19.6526C50.8995 19.7343 50.9606 19.8332 51 19.9424C50.2189 20.0065 49.4347 20.0171 48.6523 19.9741C48.5331 19.8772 48.4319 19.7574 48.3539 19.6208L44.2621 14.1759L40.8898 9.68851C40.8136 9.58604 40.7406 9.48004 40.6577 9.35991Z" fill="white"/>
<path d="M10.9041 0.0247412C11.0202 0.0247412 11.1064 7.62939e-06 11.1926 7.62939e-06H12.8506C12.8705 7.62939e-06 12.8937 0.0212079 12.9136 0.0353413C12.9335 0.0494748 12.9467 0.0777418 12.9467 0.102475C12.9467 6.63921 12.9467 13.1771 12.9467 19.7162C12.9467 19.7798 12.9467 19.8434 12.9268 19.9247C12.7561 19.9657 12.5804 19.9776 12.4062 19.96C12.2338 19.96 12.0581 19.96 11.8856 19.96C11.7132 19.96 11.554 19.96 11.4015 19.96C11.2309 19.9771 11.0589 19.9675 10.8909 19.9317C10.8718 19.8942 10.8584 19.8536 10.8511 19.8116C10.8511 13.2749 10.8511 6.73579 10.8511 0.194343C10.8654 0.136689 10.8832 0.0800448 10.9041 0.0247412Z" fill="white"/>
<path d="M31.4694 7.62939e-06C32.1325 7.62939e-06 32.7957 7.62939e-06 33.4589 7.62939e-06C33.4747 0.0816576 33.4857 0.164256 33.492 0.247344C33.497 0.340314 33.497 0.43351 33.492 0.52648V19.4335C33.492 19.5925 33.492 19.748 33.492 19.9176C33.4431 19.9394 33.3919 19.9548 33.3395 19.9636H31.5655C31.5258 19.958 31.4868 19.9473 31.4495 19.9318C31.4322 19.8706 31.42 19.8079 31.413 19.7445C31.413 19.6137 31.413 19.4795 31.413 19.3487C31.413 13.0947 31.413 6.84179 31.413 0.590081C31.3896 0.391379 31.4088 0.189606 31.4694 7.62939e-06V7.62939e-06Z" fill="white"/>
<path d="M19.4591 19.9282C18.7851 19.9873 18.108 19.9944 17.433 19.9494C17.411 19.8815 17.3944 19.8118 17.3833 19.7409C17.3833 19.6208 17.3833 19.5007 17.3833 19.3876C17.3833 13.1194 17.3833 6.85357 17.3833 0.59008C17.3833 0.416945 17.3833 0.236743 17.3833 0.0636083C17.4447 0.0340926 17.5093 0.0127323 17.5756 7.62939e-06L19.2866 7.62939e-06C19.3373 0.00476743 19.3873 0.0154312 19.4358 0.031808C19.4486 0.0851697 19.4575 0.139513 19.4624 0.194343L19.4591 19.9282Z" fill="white"/>
<path d="M39.6894 19.9247C39.0156 19.9867 38.3383 19.995 37.6634 19.9494C37.6425 19.8802 37.6269 19.8093 37.6169 19.7374C37.6169 19.6173 37.6169 19.5007 37.6169 19.3841V0.586556C37.6169 0.41342 37.6169 0.233219 37.6169 0.0565501C37.6891 0.0306751 37.7635 0.0129115 37.8391 0.00354958H39.4772C39.5328 0.00680292 39.5882 0.0138844 39.643 0.0247498C39.6608 0.0969409 39.6752 0.17006 39.6861 0.243819C39.6861 0.34982 39.6861 0.455821 39.6861 0.561822V19.9247H39.6894Z" fill="white"/>
<path d="M0.0678049 7.62939e-06H2.05734C2.07649 0.0514054 2.09092 0.104653 2.10045 0.159009C2.10045 5.3672 2.10045 10.5766 2.10045 15.7871C2.09399 15.8289 2.08169 15.8694 2.06398 15.9072C2.02068 15.9272 1.97488 15.9403 1.92802 15.9461H0.144071C0.110775 15.9369 0.0793204 15.9213 0.0512254 15.9002C0.0356734 15.8642 0.0245291 15.8262 0.0180664 15.7871V0.162543C0.0284121 0.106419 0.0451138 0.0518415 0.0678049 7.62939e-06V7.62939e-06Z" fill="white"/>
<path d="M21.0939 5.69934C21.0541 4.7418 21.0707 3.79132 21.0674 2.84084C21.0705 2.79208 21.0771 2.74365 21.0872 2.69598C21.2166 2.67478 21.2464 2.78078 21.2961 2.84438C21.8433 3.55105 22.3871 4.28246 22.9309 4.99973L29.4732 13.6282L29.8047 14.0593V17.1545C29.6953 17.204 29.6688 17.1015 29.6323 17.0485C29.1548 16.4231 28.684 15.7942 28.2098 15.1652L21.326 6.00674L21.0939 5.69934Z" fill="white"/>
<path d="M8.36417 19.9388C8.00937 19.9918 0.362904 19.9883 0.0478936 19.9388C0.0330442 19.8784 0.0219669 19.817 0.0147346 19.7551C-0.0145631 19.1023 -0.000157714 18.4482 0.0578413 17.7976C0.117527 17.7976 0.187161 17.7693 0.256795 17.7623C0.326429 17.7552 0.406011 17.7623 0.478961 17.7623H7.90989C8.06358 17.7472 8.21855 17.7615 8.36749 17.8047C8.38545 17.8646 8.39876 17.9261 8.40728 17.9884C8.44128 18.6387 8.42687 19.2909 8.36417 19.9388Z" fill="white"/>
</svg>
