<svg width="51" height="20" viewBox="0 0 51 20" fill="none" xmlns="http://www.w3.org/2000/svg">
<path d="M40.6577 9.35994C40.8467 9.07373 48.208 0.318041 48.5263 3.8147e-05H50.7513C50.7977 0.120173 50.7215 0.16964 50.6751 0.22264C50.2672 0.717312 49.8527 1.21198 49.4415 1.70666L43.3635 9.00307L43.1247 9.3034C43.1572 9.44775 43.2314 9.57755 43.337 9.67441L45.4492 12.5011L50.8209 19.6526C50.8995 19.7344 50.9606 19.8332 51 19.9424C50.2189 20.0065 49.4347 20.0172 48.6523 19.9742C48.5331 19.8772 48.4319 19.7574 48.3539 19.6208L44.2621 14.1759L40.8898 9.68854C40.8136 9.58607 40.7406 9.48007 40.6577 9.35994Z" fill="white"/>
<path d="M10.9041 0.0247717C11.0202 0.0247717 11.1064 3.8147e-05 11.1926 3.8147e-05H12.8506C12.8705 3.8147e-05 12.8937 0.0212384 12.9136 0.0353718C12.9335 0.0495053 12.9467 0.0777723 12.9467 0.102506C12.9467 6.63924 12.9467 13.1772 12.9467 19.7162C12.9467 19.7798 12.9467 19.8434 12.9268 19.9247C12.7561 19.9657 12.5804 19.9776 12.4062 19.96C12.2338 19.96 12.0581 19.96 11.8856 19.96C11.7132 19.96 11.554 19.96 11.4015 19.96C11.2309 19.9771 11.0589 19.9676 10.8909 19.9318C10.8718 19.8942 10.8584 19.8537 10.8511 19.8116C10.8511 13.2749 10.8511 6.73582 10.8511 0.194373C10.8654 0.136719 10.8832 0.0800753 10.9041 0.0247717Z" fill="white"/>
<path d="M31.4694 3.8147e-05C32.1325 3.8147e-05 32.7957 3.8147e-05 33.4589 3.8147e-05C33.4747 0.0816881 33.4857 0.164287 33.492 0.247374C33.497 0.340344 33.497 0.43354 33.492 0.52651V19.4336C33.492 19.5926 33.492 19.748 33.492 19.9176C33.4431 19.9394 33.3919 19.9548 33.3395 19.9636H31.5655C31.5258 19.958 31.4868 19.9473 31.4495 19.9318C31.4322 19.8706 31.42 19.8079 31.413 19.7445C31.413 19.6138 31.413 19.4795 31.413 19.3488C31.413 13.0947 31.413 6.84182 31.413 0.590111C31.3896 0.39141 31.4088 0.189637 31.4694 3.8147e-05V3.8147e-05Z" fill="white"/>
<path d="M19.4591 19.9282C18.7851 19.9873 18.108 19.9944 17.433 19.9494C17.411 19.8816 17.3944 19.8118 17.3833 19.741C17.3833 19.6208 17.3833 19.5007 17.3833 19.3876C17.3833 13.1194 17.3833 6.8536 17.3833 0.590111C17.3833 0.416976 17.3833 0.236774 17.3833 0.0636388C17.4447 0.0341231 17.5093 0.0127628 17.5756 3.8147e-05L19.2866 3.8147e-05C19.3373 0.00479795 19.3873 0.0154617 19.4358 0.0318385C19.4486 0.0852002 19.4575 0.139543 19.4624 0.194374L19.4591 19.9282Z" fill="white"/>
<path d="M39.6894 19.9247C39.0156 19.9867 38.3383 19.995 37.6634 19.9495C37.6425 19.8803 37.6269 19.8094 37.6169 19.7375C37.6169 19.6173 37.6169 19.5007 37.6169 19.3841V0.586586C37.6169 0.413451 37.6169 0.233249 37.6169 0.0565806C37.6891 0.0307056 37.7635 0.012942 37.8391 0.00358009H39.4772C39.5328 0.00683343 39.5882 0.0139149 39.643 0.0247803C39.6608 0.0969715 39.6752 0.17009 39.6861 0.243849C39.6861 0.34985 39.6861 0.455851 39.6861 0.561853V19.9247H39.6894Z" fill="white"/>
<path d="M0.0678049 3.8147e-05H2.05734C2.07649 0.0514359 2.09092 0.104684 2.10045 0.15904C2.10045 5.36723 2.10045 10.5766 2.10045 15.7871C2.09399 15.8289 2.08169 15.8694 2.06398 15.9073C2.02068 15.9272 1.97488 15.9403 1.92802 15.9461H0.144071C0.110775 15.9369 0.0793204 15.9214 0.0512254 15.9002C0.0356734 15.8642 0.0245291 15.8262 0.0180664 15.7871V0.162573C0.0284121 0.10645 0.0451138 0.051872 0.0678049 3.8147e-05V3.8147e-05Z" fill="white"/>
<path d="M21.0939 5.69937C21.0541 4.74183 21.0707 3.79135 21.0674 2.84087C21.0705 2.79211 21.0771 2.74368 21.0872 2.69601C21.2166 2.67481 21.2464 2.78081 21.2961 2.84441C21.8433 3.55108 22.3871 4.28249 22.9309 4.99976L29.4732 13.6283L29.8047 14.0593V17.1546C29.6953 17.204 29.6688 17.1016 29.6323 17.0486C29.1548 16.4232 28.684 15.7942 28.2098 15.1653L21.326 6.00678L21.0939 5.69937Z" fill="white"/>
<path d="M8.36417 19.9389C8.00937 19.9919 0.362904 19.9883 0.0478936 19.9389C0.0330442 19.8785 0.0219669 19.8171 0.0147346 19.7551C-0.0145631 19.1024 -0.000157714 18.4482 0.0578413 17.7976C0.117527 17.7976 0.187161 17.7694 0.256795 17.7623C0.326429 17.7552 0.406011 17.7623 0.478961 17.7623H7.90989C8.06358 17.7472 8.21855 17.7616 8.36749 17.8047C8.38545 17.8647 8.39876 17.9261 8.40728 17.9884C8.44128 18.6388 8.42687 19.2909 8.36417 19.9389Z" fill="white"/>
</svg>
