<svg width="67" height="25" viewBox="0 0 67 25" fill="none" xmlns="http://www.w3.org/2000/svg">
<path d="M53.4131 11.6999C53.6614 11.3421 63.3321 0.397504 63.7503 0H66.6733C66.7343 0.150168 66.6341 0.212002 66.5731 0.278253C66.0373 0.896593 65.4928 1.51493 64.9526 2.13327L56.9677 11.2538L56.6541 11.6292C56.6967 11.8096 56.7942 11.9719 56.9329 12.093L59.7078 15.6263L66.7648 24.5658C66.868 24.6679 66.9482 24.7914 67 24.9279C65.9739 25.0081 64.9437 25.0214 63.9158 24.9677C63.7592 24.8465 63.6262 24.6967 63.5238 24.526L58.1483 17.7199L53.718 12.1106C53.6178 11.9825 53.522 11.85 53.4131 11.6999Z" fill="#182CD1"/>
<path d="M14.3251 0.030917C14.4775 0.030917 14.5908 0 14.7041 0H16.8821C16.9083 0 16.9388 0.0265003 16.9649 0.0441671C16.9911 0.061834 17.0085 0.0971677 17.0085 0.128085C17.0085 8.299 17.0085 16.4714 17.0085 24.6453C17.0085 24.7248 17.0085 24.8043 16.9823 24.9058C16.7581 24.9571 16.5273 24.972 16.2984 24.95C16.0719 24.95 15.841 24.95 15.6145 24.95C15.388 24.95 15.1789 24.95 14.9785 24.95C14.7544 24.9713 14.5284 24.9594 14.3076 24.9147C14.2826 24.8677 14.265 24.817 14.2554 24.7645C14.2554 16.5936 14.2554 8.41973 14.2554 0.242919C14.2742 0.170851 14.2975 0.100046 14.3251 0.030917Z" fill="#182CD1"/>
<path d="M41.3421 0C42.2134 0 43.0846 0 43.9558 0C43.9765 0.102062 43.9911 0.205311 43.9994 0.30917C44.0059 0.425382 44.0059 0.541878 43.9994 0.65809V24.2919C43.9994 24.4907 43.9994 24.685 43.9994 24.897C43.9351 24.9242 43.8678 24.9435 43.799 24.9544H41.4684C41.4162 24.9475 41.365 24.9341 41.316 24.9147C41.2933 24.8382 41.2773 24.7599 41.2681 24.6806C41.2681 24.5172 41.2681 24.3493 41.2681 24.1859C41.2681 16.3683 41.2681 8.55223 41.2681 0.737591C41.2373 0.489214 41.2626 0.236998 41.3421 0V0Z" fill="#182CD1"/>
<path d="M25.5639 24.9103C24.6785 24.9841 23.7889 24.9929 22.9023 24.9368C22.8733 24.8519 22.8515 24.7647 22.8369 24.6762C22.8369 24.526 22.8369 24.3758 22.8369 24.2345C22.8369 16.3993 22.8369 8.56695 22.8369 0.737591C22.8369 0.521172 22.8369 0.29592 22.8369 0.0795008C22.9176 0.0426063 23.0025 0.0159058 23.0896 0L25.3374 0C25.4039 0.00594976 25.4697 0.0192795 25.5334 0.0397504C25.5502 0.106453 25.5618 0.174381 25.5682 0.242919L25.5639 24.9103Z" fill="#182CD1"/>
<path d="M52.1411 24.9058C51.2559 24.9833 50.3662 24.9937 49.4794 24.9367C49.452 24.8503 49.4316 24.7616 49.4185 24.6717C49.4185 24.5216 49.4185 24.3758 49.4185 24.2301V0.733152C49.4185 0.516733 49.4185 0.291481 49.4185 0.0706452C49.5132 0.0383014 49.611 0.016097 49.7103 0.00439453H51.8623C51.9354 0.00846121 52.0081 0.0173131 52.0801 0.0308948C52.1036 0.121134 52.1225 0.212532 52.1367 0.304731C52.1367 0.437232 52.1367 0.569734 52.1367 0.702235V24.9058H52.1411Z" fill="#182CD1"/>
<path d="M0.0890244 0H2.70273C2.72788 0.0642472 2.74684 0.130807 2.75936 0.198752C2.75936 6.70899 2.75936 13.2207 2.75936 19.7339C2.75087 19.7861 2.73472 19.8367 2.71145 19.884C2.65456 19.909 2.59439 19.9253 2.53284 19.9326H0.189217C0.145476 19.9211 0.104153 19.9017 0.0672435 19.8752C0.0468124 19.8302 0.0321719 19.7827 0.0236816 19.7339V0.203169C0.037273 0.133014 0.0592145 0.0647923 0.0890244 0V0Z" fill="#182CD1"/>
<path d="M27.7116 7.12411C27.6593 5.92718 27.6811 4.73908 27.6767 3.55099C27.6808 3.49004 27.6896 3.4295 27.7028 3.3699C27.8727 3.3434 27.9119 3.4759 27.9773 3.5554C28.696 4.43875 29.4105 5.35301 30.1249 6.2496L38.7196 17.0352L39.1552 17.5741V21.4431C39.0115 21.5049 38.9766 21.3768 38.9287 21.3106C38.3014 20.5288 37.6829 19.7427 37.0599 18.9565L28.0165 7.50836L27.7116 7.12411Z" fill="#182CD1"/>
<path d="M10.9882 24.9235C10.5221 24.9898 0.476756 24.9853 0.062919 24.9235C0.043411 24.848 0.0288585 24.7713 0.0193572 24.6938C-0.0191319 23.8779 -0.000207193 23.0602 0.0759875 22.247C0.154399 22.247 0.245879 22.2116 0.337358 22.2028C0.428838 22.194 0.533387 22.2028 0.629223 22.2028H10.3914C10.5933 22.184 10.7969 22.2019 10.9926 22.2558C11.0162 22.3308 11.0337 22.4076 11.0449 22.4855C11.0895 23.2984 11.0706 24.1136 10.9882 24.9235Z" fill="#182CD1"/>
</svg>
