<svg width="68" height="27" viewBox="0 0 68 27" fill="none" xmlns="http://www.w3.org/2000/svg">
<path d="M54.4127 12.1772C54.661 11.8048 64.332 0.41372 64.7502 0H67.6733C67.7342 0.156294 67.6341 0.220651 67.5731 0.289604C67.0372 0.933168 66.4927 1.57673 65.9525 2.2203L57.9674 11.7129L57.6538 12.1036C57.6963 12.2914 57.7939 12.4603 57.9326 12.5863L60.7075 16.2638L67.7647 25.5679C67.8679 25.6742 67.9482 25.8028 68 25.9448C66.9738 26.0283 65.9436 26.0421 64.9157 25.9862C64.759 25.8601 64.6261 25.7042 64.5236 25.5265L59.148 18.4427L54.7176 12.6047C54.6174 12.4714 54.5216 12.3335 54.4127 12.1772Z" fill="#182CD1"/>
<path d="M15.3235 0.0321782C15.476 0.0321782 15.5893 0 15.7025 0H17.8807C17.9068 0 17.9373 0.0275813 17.9635 0.0459689C17.9896 0.0643564 18.007 0.101132 18.007 0.13331C18.007 8.63755 18.007 17.1433 18.007 25.6506C18.007 25.7334 18.007 25.8161 17.9809 25.9218C17.7566 25.9752 17.5258 25.9907 17.297 25.9678C17.0704 25.9678 16.8395 25.9678 16.613 25.9678C16.3865 25.9678 16.1774 25.9678 15.977 25.9678C15.7529 25.99 15.5269 25.9776 15.3061 25.931C15.2811 25.8821 15.2634 25.8294 15.2538 25.7747C15.2538 17.2705 15.2538 8.7632 15.2538 0.252829C15.2727 0.177821 15.296 0.104128 15.3235 0.0321782Z" fill="#182CD1"/>
<path d="M42.3414 0C43.2126 0 44.0839 0 44.9551 0C44.9758 0.106226 44.9904 0.213686 44.9987 0.321782C45.0052 0.442735 45.0052 0.563983 44.9987 0.684936V25.2829C44.9987 25.4897 44.9987 25.692 44.9987 25.9127C44.9344 25.941 44.8671 25.961 44.7983 25.9724H42.4677C42.4155 25.9652 42.3643 25.9513 42.3152 25.931C42.2926 25.8515 42.2766 25.7699 42.2673 25.6874C42.2673 25.5173 42.2673 25.3426 42.2673 25.1726C42.2673 17.0361 42.2673 8.90111 42.2673 0.76768C42.2365 0.509171 42.2619 0.246666 42.3414 0V0Z" fill="#182CD1"/>
<path d="M26.5628 25.9265C25.6774 26.0033 24.7878 26.0125 23.9011 25.954C23.8722 25.8657 23.8503 25.775 23.8358 25.6828C23.8358 25.5265 23.8358 25.3702 23.8358 25.2231C23.8358 17.0682 23.8358 8.91643 23.8358 0.76768C23.8358 0.542433 23.8358 0.307992 23.8358 0.082744C23.9164 0.0443443 24.0013 0.0165547 24.0884 0L26.3363 0C26.4029 0.00619247 26.4686 0.020066 26.5323 0.041372C26.5491 0.110795 26.5608 0.181495 26.5672 0.252829L26.5628 25.9265Z" fill="#182CD1"/>
<path d="M53.1406 25.9219C52.2554 26.0025 51.3657 26.0133 50.4789 25.954C50.4515 25.864 50.4311 25.7718 50.4179 25.6782C50.4179 25.5219 50.4179 25.3702 50.4179 25.2185V0.763095C50.4179 0.537847 50.4179 0.303406 50.4179 0.0735615C50.5127 0.0398982 50.6105 0.016788 50.7098 0.00460815H52.8618C52.9349 0.00884072 53.0077 0.0180537 53.0796 0.0321895C53.1031 0.12611 53.122 0.221236 53.1363 0.317197C53.1363 0.455103 53.1363 0.59301 53.1363 0.730916V25.9219H53.1406Z" fill="#182CD1"/>
<path d="M1.08713 0H3.70092C3.72606 0.0668681 3.74503 0.136143 3.75755 0.20686C3.75755 6.98267 3.75755 13.76 3.75755 20.5389C3.74906 20.5932 3.73291 20.6459 3.70963 20.6952C3.65275 20.7211 3.59258 20.7382 3.53102 20.7458H1.18733C1.14359 20.7338 1.10226 20.7135 1.06535 20.686C1.04492 20.6391 1.03028 20.5897 1.02179 20.5389V0.211457C1.03538 0.138441 1.05732 0.0674355 1.08713 0V0Z" fill="#182CD1"/>
<path d="M28.7105 7.41479C28.6582 6.16903 28.68 4.93247 28.6756 3.6959C28.6797 3.63247 28.6885 3.56946 28.7017 3.50743C28.8716 3.47985 28.9108 3.61776 28.9762 3.7005C29.695 4.61988 30.4094 5.57144 31.1238 6.5046L39.7188 17.7302L40.1545 18.291V22.3179C40.0107 22.3823 39.9759 22.2489 39.9279 22.18C39.3006 21.3663 38.682 20.5481 38.0591 19.7299L29.0154 7.81472L28.7105 7.41479Z" fill="#182CD1"/>
<path d="M11.9866 25.9402C11.5205 26.0092 1.47485 26.0046 1.061 25.9402C1.04149 25.8617 1.02694 25.7818 1.01744 25.7012C0.978945 24.852 0.99787 24.0009 1.07407 23.1545C1.15248 23.1545 1.24396 23.1178 1.33545 23.1086C1.42693 23.0994 1.53148 23.1086 1.62732 23.1086H11.3898C11.5917 23.0889 11.7953 23.1076 11.991 23.1637C12.0146 23.2418 12.0321 23.3217 12.0432 23.4028C12.0879 24.2488 12.069 25.0973 11.9866 25.9402Z" fill="#182CD1"/>
</svg>
