<svg width="176" height="173" viewBox="0 0 176 173" fill="none" xmlns="http://www.w3.org/2000/svg">
<path d="M137.049 139.743H38.9483C38.3645 139.742 37.8049 139.509 37.3924 139.094C36.9799 138.679 36.7482 138.117 36.7482 137.531V69.9902L83.7383 34.2619C84.5784 33.6233 85.6 33.2715 86.6536 33.2579C87.7072 33.2442 88.7374 33.5696 89.5936 34.1862L139.252 69.9902V137.531C139.252 138.118 139.02 138.68 138.607 139.095C138.194 139.51 137.633 139.743 137.049 139.743Z" fill="#007CFF"/>
<path opacity="0.4" d="M137.049 139.743H38.9483C38.3645 139.742 37.8049 139.509 37.3924 139.094C36.9799 138.679 36.7482 138.117 36.7482 137.531V69.9902L83.7383 34.2619C84.5784 33.6233 85.6 33.2715 86.6536 33.2579C87.7072 33.2442 88.7374 33.5696 89.5936 34.1862L139.252 69.9902V137.531C139.252 138.118 139.02 138.68 138.607 139.095C138.194 139.51 137.633 139.743 137.049 139.743Z" fill="black"/>
<path d="M134.152 41.5215C132.992 41.9432 131.969 42.6754 131.194 43.6389C130.488 44.5169 130.099 45.6085 130.088 46.7367V126.153H45.2419V46.7502C45.2419 44.5058 46.8315 42.4694 49.314 41.535L134.152 41.5215Z" fill="#007CFF"/>
<path opacity="0.8" d="M134.152 41.5215C132.992 41.9432 131.969 42.6754 131.194 43.6389C130.488 44.5169 130.099 45.6085 130.088 46.7367V126.153H45.2419V46.7502C45.2419 44.5058 46.8315 42.4694 49.314 41.535L134.152 41.5215Z" fill="white"/>
<path d="M71.1226 70.4628C71.1226 61.5343 78.3279 54.314 87.1944 54.314C96.0608 54.314 103.266 61.5343 103.266 70.4628C103.266 79.3913 96.0608 86.6116 87.1944 86.6116C78.3279 86.6116 71.1226 79.3913 71.1226 70.4628Z" stroke="url(#paint0_angular_1402_10410)" stroke-width="5"/>
<path d="M139.255 69.9875V137.534C139.253 138.082 139.05 138.61 138.683 139.016C138.316 139.422 137.813 139.677 137.27 139.732C137.197 139.732 137.127 139.732 137.049 139.732H38.9483C38.8703 139.732 38.7977 139.732 38.7197 139.732C38.1787 139.675 37.678 139.418 37.314 139.012C36.95 138.607 36.7485 138.08 36.7482 137.534V69.9875L80.4194 100.255L82.8077 101.911L86.6404 104.574L90.691 101.911L93.2111 100.255L139.255 69.9875Z" fill="#1565D8"/>
<path opacity="0.2" d="M139.255 136.659V137.328C139.255 138.576 138.386 139.608 137.27 139.737C137.197 139.737 137.127 139.737 137.049 139.737H38.9483C38.8703 139.737 38.7977 139.737 38.7197 139.737C37.6142 139.608 36.7482 138.576 36.7482 137.328V136.659L80.4194 100.255L82.8077 101.911L86.6404 104.574L90.691 101.911L93.2111 100.255L139.255 136.659Z" fill="black"/>
<path d="M139.255 136.929V137.536C139.252 138.122 139.019 138.684 138.606 139.098C138.193 139.512 137.633 139.745 137.049 139.746H38.9483C38.365 139.745 37.8058 139.512 37.3933 139.098C36.9809 138.683 36.7489 138.122 36.7482 137.536V136.929L82.8077 101.911L83.741 101.203C84.5809 100.564 85.6023 100.212 86.6559 100.198C87.7094 100.183 88.7398 100.508 89.5963 101.125L90.691 101.911L139.255 136.929Z" fill="#1565D8"/>
<defs>
<radialGradient id="paint0_angular_1402_10410" cx="0" cy="0" r="1" gradientUnits="userSpaceOnUse" gradientTransform="translate(87.1944 70.4628) rotate(-90) scale(18.6488 18.5717)">
<stop stop-color="#04C45C"/>
<stop offset="1" stop-color="#04C45C" stop-opacity="0"/>
</radialGradient>
</defs>
</svg>
