<svg width="58" height="58" viewBox="0 0 58 58" fill="none" xmlns="http://www.w3.org/2000/svg">
<mask id="mask0_1698_8394" style="mask-type:alpha" maskUnits="userSpaceOnUse" x="0" y="0" width="58" height="58">
<circle cx="29" cy="29" r="29" fill="#C4C4C4"/>
</mask>
<g mask="url(#mask0_1698_8394)">
<path fill-rule="evenodd" clip-rule="evenodd" d="M-1.93359 -1.93329H59.9331V59.9334H-1.93359V-1.93329Z" fill="#D94F00"/>
<path fill-rule="evenodd" clip-rule="evenodd" d="M32.8911 11.0103H47.7106V25.9274H32.8911V11.0103ZM14.9751 33.473V34.9323H17.5292V42.6528H19.2904V34.8733H21.6684V33.414L14.9751 33.474V33.473ZM13.6597 35.2821V33.8228C12.2468 33.1811 10.6219 32.9872 8.95829 33.8228C6.23 35.0482 6.13249 41.1165 8.86178 42.3029C10.4289 43.1005 13.6975 42.7307 14.0268 42.03V37.2262H10.7772V38.4907H12.208V41.0195C7.50658 43.3145 6.63596 32.2865 13.6597 35.2821ZM24.533 38.4127H26.2156C27.6086 38.4717 27.9767 41.1165 26.1579 41.0965H24.533V38.4127ZM24.533 34.6984H26.2156C27.6086 34.9513 27.1061 37.0323 26.1579 37.0903H24.533V34.6984ZM22.7918 33.2791V42.5748H27.4156C29.7757 41.7192 29.8732 38.0439 27.4156 37.654C29.6792 37.4022 29.7956 33.2201 25.8872 33.2201L22.7918 33.2791ZM30.9558 35.8849V37.2652C32.1936 36.9154 34.883 35.9428 34.6313 38.0049C32.2712 37.849 30.6652 38.2768 30.3946 39.7541C29.9498 42.9446 33.3547 43.2555 34.7865 41.6802V42.4389H36.4114V36.8374C36.0054 35.0282 33.3169 34.7954 30.9558 35.8849ZM32.3289 39.4832C32.697 38.9964 33.8771 39.0154 34.6701 39.2493V40.4748C33.3746 41.8741 31.2851 41.2334 32.3299 39.4822L32.3289 39.4832ZM39.7785 37.5381C40.2043 37.0713 42.4679 36.1957 42.8162 37.5381V42.4778H44.6341V37.2462C44.247 35.0672 42.1764 34.6784 39.662 36.1567V35.3401H37.9407V42.5168H39.7586L39.7785 37.5381ZM50.3414 35.2621L47.9623 38.4707L50.4777 42.4189L52.6637 42.3609L49.8976 38.5686L52.3931 35.3201L50.3424 35.2621H50.3414ZM45.9893 32.9082H47.7882V42.4189H45.9883V32.9092L45.9893 32.9082Z" fill="white"/>
<path fill-rule="evenodd" clip-rule="evenodd" d="M32.8911 11.0103H47.7107V25.9274H32.8911V11.0103Z" fill="white"/>
</g>
</svg>
