<svg width="44" height="44" viewBox="0 0 44 44" fill="none" xmlns="http://www.w3.org/2000/svg">
<mask id="mask0_1698_8551" style="mask-type:alpha" maskUnits="userSpaceOnUse" x="0" y="0" width="44" height="44">
<circle cx="22" cy="22" r="22" fill="#C4C4C4"/>
</mask>
<g mask="url(#mask0_1698_8551)">
<path fill-rule="evenodd" clip-rule="evenodd" d="M-1.4668 -1.46667H45.4665V45.4667H-1.4668V-1.46667Z" fill="#D94F00"/>
<path fill-rule="evenodd" clip-rule="evenodd" d="M24.9516 8.35266H36.194V19.6691H24.9516V8.35266ZM11.3602 25.3933V26.5004H13.2978V32.3573H14.6339V26.4557H16.4379V25.3486L11.3602 25.3941V25.3933ZM10.3623 26.7658V25.6587C9.29045 25.1719 8.05782 25.0248 6.79574 25.6587C4.726 26.5884 4.65203 31.1918 6.72252 32.0919C7.91138 32.697 10.391 32.4165 10.6408 31.8849V28.2407H8.17557V29.1999H9.26101V31.1183C5.69445 32.8593 5.03397 24.4933 10.3623 26.7658ZM18.6111 29.1407H19.8875C20.9442 29.1855 21.2235 31.1918 19.8437 31.1767H18.6111V29.1407ZM18.6111 26.323H19.8875C20.9442 26.5148 20.5631 28.0935 19.8437 28.1375H18.6111V26.323ZM17.2901 25.2462V32.2982H20.7978C22.5883 31.6491 22.6622 28.8609 20.7978 28.5652C22.515 28.3741 22.6034 25.2015 19.6384 25.2015L17.2901 25.2462ZM23.4835 27.223V28.2702C24.4225 28.0048 26.4628 27.267 26.2718 28.8313C24.4814 28.7131 23.2631 29.0376 23.0578 30.1583C22.7204 32.5787 25.3034 32.8146 26.3896 31.6195V32.195H27.6222V27.9457C27.3142 26.5732 25.2747 26.3965 23.4835 27.223ZM24.5252 29.9528C24.8044 29.5836 25.6997 29.598 26.3013 29.7754V30.705C25.3185 31.7666 23.7333 31.2806 24.5259 29.9521L24.5252 29.9528ZM30.1766 28.4772C30.4996 28.1231 32.2169 27.4589 32.481 28.4772V32.2246H33.8601V28.2558C33.5665 26.6028 31.9957 26.3078 30.0882 27.4293V26.8098H28.7824V32.2542H30.1615L30.1766 28.4772ZM38.1898 26.7506L36.385 29.1847L38.2932 32.1799L39.9516 32.1359L37.8532 29.259L39.7463 26.7946L38.1906 26.7506H38.1898ZM34.8882 24.9649H36.2529V32.1799H34.8874V24.9657L34.8882 24.9649Z" fill="white"/>
<path fill-rule="evenodd" clip-rule="evenodd" d="M24.9517 8.35266H36.1941V19.6691H24.9517V8.35266Z" fill="white"/>
</g>
</svg>
