<svg width="10" height="10" viewBox="0 0 10 10" fill="none" xmlns="http://www.w3.org/2000/svg">
<path d="M8.5 3.25V3.25C8.5 3.01783 8.5 2.90175 8.49037 2.80397C8.39685 1.85441 7.64559 1.10315 6.69603 1.00963C6.59825 1 6.48217 1 6.25 1H4.75C3.10626 1 2.28439 1 1.73121 1.45398C1.62995 1.53709 1.53709 1.62995 1.45398 1.73121C1 2.28439 1 3.10626 1 4.75V6.25C1 6.48217 1 6.59825 1.00963 6.69603C1.10315 7.64559 1.85441 8.39685 2.80397 8.49037C2.90175 8.5 3.01783 8.5 3.25 8.5V8.5" stroke="#1565D8" stroke-width="1.5"/>
</svg>
