<svg width="10" height="10" viewBox="0 0 10 10" fill="none" xmlns="http://www.w3.org/2000/svg">
<path d="M8.5 3.08105V3.08105C8.5 2.84889 8.5 2.7328 8.49037 2.63502C8.39685 1.68547 7.64559 0.934208 6.69603 0.840685C6.59825 0.831055 6.48217 0.831055 6.25 0.831055H4.75C3.10626 0.831055 2.28439 0.831055 1.73121 1.28503C1.62995 1.36814 1.53709 1.461 1.45398 1.56227C1 2.11544 1 2.93731 1 4.58105V6.08105C1 6.31322 1 6.42931 1.00963 6.52709C1.10315 7.47664 1.85441 8.2279 2.80397 8.32142C2.90175 8.33105 3.01783 8.33105 3.25 8.33105V8.33105" stroke="#1565D8" stroke-width="1.5"/>
</svg>
