<svg width="21" height="15" viewBox="0 0 21 15" fill="none" xmlns="http://www.w3.org/2000/svg">
<path d="M3.75511 5.30973C3.97309 5.66195 4.43532 5.77077 4.78754 5.55279C5.13976 5.33481 5.24858 4.87257 5.03061 4.52036L3.75511 5.30973ZM3.67346 2.32743C3.45548 1.97522 2.99325 1.86639 2.64103 2.08437C2.28881 2.30235 2.17999 2.76459 2.39797 3.11681L3.67346 2.32743ZM15.9694 4.52036C15.7514 4.87257 15.8602 5.33481 16.2125 5.55279C16.5647 5.77077 17.0269 5.66195 17.2449 5.30973L15.9694 4.52036ZM18.602 3.11681C18.82 2.76459 18.7112 2.30235 18.359 2.08437C18.0068 1.86639 17.5445 1.97522 17.3265 2.32743L18.602 3.11681ZM12.2947 3.39882C12.2365 3.80892 12.5217 4.18858 12.9318 4.24681C13.3419 4.30505 13.7216 4.01981 13.7798 3.60971L12.2947 3.39882ZM14.1354 1.10545C14.1936 0.695348 13.9084 0.315687 13.4983 0.25745C13.0882 0.199213 12.7085 0.484454 12.6503 0.894553L14.1354 1.10545ZM7.62046 3.60971C7.6787 4.01981 8.05836 4.30505 8.46846 4.24681C8.87856 4.18858 9.1638 3.80892 9.10556 3.39882L7.62046 3.60971ZM8.74994 0.894553C8.6917 0.484454 8.31204 0.199213 7.90194 0.25745C7.49184 0.315687 7.2066 0.695348 7.26484 1.10545L8.74994 0.894553ZM19.25 8.98761C19.25 9.95572 18.4929 11.011 16.8675 11.8686C15.2764 12.7081 13.0264 13.25 10.5 13.25V14.75C13.2203 14.75 15.7203 14.1698 17.5675 13.1952C19.3805 12.2387 20.75 10.7878 20.75 8.98761H19.25ZM10.5 13.25C7.97362 13.25 5.72362 12.7081 4.13247 11.8686C2.50715 11.011 1.75 9.95572 1.75 8.98761H0.25C0.25 10.7878 1.6195 12.2387 3.4325 13.1952C5.27967 14.1698 7.77967 14.75 10.5 14.75V13.25ZM1.75 8.98761C1.75 8.0195 2.50715 6.9642 4.13247 6.10665C5.72362 5.26712 7.97362 4.72522 10.5 4.72522V3.22522C7.77967 3.22522 5.27967 3.80538 3.4325 4.77998C1.6195 5.73656 0.25 7.18745 0.25 8.98761H1.75ZM10.5 4.72522C13.0264 4.72522 15.2764 5.26712 16.8675 6.10665C18.4929 6.9642 19.25 8.0195 19.25 8.98761H20.75C20.75 7.18745 19.3805 5.73656 17.5675 4.77998C15.7203 3.80538 13.2203 3.22522 10.5 3.22522V4.72522ZM13.1429 8.98761C13.1429 10.2484 12.0171 11.3704 10.5 11.3704V12.8704C12.7306 12.8704 14.6429 11.1872 14.6429 8.98761H13.1429ZM10.5 11.3704C8.98294 11.3704 7.85714 10.2484 7.85714 8.98761H6.35714C6.35714 11.1872 8.26941 12.8704 10.5 12.8704V11.3704ZM7.85714 8.98761C7.85714 7.72686 8.98294 6.60487 10.5 6.60487V5.10487C8.26941 5.10487 6.35714 6.78802 6.35714 8.98761H7.85714ZM10.5 6.60487C12.0171 6.60487 13.1429 7.72686 13.1429 8.98761H14.6429C14.6429 6.78802 12.7306 5.10487 10.5 5.10487V6.60487ZM5.03061 4.52036L3.67346 2.32743L2.39797 3.11681L3.75511 5.30973L5.03061 4.52036ZM17.2449 5.30973L18.602 3.11681L17.3265 2.32743L15.9694 4.52036L17.2449 5.30973ZM13.7798 3.60971L14.1354 1.10545L12.6503 0.894553L12.2947 3.39882L13.7798 3.60971ZM9.10556 3.39882L8.74994 0.894553L7.26484 1.10545L7.62046 3.60971L9.10556 3.39882Z" fill="black"/>
</svg>
