<svg width="52" height="52" viewBox="0 0 52 52" fill="none" xmlns="http://www.w3.org/2000/svg">
<path d="M37.772 42.637C37.7631 42.5824 37.7696 42.5263 37.7906 42.4751C37.8117 42.4239 37.8466 42.3795 37.8914 42.3469C37.9362 42.3143 37.9891 42.2947 38.0444 42.2903C38.0997 42.2859 38.1551 42.2969 38.2045 42.3221C39.9219 43.1944 41.7259 43.8852 43.5871 44.3832C43.6373 44.3967 43.6902 44.3971 43.7406 44.3842C43.791 44.3714 43.8372 44.3458 43.8748 44.3099C44.6835 43.5345 45.4413 42.7077 46.1435 41.8347C46.1764 41.7935 46.198 41.7444 46.2061 41.6923C46.2142 41.6402 46.2085 41.5868 46.1896 41.5376C45.4924 39.7311 44.6069 38.0028 43.5479 36.3812C43.5175 36.3349 43.5005 36.281 43.4989 36.2257C43.4972 36.1703 43.511 36.1155 43.5387 36.0675C43.5663 36.0195 43.6067 35.9801 43.6555 35.9536C43.7042 35.9271 43.7594 35.9147 43.8148 35.9176C45.7826 36.0212 47.7559 35.9136 49.7008 35.5967C49.7518 35.5884 49.7998 35.5672 49.8402 35.5351C49.8807 35.503 49.9122 35.4612 49.9319 35.4135C50.3407 34.4146 50.6858 33.3909 50.9651 32.3485C50.9788 32.2975 50.9789 32.2438 50.9653 32.1928C50.9517 32.1418 50.925 32.0952 50.8877 32.0578C49.4895 30.6511 47.9436 29.3989 46.2769 28.3227C46.2302 28.2927 46.1928 28.2503 46.1688 28.2004C46.1448 28.1504 46.1351 28.0948 46.1409 28.0397C46.1466 27.9846 46.1676 27.9321 46.2014 27.8882C46.2352 27.8442 46.2806 27.8105 46.3325 27.7908C48.2159 27.0687 50.0145 26.143 51.6962 25.0303C51.7391 25.0018 51.7741 24.9628 51.7978 24.9171C51.8215 24.8713 51.8331 24.8203 51.8316 24.7688C51.797 23.7338 51.7006 22.7017 51.5429 21.6781C51.5349 21.626 51.5134 21.577 51.4805 21.5358C51.4476 21.4946 51.4045 21.4627 51.3554 21.4433C49.4647 20.699 47.4976 20.1651 45.4898 19.8511C45.435 19.8426 45.3836 19.819 45.3414 19.7831C45.2991 19.7472 45.2677 19.7003 45.2505 19.6477C45.2333 19.595 45.231 19.5387 45.2439 19.4848C45.2568 19.4309 45.2844 19.3817 45.3236 19.3425C46.7859 17.8835 48.08 16.2656 49.1815 14.5189C49.2088 14.4753 49.2245 14.4254 49.2271 14.374C49.2297 14.3226 49.2191 14.2714 49.1964 14.2252C48.7277 13.2746 48.201 12.3537 47.6191 11.4677L47.6057 11.4925C45.4818 11.563 43.3731 11.8777 41.3214 12.4305L41.237 12.4538C41.1836 12.4685 41.1271 12.4681 41.0739 12.4527C41.0207 12.4373 40.9728 12.4073 40.9356 12.3663C40.8984 12.3252 40.8733 12.2747 40.8632 12.2203C40.8532 12.1658 40.8584 12.1097 40.8784 12.0581C40.8884 12.0308 40.8993 12.0036 40.9097 11.9768C41.6554 10.019 42.1758 7.9829 42.4607 5.9077C42.5152 5.88491 42.5703 5.86362 42.6249 5.84183C41.7295 5.08735 40.7841 4.39409 39.7952 3.76678L39.7887 3.77074C39.791 3.82758 39.7767 3.88387 39.7476 3.93275C39.7184 3.98163 39.6757 4.02101 39.6246 4.0461C37.797 4.95263 36.0755 6.05829 34.4915 7.3429L34.4235 7.39787C34.3807 7.43282 34.3291 7.45525 34.2743 7.46266C34.2195 7.47007 34.1637 7.46218 34.1132 7.43987C34.0626 7.41755 34.0192 7.38168 33.9879 7.33624C33.9565 7.29079 33.9383 7.23756 33.9354 7.18244L33.9305 7.09478C33.818 5.06696 33.482 3.0577 32.9286 1.10339C32.9142 1.05254 32.9136 0.998762 32.9271 0.947645C32.9405 0.896527 32.9674 0.849929 33.0049 0.812686C33.0268 0.7904 33.0496 0.76861 33.0704 0.746324C31.9121 0.415472 30.7321 0.166086 29.5389 0L29.5275 0.0208C29.5665 0.0735671 29.5866 0.137889 29.5847 0.203446C29.5827 0.269004 29.5587 0.331998 29.5166 0.382324C28.2204 1.94904 27.1013 3.65372 26.1795 5.46545L26.1398 5.5432C26.1149 5.59237 26.0768 5.6337 26.0298 5.66261C25.9828 5.69151 25.9287 5.70686 25.8735 5.70697C25.8183 5.70707 25.7642 5.69192 25.7171 5.66319C25.6699 5.63446 25.6317 5.59327 25.6066 5.54419L25.5669 5.46644C24.636 3.65403 23.5072 1.94996 22.2011 0.385295C22.1673 0.345222 22.1448 0.296956 22.1357 0.245385C22.1267 0.193813 22.1314 0.140768 22.1495 0.0916191C22.1589 0.0668571 22.1688 0.0420952 22.1773 0.0173333C20.9968 0.187437 19.8295 0.439128 18.6839 0.77059L18.6824 0.786438C18.7353 0.820383 18.7757 0.870392 18.7979 0.929075C18.82 0.987758 18.8227 1.052 18.8055 1.1123C18.2567 3.0742 17.927 5.0907 17.8224 7.12499L17.8174 7.21215C17.8148 7.26731 17.7969 7.32066 17.7658 7.36628C17.7346 7.4119 17.6914 7.448 17.641 7.47058C17.5905 7.49316 17.5348 7.50132 17.4799 7.49417C17.4251 7.48701 17.3733 7.46482 17.3303 7.43006L17.2624 7.37509C15.6784 6.10045 13.9585 5.00414 12.1338 4.10602C12.0866 4.0831 12.0464 4.0481 12.0172 4.0046C11.988 3.9611 11.9709 3.91066 11.9676 3.8584C11.9661 3.84292 11.9651 3.82739 11.9646 3.81185C10.9735 4.44528 10.0266 5.14518 9.13048 5.9067C9.18305 5.928 9.23563 5.94781 9.28771 5.9691C9.5804 8.04305 10.1084 10.077 10.8615 12.0318L10.8933 12.1135C10.9135 12.165 10.9189 12.2211 10.909 12.2755C10.8991 12.33 10.8742 12.3806 10.8372 12.4217C10.8001 12.4628 10.7523 12.4928 10.6992 12.5083C10.646 12.5239 10.5896 12.5244 10.5361 12.5097L10.4518 12.4874C8.43025 11.9511 6.35429 11.6454 4.26373 11.5762L4.21016 11.4752C3.58579 12.4264 3.02492 13.4177 2.5312 14.4426C2.55203 14.4426 2.57286 14.4406 2.59369 14.4402C3.7058 16.2163 5.01655 17.8605 6.50069 19.341L6.56269 19.4029C6.60198 19.4418 6.62969 19.4909 6.64274 19.5446C6.65578 19.5983 6.65366 19.6545 6.63659 19.7071C6.61952 19.7596 6.58819 19.8064 6.54607 19.8423C6.50395 19.8781 6.4527 19.9016 6.39801 19.9101L6.31171 19.9239C4.30921 20.2447 2.34813 20.7844 0.463871 21.5334C0.414745 21.5529 0.371611 21.585 0.338792 21.6263C0.305972 21.6677 0.284622 21.717 0.276879 21.7692C0.122701 22.7975 0.0302797 23.834 0.000111004 24.8733C-0.00128525 24.9248 0.0105103 24.9758 0.0343803 25.0215C0.0582502 25.0672 0.0934039 25.106 0.136511 25.1343C1.81904 26.2372 3.61711 27.1533 5.49877 27.8666C5.55075 27.8861 5.59629 27.9196 5.63031 27.9635C5.66433 28.0073 5.6855 28.0597 5.69147 28.1148C5.69743 28.17 5.68796 28.2257 5.66409 28.2757C5.64023 28.3258 5.60291 28.3683 5.5563 28.3984C3.89747 29.4789 2.35965 30.7341 0.969295 32.1424C0.932263 32.18 0.905727 32.2266 0.892327 32.2776C0.878927 32.3286 0.879128 32.3822 0.892911 32.4331C1.17657 33.4781 1.52612 34.5042 1.93947 35.5051C1.95932 35.5529 1.99114 35.5948 2.03187 35.6268C2.07261 35.6588 2.12089 35.6798 2.17209 35.6878C4.11437 35.9963 6.08416 36.0959 8.04771 35.985C8.10305 35.9819 8.15817 35.9941 8.20697 36.0203C8.25577 36.0466 8.29634 36.0858 8.32418 36.1336C8.35202 36.1815 8.36604 36.2361 8.36469 36.2914C8.36335 36.3467 8.34668 36.4006 8.31654 36.447C7.26525 38.0694 6.38748 39.7975 5.69766 41.603C5.6789 41.6523 5.67342 41.7057 5.68178 41.7579C5.69013 41.81 5.71203 41.8591 5.74528 41.9001C6.45203 42.7733 7.21465 43.6 8.02837 44.3748C8.06602 44.4106 8.11226 44.4361 8.16265 44.4489C8.21304 44.4616 8.26587 44.4612 8.31605 44.4476C10.1721 43.9423 11.9704 43.2452 13.6818 42.3676C13.7311 42.3424 13.7865 42.3313 13.8418 42.3355C13.897 42.3397 13.9501 42.3591 13.995 42.3916C14.0399 42.424 14.075 42.4682 14.0963 42.5193C14.1176 42.5704 14.1243 42.6264 14.1158 42.6811C13.8205 44.5617 13.7208 46.4678 13.8182 48.3689C13.8231 48.4759 13.8851 48.572 13.9799 48.621C14.9979 49.1492 16.0501 49.609 17.1295 49.9973C17.1787 50.015 17.2317 50.0197 17.2832 50.0109C17.3348 50.002 17.3832 49.9799 17.4236 49.9467C18.8936 48.743 20.2355 47.3911 21.4278 45.9125C21.4626 45.8696 21.5086 45.837 21.5608 45.8185C21.6129 45.7999 21.6692 45.7962 21.7234 45.8075C21.7775 45.8189 21.8275 45.845 21.8678 45.8829C21.9081 45.9208 21.9371 45.9691 21.9516 46.0225C22.4439 47.8476 23.1225 49.6174 23.9767 51.3042C24.0003 51.3509 24.0357 51.3906 24.0794 51.4194C24.123 51.4483 24.1735 51.4652 24.2257 51.4686C25.3806 51.544 26.5392 51.5423 27.6938 51.4637C27.7461 51.46 27.7966 51.4429 27.8402 51.4139C27.8839 51.3849 27.9192 51.345 27.9428 51.2982C28.7908 49.6079 29.4627 47.835 29.9481 46.0076C29.9623 45.9541 29.9911 45.9055 30.0312 45.8673C30.0713 45.8291 30.1213 45.8027 30.1755 45.7911C30.2297 45.7795 30.2861 45.783 30.3384 45.8014C30.3907 45.8198 30.4369 45.8522 30.4719 45.8952C31.6707 47.3705 33.0189 48.7182 34.4949 49.917C34.5355 49.95 34.5839 49.9718 34.6355 49.9805C34.687 49.9892 34.7399 49.9844 34.7891 49.9666C35.8656 49.5753 36.9149 49.1127 37.9297 48.5819C37.9763 48.5574 38.0156 48.5212 38.0439 48.4769C38.0721 48.4326 38.0884 48.3818 38.0909 48.3293C38.1815 46.426 38.0746 44.5184 37.772 42.637ZM47.13 32.5C47.176 32.5384 47.2095 32.5897 47.2261 32.6473C47.2427 32.7048 47.2418 32.766 47.2233 32.823C47.2049 32.88 47.1698 32.9302 47.1226 32.9671C47.0754 33.0041 47.0182 33.0261 46.9584 33.0304C46.3949 33.0686 45.8303 33.0881 45.2656 33.0888C43.7444 33.0891 42.2264 32.9504 40.7306 32.6743C40.6678 32.6628 40.6105 32.6313 40.567 32.5847C39.738 31.6999 38.8507 30.8714 37.9109 30.105C37.8644 30.0672 37.8304 30.0161 37.8135 29.9586C37.7966 29.9011 37.7974 29.8399 37.816 29.7829C37.8345 29.7259 37.8699 29.6758 37.9175 29.6393C37.965 29.6028 38.0226 29.5814 38.0825 29.5781C39.2936 29.506 40.4986 29.3533 41.6894 29.121C41.752 29.1088 41.8168 29.117 41.8744 29.1443C43.7601 30.039 45.5259 31.1664 47.1305 32.5H47.13ZM45.0438 22.6814C46.0309 22.8359 47.008 23.0494 47.9702 23.3208C48.028 23.3371 48.0796 23.3704 48.1183 23.4163C48.157 23.4622 48.1811 23.5185 48.1874 23.5782C48.1938 23.6378 48.1821 23.698 48.1539 23.751C48.1257 23.804 48.0823 23.8473 48.0293 23.8754C46.1849 24.8501 44.2255 25.5903 42.1968 26.0787C42.1347 26.0934 42.0695 26.0879 42.0108 26.0629C40.8924 25.5905 39.7436 25.1934 38.572 24.8743C38.5144 24.8585 38.4628 24.8256 38.4241 24.7801C38.3854 24.7345 38.3614 24.6784 38.3551 24.619C38.3489 24.5596 38.3607 24.4997 38.389 24.4471C38.4174 24.3945 38.4609 24.3516 38.514 24.3241C39.5915 23.767 40.6304 23.1387 41.6239 22.4432C41.6763 22.4064 41.739 22.3873 41.803 22.3887C42.8885 22.4158 43.9711 22.5135 45.0438 22.6814ZM45.2482 15.0944C43.9629 16.7281 42.4768 18.1938 40.8249 19.4569C40.774 19.4954 40.7121 19.5168 40.6483 19.5178C39.4208 19.5415 38.1964 19.648 36.9834 19.8368C36.9242 19.8459 36.8636 19.837 36.8095 19.8112C36.7554 19.7855 36.7104 19.744 36.6804 19.6922C36.6503 19.6405 36.6366 19.5809 36.641 19.5212C36.6454 19.4616 36.6677 19.4046 36.7051 19.3579C37.4495 18.4251 38.1317 17.4444 38.7471 16.4221C38.7797 16.3677 38.8287 16.3251 38.887 16.3003C40.8341 15.4808 42.8782 14.9133 44.9695 14.6115C45.2363 14.5729 45.4158 14.8819 45.2482 15.0944ZM33.7678 12.0135C33.7752 11.9504 33.8027 11.8914 33.8462 11.8451C35.272 10.3306 36.8821 9.00029 38.639 7.88518C38.6898 7.85315 38.7491 7.83704 38.8092 7.83893C38.8692 7.84081 38.9274 7.86061 38.9761 7.89577C39.0248 7.93092 39.0619 7.97983 39.0825 8.0362C39.1031 8.09256 39.1064 8.15381 39.0919 8.21204C38.5819 10.2273 37.8212 12.1708 36.8276 13.9974C36.7972 14.0531 36.7497 14.0977 36.6922 14.1247C35.6054 14.6364 34.5537 15.2194 33.5441 15.8699C33.4937 15.9025 33.4347 15.9191 33.3747 15.9176C33.3147 15.9161 33.2566 15.8966 33.2079 15.8615C33.1593 15.8264 33.1224 15.7775 33.1021 15.7211C33.0818 15.6647 33.0791 15.6035 33.0942 15.5455C33.3964 14.3843 33.6215 13.2044 33.7678 12.0135ZM15.4619 9.60663C16.3326 10.3068 17.1552 11.0645 17.9241 11.8748C17.9678 11.9211 17.9956 11.9801 18.0034 12.0432C18.154 13.2336 18.3833 14.4127 18.6899 15.5728C18.7054 15.6307 18.703 15.692 18.6829 15.7486C18.6629 15.8052 18.6261 15.8543 18.5776 15.8897C18.529 15.925 18.4708 15.9448 18.4107 15.9465C18.3507 15.9482 18.2915 15.9317 18.241 15.8991C17.2351 15.2566 16.1879 14.6809 15.1063 14.1757C15.0488 14.1489 15.0014 14.1045 14.9709 14.0489C13.9678 12.2274 13.1985 10.287 12.6813 8.27345C12.6665 8.21522 12.6694 8.15387 12.6898 8.09733C12.7102 8.04079 12.7471 7.99165 12.7957 7.95625C12.8444 7.92086 12.9025 7.90083 12.9627 7.89875C13.0228 7.89668 13.0822 7.91265 13.1332 7.94461C13.9407 8.45363 14.7182 9.00855 15.4619 9.60663ZM6.63262 15.1682C6.5953 15.121 6.573 15.0637 6.56862 15.0037C6.56424 14.9437 6.57797 14.8838 6.60803 14.8317C6.6381 14.7796 6.68313 14.7377 6.73729 14.7115C6.79145 14.6852 6.85227 14.6757 6.91187 14.6843C8.96531 14.9834 10.9731 15.5361 12.8897 16.3315C12.9482 16.3559 12.9974 16.3984 13.03 16.4528C13.6525 17.4791 14.3423 18.4631 15.0949 19.3985C15.1326 19.4451 15.1553 19.5021 15.16 19.5618C15.1647 19.6216 15.1513 19.6814 15.1213 19.7333C15.0914 19.7853 15.0464 19.827 14.9923 19.853C14.9382 19.8789 14.8775 19.888 14.8181 19.8789C13.6374 19.7002 12.4463 19.5993 11.2524 19.5768C11.1889 19.5756 11.1274 19.5542 11.0768 19.5158C9.41843 18.2587 7.92529 16.798 6.63262 15.1682ZM3.88081 23.4079C5.91221 22.8274 8.0096 22.5085 10.122 22.459C10.1854 22.4576 10.2475 22.4763 10.2996 22.5125C11.2803 23.1927 12.3048 23.8078 13.3663 24.3538C13.4198 24.3812 13.4637 24.424 13.4923 24.4767C13.5209 24.5294 13.5329 24.5895 13.5267 24.6491C13.5204 24.7087 13.4963 24.7651 13.4574 24.8108C13.4185 24.8564 13.3667 24.8893 13.3088 24.905C12.125 25.2294 10.9645 25.6332 9.83529 26.1139C9.77661 26.139 9.71146 26.1447 9.64929 26.1302C7.62386 25.6547 5.66646 24.9264 3.82328 23.9626C3.77041 23.9344 3.72715 23.8911 3.69902 23.8383C3.67089 23.7855 3.65917 23.7255 3.66534 23.6659C3.67152 23.6064 3.69531 23.5501 3.73369 23.5041C3.77207 23.4582 3.82329 23.4247 3.88081 23.4079ZM7.88849 33.123C6.89749 33.1785 5.90449 33.1745 4.91349 33.1121C4.85369 33.1079 4.7965 33.0861 4.74922 33.0493C4.70194 33.0125 4.66671 32.9625 4.64802 32.9056C4.62934 32.8487 4.62805 32.7876 4.64433 32.73C4.6606 32.6724 4.6937 32.6209 4.73939 32.5822C6.33856 31.2418 8.10091 30.1085 9.98459 29.2091C10.0423 29.1816 10.1073 29.1733 10.1701 29.1854C11.354 29.4107 12.5509 29.5578 13.7547 29.6246C13.8146 29.6279 13.8721 29.6491 13.9197 29.6856C13.9673 29.722 14.0027 29.772 14.0214 29.8289C14.04 29.8858 14.041 29.947 14.0242 30.0045C14.0075 30.062 13.9737 30.1131 13.9273 30.1511C12.9907 30.9208 12.1066 31.7522 11.2811 32.6397C11.2378 32.6863 11.1806 32.7179 11.118 32.7298C10.051 32.9309 8.97207 33.0623 7.888 33.123H7.88849ZM12.3703 39.8186C11.4815 40.2742 10.5661 40.6761 9.62896 41.0221C9.57261 41.0426 9.51142 41.0458 9.4532 41.0314C9.39499 41.017 9.34239 40.9856 9.30214 40.9412C9.26189 40.8969 9.23581 40.8415 9.22723 40.7822C9.21865 40.723 9.22797 40.6625 9.25398 40.6085C10.1694 38.7358 11.3171 36.9855 12.6699 35.3986C12.7114 35.35 12.7674 35.316 12.8296 35.3016C14.0112 35.0254 15.173 34.6707 16.3071 34.2398C16.3632 34.2184 16.4244 34.2145 16.4827 34.2285C16.541 34.2425 16.5938 34.2737 16.634 34.3182C16.6742 34.3626 16.7001 34.4182 16.7081 34.4775C16.7162 34.5369 16.706 34.5973 16.6791 34.6508C16.1367 35.7346 15.6676 36.8533 15.2749 37.9996C15.2542 38.0598 15.2147 38.1119 15.1623 38.1482C14.2691 38.765 13.3364 39.3228 12.3703 39.8181V39.8186ZM19.1918 44.1158C18.5694 44.8878 17.9015 45.6221 17.1915 46.3147C17.1484 46.3565 17.0938 46.3845 17.0347 46.3951C16.9755 46.4057 16.9145 46.3984 16.8596 46.3741C16.8047 46.3498 16.7582 46.3097 16.7263 46.2588C16.6944 46.208 16.6785 46.1488 16.6806 46.0888C16.7543 44.0062 17.0911 41.9413 17.683 39.9429C17.7014 39.8821 17.7388 39.8287 17.7896 39.7904C18.75 39.0623 19.6609 38.2714 20.5162 37.4227C20.5586 37.3804 20.6129 37.3519 20.6718 37.341C20.7308 37.33 20.7917 37.3371 20.8465 37.3613C20.9014 37.3855 20.9476 37.4257 20.9792 37.4766C21.0108 37.5275 21.0263 37.5867 21.0236 37.6465C20.969 38.857 20.9957 40.0697 21.1034 41.2766C21.1094 41.3401 21.0948 41.4038 21.0618 41.4584C20.497 42.3838 19.8724 43.2715 19.1918 44.1158ZM20.8138 10.7883C20.772 10.7403 20.7466 10.6803 20.7413 10.6169C20.5693 8.54529 20.6576 6.46032 21.0042 4.41059C21.0144 4.3514 21.0421 4.2966 21.0837 4.25327C21.1254 4.20994 21.1791 4.18006 21.2379 4.16749C21.2967 4.15491 21.358 4.16021 21.4137 4.18271C21.4695 4.20521 21.5173 4.24387 21.5508 4.29371C22.7079 6.0215 23.6443 7.8868 24.3383 9.84632C24.3595 9.90622 24.3609 9.9713 24.3423 10.032C23.9954 11.1805 23.725 12.3507 23.5328 13.5349C23.5234 13.594 23.4962 13.649 23.4549 13.6925C23.4136 13.736 23.3601 13.766 23.3014 13.7786C23.2428 13.7912 23.1816 13.7858 23.1261 13.763C23.0705 13.7403 23.0232 13.7013 22.9902 13.6512C22.3288 12.6501 21.6018 11.6939 20.8138 10.7888V10.7883ZM27.1735 45.2737C26.9174 46.2382 26.6035 47.1865 26.2335 48.1134C26.2113 48.1692 26.1728 48.217 26.123 48.2508C26.0733 48.2845 26.0145 48.3026 25.9544 48.3027C25.8942 48.3028 25.8354 48.2849 25.7856 48.2514C25.7357 48.2178 25.697 48.1701 25.6746 48.1144C24.8944 46.1813 24.3605 44.1581 24.0854 42.0923C24.0771 42.0291 24.0892 41.9648 24.1201 41.909C24.7059 40.8481 25.2199 39.7492 25.6587 38.6197C25.6804 38.5639 25.7184 38.5159 25.7678 38.4821C25.8172 38.4482 25.8757 38.4301 25.9356 38.43C25.9955 38.4299 26.0541 38.4478 26.1036 38.4815C26.1531 38.5152 26.1913 38.563 26.2132 38.6187C26.6564 39.7465 27.1747 40.8434 27.7647 41.9021C27.7957 41.9579 27.808 42.0221 27.7999 42.0853C27.6609 43.1606 27.4516 44.2257 27.1735 45.2737ZM28.2438 13.5274C28.0484 12.3511 27.7757 11.1889 27.4274 10.0484C27.409 9.98783 27.4102 9.92299 27.4309 9.86316C28.112 7.90554 29.0367 6.04107 30.1832 4.31352C30.2165 4.26355 30.264 4.22467 30.3197 4.2019C30.3753 4.17913 30.4365 4.1735 30.4953 4.18576C30.5542 4.19801 30.608 4.22758 30.6499 4.27065C30.6918 4.31372 30.7198 4.36833 30.7303 4.42743C31.0824 6.46979 31.1767 8.5483 31.0095 10.6139C31.0045 10.6772 30.9795 10.7372 30.9381 10.7853C30.1589 11.689 29.4402 12.6429 28.7865 13.6408C28.7537 13.6909 28.7065 13.7299 28.6511 13.7528C28.5958 13.7756 28.5348 13.7813 28.4762 13.769C28.4175 13.7567 28.364 13.727 28.3226 13.6838C28.2811 13.6406 28.2537 13.5859 28.2438 13.5269V13.5274ZM30.7799 41.2355C30.8811 40.0355 30.9029 38.8301 30.8444 37.6272C30.8416 37.5675 30.8568 37.5084 30.8882 37.4575C30.9196 37.4066 30.9656 37.3664 31.0202 37.342C31.0748 37.3176 31.1355 37.3102 31.1944 37.3208C31.2533 37.3314 31.3076 37.3595 31.3503 37.4014C32.2144 38.2519 33.1346 39.0437 34.1046 39.7716C34.1557 39.8097 34.1932 39.8632 34.2117 39.9241C34.8068 41.9144 35.1501 43.9713 35.2335 46.0467C35.2355 46.1066 35.2196 46.1656 35.1879 46.2164C35.1562 46.2672 35.11 46.3074 35.0552 46.3318C35.0005 46.3563 34.9397 46.3639 34.8807 46.3537C34.8216 46.3435 34.7669 46.3159 34.7236 46.2746C33.2237 44.8256 31.9132 43.1932 30.823 41.4163C30.7899 41.3621 30.775 41.2988 30.7804 41.2355H30.7799ZM35.5484 34.2036C36.6843 34.6295 37.8474 34.9797 39.0303 35.2506C39.0926 35.2649 39.1485 35.2987 39.1901 35.3471C40.5487 36.929 41.7028 38.675 42.6254 40.5442C42.6518 40.598 42.6615 40.6584 42.6533 40.7178C42.6451 40.7772 42.6192 40.8327 42.5792 40.8774C42.5391 40.922 42.4865 40.9536 42.4283 40.9682C42.3701 40.9827 42.3088 40.9796 42.2524 40.9592C40.2919 40.2439 38.4292 39.2855 36.7081 38.1066C36.6554 38.0704 36.6158 38.0184 36.595 37.958C36.1982 36.8136 35.7251 35.697 35.1789 34.6157C35.152 34.5623 35.1418 34.502 35.1497 34.4428C35.1575 34.3836 35.1831 34.3281 35.2231 34.2836C35.2631 34.2391 35.3155 34.2076 35.3736 34.1934C35.4318 34.1791 35.4929 34.1827 35.5489 34.2036H35.5484Z" fill="#182CD1"/>
</svg>
