<svg width="12" height="6" viewBox="0 0 12 6" fill="none" xmlns="http://www.w3.org/2000/svg">
<path fill-rule="evenodd" clip-rule="evenodd" d="M1.50618 1.26228C2.08218 0.686266 2.86342 0.362671 3.67802 0.362671H8.59234C9.40696 0.362671 10.1882 0.686266 10.7642 1.26228C11.3402 1.83829 11.6638 2.61952 11.6638 3.43409V4.66267C11.6638 5.00197 11.3888 5.27697 11.0495 5.27697C10.7102 5.27697 10.4352 5.00197 10.4352 4.66267V3.43409C10.4352 2.94536 10.2411 2.47661 9.89545 2.13098C9.54987 1.7854 9.08112 1.59121 8.59234 1.59121H3.67802C3.18926 1.59121 2.72052 1.7854 2.37491 2.13098C2.02931 2.47661 1.83515 2.94536 1.83515 3.43409V4.66267C1.83515 5.00197 1.56012 5.27697 1.22086 5.27697C0.881595 5.27697 0.606567 5.00197 0.606567 4.66267V3.43409C0.606567 2.61952 0.930164 1.83829 1.50618 1.26228Z" fill="#1565D8"/>
</svg>
