<svg width="16" height="7" viewBox="0 0 16 7" fill="none" xmlns="http://www.w3.org/2000/svg">
<path fill-rule="evenodd" clip-rule="evenodd" d="M1.85627 1.72765C2.61262 0.971296 3.63845 0.546387 4.70809 0.546387H11.161C12.2307 0.546387 13.2565 0.971296 14.0129 1.72765C14.7692 2.48401 15.1941 3.50983 15.1941 4.57943V6.19268C15.1941 6.63821 14.833 6.9993 14.3875 6.9993C13.942 6.9993 13.5809 6.63821 13.5809 6.19268V4.57943C13.5809 3.93768 13.326 3.32218 12.8721 2.86834C12.4184 2.41456 11.8029 2.15957 11.161 2.15957H4.70809C4.06631 2.15957 3.4508 2.41456 2.997 2.86834C2.54318 3.32218 2.28824 3.93768 2.28824 4.57943V6.19268C2.28824 6.63821 1.9271 6.9993 1.48162 6.9993C1.03613 6.9993 0.674999 6.63821 0.674999 6.19268V4.57943C0.674999 3.50983 1.09991 2.48401 1.85627 1.72765Z" fill="#1565D8"/>
</svg>
