<svg width="105" height="16" viewBox="0 0 105 16" fill="none" xmlns="http://www.w3.org/2000/svg">
<path d="M11.9321 3.91056C13.0319 3.91056 14.0583 4.1153 15.0114 4.52478C15.9828 4.92061 16.7618 5.50071 17.3483 6.26508C17.9349 7.02945 18.2281 7.92348 18.2281 8.94719C18.2281 10.1619 17.8615 11.2608 17.1284 12.2435C16.4136 13.2126 15.433 13.977 14.1866 14.5366C12.9586 15.0962 11.6114 15.3761 10.1451 15.3761C7.83562 15.3761 6.25016 14.7891 5.38871 13.6152L4.9763 15.1918H0L4.06902 0H9.29277L7.97308 4.93426C9.09115 4.25179 10.4108 3.91056 11.9321 3.91056ZM9.40274 12.2435C10.4475 12.2435 11.2998 11.9569 11.9596 11.3836C12.6195 10.8103 12.9494 10.0664 12.9494 9.15193C12.9494 8.49676 12.6928 7.97808 12.1796 7.5959C11.6847 7.21371 10.9974 7.02262 10.1176 7.02262C9.07282 7.02262 8.22052 7.30926 7.56068 7.88253C6.90084 8.45581 6.57092 9.20653 6.57092 10.1346C6.57092 10.7898 6.81836 11.3085 7.31324 11.6906C7.82645 12.0592 8.52295 12.2435 9.40274 12.2435ZM26.7048 5.32327C27.9511 4.38146 29.7474 3.91056 32.0935 3.91056L31.1861 7.41163C30.7279 7.37068 30.3339 7.35021 30.004 7.35021C28.8309 7.35021 27.8869 7.56177 27.1721 7.9849C26.4756 8.39439 26.0083 9.04956 25.77 9.95042L24.3403 15.1918H19.1166L22.0859 4.09482H27.0347L26.7048 5.32327ZM47.9715 8.78339C47.9715 9.31572 47.8706 9.92312 47.669 10.6056H36.7266C36.9099 11.8067 38.0373 12.4073 40.1084 12.4073C40.7683 12.4073 41.4098 12.3322 42.033 12.1822C42.6561 12.0319 43.2151 11.8067 43.71 11.5065L45.882 13.9428C44.1408 14.8983 42.0237 15.3761 39.531 15.3761C37.9547 15.3761 36.5617 15.1712 35.352 14.7618C34.1606 14.3386 33.2351 13.7517 32.5752 13.001C31.9337 12.2366 31.6129 11.3427 31.6129 10.319C31.6129 9.10415 31.9887 8.0122 32.7402 7.04309C33.51 6.06034 34.5731 5.29597 35.9294 4.74999C37.3041 4.19037 38.8711 3.91056 40.6307 3.91056C42.1153 3.91056 43.4076 4.1153 44.5074 4.52478C45.6254 4.92061 46.4776 5.48706 47.0642 6.22413C47.669 6.9612 47.9715 7.81429 47.9715 8.78339ZM40.3834 6.67456C39.5402 6.67456 38.8345 6.84518 38.2663 7.18641C37.6981 7.514 37.2858 7.97125 37.0292 8.55818H43.1601C43.1784 7.97125 42.9311 7.514 42.4179 7.18641C41.9047 6.84518 41.2265 6.67456 40.3834 6.67456ZM65.5038 8.78339C65.5038 9.31572 65.4031 9.92312 65.2015 10.6056H54.2591C54.4424 11.8067 55.5695 12.4073 57.6407 12.4073C58.3006 12.4073 58.9421 12.3322 59.5653 12.1822C60.1884 12.0319 60.7476 11.8067 61.2425 11.5065L63.4143 13.9428C61.6731 14.8983 59.5562 15.3761 57.0635 15.3761C55.4872 15.3761 54.0942 15.1712 52.8845 14.7618C51.6931 14.3386 50.7674 13.7517 50.1075 13.001C49.466 12.2366 49.1454 11.3427 49.1454 10.319C49.1454 9.10415 49.521 8.0122 50.2725 7.04309C51.0423 6.06034 52.1054 5.29597 53.4617 4.74999C54.8364 4.19037 56.4036 3.91056 58.1632 3.91056C59.6478 3.91056 60.9399 4.1153 62.0397 4.52478C63.1577 4.92061 64.0101 5.48706 64.5966 6.22413C65.2015 6.9612 65.5038 7.81429 65.5038 8.78339ZM57.9157 6.67456C57.0725 6.67456 56.367 6.84518 55.7988 7.18641C55.2306 7.514 54.8181 7.97125 54.5615 8.55818H60.6926C60.7109 7.97125 60.4634 7.514 59.9502 7.18641C59.437 6.84518 58.7588 6.67456 57.9157 6.67456ZM81.0875 6.36745L72.8395 12.2845H79.7952L78.998 15.1918H65.2513L65.8561 12.8987L74.1591 6.98167H67.6707L68.4405 4.09482H81.7197L81.0875 6.36745ZM98.018 8.78339C98.018 9.31572 97.9173 9.92312 97.7157 10.6056H86.7733C86.9566 11.8067 88.0837 12.4073 90.1549 12.4073C90.8147 12.4073 91.4562 12.3322 92.0794 12.1822C92.7026 12.0319 93.2617 11.8067 93.7566 11.5065L95.9285 13.9428C94.1872 14.8983 92.0704 15.3761 89.5776 15.3761C88.0013 15.3761 86.6083 15.1712 85.3986 14.7618C84.2073 14.3386 83.2815 13.7517 82.6217 13.001C81.9802 12.2366 81.6595 11.3427 81.6595 10.319C81.6595 9.10415 82.0352 8.0122 82.7867 7.04309C83.5565 6.06034 84.6196 5.29597 85.9759 4.74999C87.3506 4.19037 88.9178 3.91056 90.6774 3.91056C92.162 3.91056 93.4541 4.1153 94.5538 4.52478C95.6719 4.92061 96.5243 5.48706 97.1108 6.22413C97.7157 6.9612 98.018 7.81429 98.018 8.78339ZM90.4298 6.67456C89.5867 6.67456 88.8811 6.84518 88.3129 7.18641C87.7447 7.514 87.3322 7.97125 87.0756 8.55818H93.2067C93.2251 7.97125 92.9775 7.514 92.4643 7.18641C91.9511 6.84518 91.2729 6.67456 90.4298 6.67456ZM101.281 15.3761C100.42 15.3761 99.705 15.1781 99.1368 14.7823C98.587 14.3728 98.312 13.8609 98.312 13.2467C98.312 12.5096 98.6329 11.9159 99.2744 11.4655C99.9342 11.0014 100.731 10.7694 101.666 10.7694C102.546 10.7694 103.252 10.9672 103.783 11.3631C104.333 11.7452 104.608 12.2572 104.608 12.8987C104.608 13.6221 104.278 14.2158 103.618 14.6799C102.977 15.1441 102.198 15.3761 101.281 15.3761Z" fill="#223744"/>
</svg>
