<svg width="105" height="16" viewBox="0 0 105 16" fill="none" xmlns="http://www.w3.org/2000/svg">
<path d="M11.9321 4.53195C13.0319 4.53195 14.0583 4.7367 15.0114 5.14618C15.9828 5.54201 16.7618 6.12211 17.3483 6.88648C17.9349 7.65084 18.2281 8.54488 18.2281 9.56859C18.2281 10.7833 17.8615 11.8822 17.1284 12.8649C16.4136 13.834 15.433 14.5984 14.1866 15.158C12.9586 15.7176 11.6114 15.9975 10.1451 15.9975C7.83562 15.9975 6.25016 15.4105 5.38871 14.2366L4.9763 15.8132H0L4.06902 0.621399H9.29277L7.97308 5.55566C9.09115 4.87319 10.4108 4.53195 11.9321 4.53195ZM9.40274 12.8649C10.4475 12.8649 11.2998 12.5783 11.9596 12.005C12.6195 11.4317 12.9494 10.6878 12.9494 9.77333C12.9494 9.11816 12.6928 8.59948 12.1796 8.2173C11.6847 7.83511 10.9974 7.64402 10.1176 7.64402C9.07282 7.64402 8.22052 7.93066 7.56068 8.50393C6.90084 9.07721 6.57092 9.82792 6.57092 10.756C6.57092 11.4112 6.81836 11.9299 7.31324 12.312C7.82645 12.6806 8.52295 12.8649 9.40274 12.8649ZM26.7048 5.94467C27.9511 5.00286 29.7474 4.53195 32.0935 4.53195L31.1861 8.03303C30.7279 7.99208 30.3339 7.97161 30.004 7.97161C28.8309 7.97161 27.8869 8.18317 27.1721 8.6063C26.4756 9.01579 26.0083 9.67096 25.77 10.5718L24.3403 15.8132H19.1166L22.0859 4.71622H27.0347L26.7048 5.94467ZM47.9715 9.40479C47.9715 9.93712 47.8706 10.5445 47.669 11.227H36.7266C36.9099 12.4281 38.0373 13.0287 40.1084 13.0287C40.7683 13.0287 41.4098 12.9536 42.033 12.8036C42.6561 12.6533 43.2151 12.4281 43.71 12.1278L45.882 14.5642C44.1408 15.5197 42.0237 15.9975 39.531 15.9975C37.9547 15.9975 36.5617 15.7926 35.352 15.3832C34.1606 14.96 33.2351 14.3731 32.5752 13.6224C31.9337 12.858 31.6129 11.9641 31.6129 10.9404C31.6129 9.72555 31.9887 8.6336 32.7402 7.66449C33.51 6.68174 34.5731 5.91737 35.9294 5.37139C37.3041 4.81177 38.8711 4.53195 40.6307 4.53195C42.1153 4.53195 43.4076 4.7367 44.5074 5.14618C45.6254 5.54201 46.4776 6.10846 47.0642 6.84553C47.669 7.5826 47.9715 8.43568 47.9715 9.40479ZM40.3834 7.29596C39.5402 7.29596 38.8345 7.46658 38.2663 7.80781C37.6981 8.1354 37.2858 8.59265 37.0292 9.17958H43.1601C43.1784 8.59265 42.9311 8.1354 42.4179 7.80781C41.9047 7.46658 41.2265 7.29596 40.3834 7.29596ZM65.5038 9.40479C65.5038 9.93712 65.4031 10.5445 65.2015 11.227H54.2591C54.4424 12.4281 55.5695 13.0287 57.6407 13.0287C58.3006 13.0287 58.9421 12.9536 59.5653 12.8036C60.1884 12.6533 60.7476 12.4281 61.2425 12.1278L63.4143 14.5642C61.6731 15.5197 59.5562 15.9975 57.0635 15.9975C55.4872 15.9975 54.0942 15.7926 52.8845 15.3832C51.6931 14.96 50.7674 14.3731 50.1075 13.6224C49.466 12.858 49.1454 11.9641 49.1454 10.9404C49.1454 9.72555 49.521 8.6336 50.2725 7.66449C51.0423 6.68174 52.1054 5.91737 53.4617 5.37139C54.8364 4.81177 56.4036 4.53195 58.1632 4.53195C59.6478 4.53195 60.9399 4.7367 62.0397 5.14618C63.1577 5.54201 64.0101 6.10846 64.5966 6.84553C65.2015 7.5826 65.5038 8.43568 65.5038 9.40479ZM57.9157 7.29596C57.0725 7.29596 56.367 7.46658 55.7988 7.80781C55.2306 8.1354 54.8181 8.59265 54.5615 9.17958H60.6926C60.7109 8.59265 60.4634 8.1354 59.9502 7.80781C59.437 7.46658 58.7588 7.29596 57.9157 7.29596ZM81.0875 6.98885L72.8395 12.9059H79.7952L78.998 15.8132H65.2513L65.8561 13.5201L74.1591 7.60307H67.6707L68.4405 4.71622H81.7197L81.0875 6.98885ZM98.018 9.40479C98.018 9.93712 97.9173 10.5445 97.7157 11.227H86.7733C86.9566 12.4281 88.0837 13.0287 90.1549 13.0287C90.8147 13.0287 91.4562 12.9536 92.0794 12.8036C92.7026 12.6533 93.2617 12.4281 93.7566 12.1278L95.9285 14.5642C94.1872 15.5197 92.0704 15.9975 89.5776 15.9975C88.0013 15.9975 86.6083 15.7926 85.3986 15.3832C84.2073 14.96 83.2815 14.3731 82.6217 13.6224C81.9802 12.858 81.6595 11.9641 81.6595 10.9404C81.6595 9.72555 82.0352 8.6336 82.7867 7.66449C83.5565 6.68174 84.6196 5.91737 85.9759 5.37139C87.3506 4.81177 88.9178 4.53195 90.6774 4.53195C92.162 4.53195 93.4541 4.7367 94.5538 5.14618C95.6719 5.54201 96.5243 6.10846 97.1108 6.84553C97.7157 7.5826 98.018 8.43568 98.018 9.40479ZM90.4298 7.29596C89.5867 7.29596 88.8811 7.46658 88.3129 7.80781C87.7447 8.1354 87.3322 8.59265 87.0756 9.17958H93.2067C93.2251 8.59265 92.9775 8.1354 92.4643 7.80781C91.9511 7.46658 91.2729 7.29596 90.4298 7.29596ZM101.281 15.9975C100.42 15.9975 99.705 15.7995 99.1368 15.4037C98.587 14.9942 98.312 14.4823 98.312 13.8681C98.312 13.131 98.6329 12.5373 99.2744 12.0869C99.9342 11.6228 100.731 11.3908 101.666 11.3908C102.546 11.3908 103.252 11.5886 103.783 11.9845C104.333 12.3666 104.608 12.8786 104.608 13.5201C104.608 14.2435 104.278 14.8372 103.618 15.3013C102.977 15.7655 102.198 15.9975 101.281 15.9975Z" fill="#223744"/>
</svg>
