<svg width="21" height="9" viewBox="0 0 21 9" fill="none" xmlns="http://www.w3.org/2000/svg">
<path d="M20.5216 1.53893C20.8192 1.25086 20.827 0.776047 20.5389 0.478407C20.2509 0.180767 19.776 0.173007 19.4784 0.461074L20.5216 1.53893ZM1.52286 0.462308C1.22591 0.173538 0.751079 0.180176 0.462308 0.477135C0.173538 0.774094 0.180176 1.24892 0.477135 1.53769L1.52286 0.462308ZM4.45599 3.60097C4.65755 3.2391 4.52759 2.78235 4.16573 2.5808C3.80386 2.37924 3.34711 2.50919 3.14556 2.87106L4.45599 3.60097ZM1.65924 5.5395C1.45768 5.90136 1.58764 6.35811 1.9495 6.55967C2.31137 6.76123 2.76812 6.63127 2.96967 6.2694L1.65924 5.5395ZM17.8328 2.87106C17.6313 2.50919 17.1745 2.37924 16.8126 2.5808C16.4508 2.78235 16.3208 3.2391 16.5224 3.60097L17.8328 2.87106ZM18.0087 6.2694C18.2103 6.63127 18.667 6.76123 19.0289 6.55967C19.3907 6.35811 19.5207 5.90136 19.3191 5.5395L18.0087 6.2694ZM14.0119 4.85762C13.9594 4.44675 13.5837 4.15624 13.1728 4.20876C12.762 4.26127 12.4715 4.63692 12.524 5.04779L14.0119 4.85762ZM12.9134 8.09508C12.966 8.50595 13.3416 8.79646 13.7525 8.74395C14.1633 8.69144 14.4538 8.31579 14.4013 7.90492L12.9134 8.09508ZM8.89275 5.04779C8.94526 4.63692 8.65475 4.26127 8.24388 4.20876C7.83301 4.15624 7.45736 4.44675 7.40485 4.85762L8.89275 5.04779ZM7.01538 7.90492C6.96287 8.31579 7.25338 8.69144 7.66425 8.74395C8.07512 8.79646 8.45077 8.50595 8.50328 8.09508L7.01538 7.90492ZM19.4784 0.461074C14.5169 5.26305 6.45794 5.2613 1.52286 0.462308L0.477135 1.53769C5.9958 6.90418 14.9799 6.90243 20.5216 1.53893L19.4784 0.461074ZM3.14556 2.87106L1.65924 5.5395L2.96967 6.2694L4.45599 3.60097L3.14556 2.87106ZM16.5224 3.60097L18.0087 6.2694L19.3191 5.5395L17.8328 2.87106L16.5224 3.60097ZM12.524 5.04779L12.9134 8.09508L14.4013 7.90492L14.0119 4.85762L12.524 5.04779ZM7.40485 4.85762L7.01538 7.90492L8.50328 8.09508L8.89275 5.04779L7.40485 4.85762Z" fill="black"/>
</svg>
