<svg width="14" height="14" viewBox="0 0 14 14" fill="none" xmlns="http://www.w3.org/2000/svg">
<path d="M9.67857 11.8216H4.32142C2.17857 11.8216 1.64285 11.2859 1.64285 9.143V4.85728C1.64285 2.71443 2.17857 2.17871 4.32142 2.17871H9.67857C11.8214 2.17871 12.3571 2.71443 12.3571 4.85728V9.143C12.3571 11.2859 11.8214 11.8216 9.67857 11.8216Z" stroke="#1565D8" stroke-width="0.7" stroke-linecap="round" stroke-linejoin="round"/>
<path d="M8.07143 4.85718H10.75" stroke="#1565D8" stroke-width="0.7" stroke-linecap="round" stroke-linejoin="round"/>
<path d="M8.60715 7H10.75" stroke="#1565D8" stroke-width="0.7" stroke-linecap="round" stroke-linejoin="round"/>
<path d="M9.67857 9.14307H10.75" stroke="#1565D8" stroke-width="0.7" stroke-linecap="round" stroke-linejoin="round"/>
<path d="M5.12499 6.61971C5.66051 6.61971 6.09464 6.18558 6.09464 5.65006C6.09464 5.11454 5.66051 4.68042 5.12499 4.68042C4.58947 4.68042 4.15535 5.11454 4.15535 5.65006C4.15535 6.18558 4.58947 6.61971 5.12499 6.61971Z" stroke="#1565D8" stroke-width="0.7" stroke-linecap="round" stroke-linejoin="round"/>
<path d="M7 9.31976C6.925 8.54298 6.30893 7.93226 5.53214 7.86262C5.26429 7.83583 4.99107 7.83583 4.71786 7.86262C3.94107 7.93762 3.325 8.54298 3.25 9.31976" stroke="#1565D8" stroke-width="0.7" stroke-linecap="round" stroke-linejoin="round"/>
</svg>
