<svg width="16" height="16" viewBox="0 0 16 16" fill="none" xmlns="http://www.w3.org/2000/svg">
<path d="M1.30664 5.56396H7.52518" stroke="black" stroke-miterlimit="10" stroke-linecap="round" stroke-linejoin="round"/>
<path d="M3.92505 10.8005H5.23422" stroke="black" stroke-miterlimit="10" stroke-linecap="round" stroke-linejoin="round"/>
<path d="M6.87061 10.8005H9.48894" stroke="black" stroke-miterlimit="10" stroke-linecap="round" stroke-linejoin="round"/>
<path d="M14.3983 7.87461V10.5453C14.3983 12.8429 13.8157 13.4189 11.492 13.4189H4.21299C1.88922 13.4189 1.30664 12.8429 1.30664 10.5453V5.16464C1.30664 2.86705 1.88922 2.29102 4.21299 2.29102H9.48893" stroke="black" stroke-linecap="round" stroke-linejoin="round"/>
<path d="M12.487 2.70345L10.0585 5.13195C9.96689 5.22359 9.87525 5.40688 9.85561 5.53779L9.72469 6.4673C9.67887 6.80114 9.91452 7.03679 10.2484 6.99097L11.1779 6.86005C11.3088 6.84041 11.4921 6.74877 11.5837 6.65713L14.0122 4.22863C14.4311 3.80969 14.6275 3.3253 14.0122 2.70999C13.3904 2.08814 12.906 2.28451 12.487 2.70345Z" stroke="black" stroke-miterlimit="10" stroke-linecap="round" stroke-linejoin="round"/>
<path d="M12.1399 3.05029C12.3494 3.78997 12.9254 4.36601 13.6585 4.56893" stroke="black" stroke-miterlimit="10" stroke-linecap="round" stroke-linejoin="round"/>
</svg>
