<svg width="18" height="19" viewBox="0 0 18 19" fill="none" xmlns="http://www.w3.org/2000/svg">
<path d="M9.12004 8.83219C9.04504 8.82469 8.95504 8.82469 8.87254 8.83219C7.08754 8.77219 5.67004 7.30969 5.67004 5.50969C5.67004 3.67219 7.15504 2.17969 9.00004 2.17969C10.8375 2.17969 12.33 3.67219 12.33 5.50969C12.3225 7.30969 10.905 8.77219 9.12004 8.83219Z" stroke="#1565D8" stroke-linecap="round" stroke-linejoin="round"/>
<path d="M5.37004 11.5997C3.55504 12.8147 3.55504 14.7947 5.37004 16.0022C7.43254 17.3822 10.815 17.3822 12.8775 16.0022C14.6925 14.7872 14.6925 12.8072 12.8775 11.5997C10.8225 10.2272 7.44004 10.2272 5.37004 11.5997Z" stroke="#1565D8" stroke-linecap="round" stroke-linejoin="round"/>
</svg>
