<svg width="12" height="11" viewBox="0 0 12 11" fill="none" xmlns="http://www.w3.org/2000/svg">
<path d="M6.35298 4.98507C6.30703 4.98067 6.25188 4.98067 6.20133 4.98507C5.10758 4.94989 4.23901 4.09253 4.23901 3.0373C4.23901 1.9601 5.14894 1.08514 6.27945 1.08514C7.40537 1.08514 8.3199 1.9601 8.3199 3.0373C8.3153 4.09253 7.44673 4.94989 6.35298 4.98507Z" fill="white"/>
<path d="M4.05505 6.60748C2.94291 7.31976 2.94291 8.4805 4.05505 9.18838C5.31883 9.99738 7.39144 9.99738 8.65523 9.18838C9.76736 8.47611 9.76736 7.31536 8.65523 6.60748C7.39604 5.80288 5.32343 5.80288 4.05505 6.60748Z" fill="white"/>
</svg>
