<svg width="12" height="11" viewBox="0 0 12 11" fill="none" xmlns="http://www.w3.org/2000/svg">
<path d="M6.35286 4.98507C6.30691 4.98067 6.25176 4.98067 6.20121 4.98507C5.10746 4.94989 4.23889 4.09253 4.23889 3.0373C4.23889 1.9601 5.14882 1.08514 6.27933 1.08514C7.40525 1.08514 8.31977 1.9601 8.31977 3.0373C8.31518 4.09253 7.44661 4.94989 6.35286 4.98507Z" fill="white"/>
<path d="M4.05505 6.60748C2.94291 7.31976 2.94291 8.4805 4.05505 9.18838C5.31883 9.99738 7.39144 9.99738 8.65523 9.18838C9.76736 8.47611 9.76736 7.31536 8.65523 6.60748C7.39604 5.80288 5.32343 5.80288 4.05505 6.60748Z" fill="white"/>
</svg>
