<svg width="12" height="11" viewBox="0 0 12 11" fill="none" xmlns="http://www.w3.org/2000/svg">
<path d="M6.35286 4.98513C6.30691 4.98073 6.25176 4.98073 6.20121 4.98513C5.10746 4.94996 4.23889 4.09259 4.23889 3.03737C4.23889 1.96016 5.14882 1.08521 6.27933 1.08521C7.40525 1.08521 8.31977 1.96016 8.31977 3.03737C8.31518 4.09259 7.44661 4.94996 6.35286 4.98513Z" fill="white"/>
<path d="M4.05505 6.60751C2.94291 7.31979 2.94291 8.48053 4.05505 9.18841C5.31883 9.99741 7.39144 9.99741 8.65523 9.18841C9.76736 8.47614 9.76736 7.31539 8.65523 6.60751C7.39604 5.80291 5.32343 5.80291 4.05505 6.60751Z" fill="white"/>
</svg>
