<svg width="14" height="14" viewBox="0 0 14 14" fill="none" xmlns="http://www.w3.org/2000/svg">
<path d="M12.069 7.1379H2.47332C1.96155 7.1379 1.54041 6.71676 1.54041 6.20499V4.43511C1.54041 4.07261 1.79095 3.70478 2.1268 3.5715L6.92464 1.65238C7.12721 1.57242 7.41511 1.57242 7.61769 1.65238L12.4155 3.5715C12.7514 3.70478 13.0019 4.07794 13.0019 4.43511V6.20499C13.0019 6.71676 12.5808 7.1379 12.069 7.1379ZM7.27116 2.38805C7.24984 2.38805 7.22853 2.38802 7.21787 2.39336L2.42533 4.31251C2.39334 4.32851 2.34005 4.3978 2.34005 4.43511V6.20499C2.34005 6.27962 2.39869 6.33826 2.47332 6.33826H12.069C12.1436 6.33826 12.2023 6.27962 12.2023 6.20499V4.43511C12.2023 4.3978 12.1543 4.32851 12.117 4.31251L7.31915 2.39336C7.30849 2.38802 7.29249 2.38805 7.27116 2.38805Z" fill="#1565D8"/>
<path d="M12.6021 13.0019H1.94023C1.72166 13.0019 1.54041 12.8206 1.54041 12.6021V11.0028C1.54041 10.491 1.96155 10.0699 2.47332 10.0699H12.069C12.5808 10.0699 13.0019 10.491 13.0019 11.0028V12.6021C13.0019 12.8206 12.8207 13.0019 12.6021 13.0019ZM2.34005 12.2023H12.2023V11.0028C12.2023 10.9282 12.1436 10.8695 12.069 10.8695H2.47332C2.39869 10.8695 2.34005 10.9282 2.34005 11.0028V12.2023Z" fill="#1565D8"/>
<path d="M3.00639 10.8696C2.78782 10.8696 2.60657 10.6883 2.60657 10.4697V6.73808C2.60657 6.51951 2.78782 6.33826 3.00639 6.33826C3.22496 6.33826 3.40621 6.51951 3.40621 6.73808V10.4697C3.40621 10.6883 3.22496 10.8696 3.00639 10.8696Z" fill="#1565D8"/>
<path d="M5.13883 10.8696C4.92027 10.8696 4.73901 10.6883 4.73901 10.4697V6.73808C4.73901 6.51951 4.92027 6.33826 5.13883 6.33826C5.3574 6.33826 5.53865 6.51951 5.53865 6.73808V10.4697C5.53865 10.6883 5.3574 10.8696 5.13883 10.8696Z" fill="#1565D8"/>
<path d="M7.27116 10.8696C7.05259 10.8696 6.87134 10.6883 6.87134 10.4697V6.73808C6.87134 6.51951 7.05259 6.33826 7.27116 6.33826C7.48973 6.33826 7.67098 6.51951 7.67098 6.73808V10.4697C7.67098 10.6883 7.48973 10.8696 7.27116 10.8696Z" fill="#1565D8"/>
<path d="M9.40348 10.8696C9.18491 10.8696 9.00366 10.6883 9.00366 10.4697V6.73808C9.00366 6.51951 9.18491 6.33826 9.40348 6.33826C9.62205 6.33826 9.8033 6.51951 9.8033 6.73808V10.4697C9.8033 10.6883 9.62205 10.8696 9.40348 10.8696Z" fill="#1565D8"/>
<path d="M11.5359 10.8696C11.3174 10.8696 11.1361 10.6883 11.1361 10.4697V6.73808C11.1361 6.51951 11.3174 6.33826 11.5359 6.33826C11.7545 6.33826 11.9357 6.51951 11.9357 6.73808V10.4697C11.9357 10.6883 11.7545 10.8696 11.5359 10.8696Z" fill="#1565D8"/>
<path d="M13.1352 13.0019H1.40714C1.18858 13.0019 1.00732 12.8207 1.00732 12.6021C1.00732 12.3835 1.18858 12.2023 1.40714 12.2023H13.1352C13.3538 12.2023 13.535 12.3835 13.535 12.6021C13.535 12.8207 13.3538 13.0019 13.1352 13.0019Z" fill="#1565D8"/>
<path d="M7.27112 5.80511C6.61008 5.80511 6.07166 5.26668 6.07166 4.60565C6.07166 3.94461 6.61008 3.40619 7.27112 3.40619C7.93215 3.40619 8.47058 3.94461 8.47058 4.60565C8.47058 5.26668 7.93215 5.80511 7.27112 5.80511ZM7.27112 4.20583C7.05255 4.20583 6.8713 4.38708 6.8713 4.60565C6.8713 4.82422 7.05255 5.00547 7.27112 5.00547C7.48968 5.00547 7.67094 4.82422 7.67094 4.60565C7.67094 4.38708 7.48968 4.20583 7.27112 4.20583Z" fill="#1565D8"/>
</svg>
