<svg width="12" height="11" viewBox="0 0 12 11" fill="none" xmlns="http://www.w3.org/2000/svg">
<path d="M6.35286 4.98537C6.30691 4.98098 6.25176 4.98098 6.20121 4.98537C5.10746 4.9502 4.23889 4.09283 4.23889 3.03761C4.23889 1.9604 5.14882 1.08545 6.27933 1.08545C7.40525 1.08545 8.31977 1.9604 8.31977 3.03761C8.31518 4.09283 7.44661 4.9502 6.35286 4.98537Z" fill="white"/>
<path d="M4.05505 6.60785C2.94291 7.32012 2.94291 8.48087 4.05505 9.18875C5.31883 9.99775 7.39144 9.99775 8.65523 9.18875C9.76736 8.47647 9.76736 7.31573 8.65523 6.60785C7.39604 5.80324 5.32343 5.80324 4.05505 6.60785Z" fill="white"/>
</svg>
