<svg width="16" height="16" viewBox="0 0 16 16" fill="none" xmlns="http://www.w3.org/2000/svg">
<path d="M13.4021 7.85269H2.60212C2.02612 7.85269 1.55212 7.37869 1.55212 6.80269V4.81069C1.55212 4.40269 1.83411 3.98869 2.21211 3.83869L7.61211 1.67871C7.84011 1.58871 8.16414 1.58871 8.39214 1.67871L13.7921 3.83869C14.1701 3.98869 14.4521 4.40869 14.4521 4.81069V6.80269C14.4521 7.37869 13.9781 7.85269 13.4021 7.85269ZM8.00212 2.50671C7.97812 2.50671 7.95414 2.50668 7.94214 2.51268L2.54811 4.6727C2.51211 4.6907 2.45212 4.76869 2.45212 4.81069V6.80269C2.45212 6.88669 2.51812 6.95269 2.60212 6.95269H13.4021C13.4861 6.95269 13.5521 6.88669 13.5521 6.80269V4.81069C13.5521 4.76869 13.4981 4.6907 13.4561 4.6727L8.05614 2.51268C8.04414 2.50668 8.02612 2.50671 8.00212 2.50671Z" fill="#1565D8"/>
<path d="M14.0021 14.4526H2.00212C1.75612 14.4526 1.55212 14.2486 1.55212 14.0026V12.2026C1.55212 11.6266 2.02612 11.1526 2.60212 11.1526H13.4021C13.9781 11.1526 14.4521 11.6266 14.4521 12.2026V14.0026C14.4521 14.2486 14.2481 14.4526 14.0021 14.4526ZM2.45212 13.5526H13.5521V12.2026C13.5521 12.1186 13.4861 12.0526 13.4021 12.0526H2.60212C2.51812 12.0526 2.45212 12.1186 2.45212 12.2026V13.5526Z" fill="#1565D8"/>
<path d="M3.20208 12.0527C2.95608 12.0527 2.75208 11.8487 2.75208 11.6027V7.4027C2.75208 7.1567 2.95608 6.9527 3.20208 6.9527C3.44807 6.9527 3.65207 7.1567 3.65207 7.4027V11.6027C3.65207 11.8487 3.44807 12.0527 3.20208 12.0527Z" fill="#1565D8"/>
<path d="M5.6021 12.0527C5.3561 12.0527 5.1521 11.8487 5.1521 11.6027V7.4027C5.1521 7.1567 5.3561 6.9527 5.6021 6.9527C5.8481 6.9527 6.0521 7.1567 6.0521 7.4027V11.6027C6.0521 11.8487 5.8481 12.0527 5.6021 12.0527Z" fill="#1565D8"/>
<path d="M8.00212 12.0527C7.75612 12.0527 7.55212 11.8487 7.55212 11.6027V7.4027C7.55212 7.1567 7.75612 6.9527 8.00212 6.9527C8.24812 6.9527 8.45212 7.1567 8.45212 7.4027V11.6027C8.45212 11.8487 8.24812 12.0527 8.00212 12.0527Z" fill="#1565D8"/>
<path d="M10.4021 12.0527C10.1561 12.0527 9.95215 11.8487 9.95215 11.6027V7.4027C9.95215 7.1567 10.1561 6.9527 10.4021 6.9527C10.6481 6.9527 10.8521 7.1567 10.8521 7.4027V11.6027C10.8521 11.8487 10.6481 12.0527 10.4021 12.0527Z" fill="#1565D8"/>
<path d="M12.8022 12.0527C12.5562 12.0527 12.3522 11.8487 12.3522 11.6027V7.4027C12.3522 7.1567 12.5562 6.9527 12.8022 6.9527C13.0482 6.9527 13.2522 7.1567 13.2522 7.4027V11.6027C13.2522 11.8487 13.0482 12.0527 12.8022 12.0527Z" fill="#1565D8"/>
<path d="M14.6021 14.4527H1.40215C1.15615 14.4527 0.952148 14.2487 0.952148 14.0027C0.952148 13.7567 1.15615 13.5527 1.40215 13.5527H14.6021C14.8481 13.5527 15.0521 13.7567 15.0521 14.0027C15.0521 14.2487 14.8481 14.4527 14.6021 14.4527Z" fill="#1565D8"/>
<path d="M8.0021 6.35265C7.2581 6.35265 6.6521 5.74665 6.6521 5.00265C6.6521 4.25865 7.2581 3.65265 8.0021 3.65265C8.7461 3.65265 9.3521 4.25865 9.3521 5.00265C9.3521 5.74665 8.7461 6.35265 8.0021 6.35265ZM8.0021 4.55265C7.7561 4.55265 7.5521 4.75665 7.5521 5.00265C7.5521 5.24865 7.7561 5.45265 8.0021 5.45265C8.2481 5.45265 8.4521 5.24865 8.4521 5.00265C8.4521 4.75665 8.2481 4.55265 8.0021 4.55265Z" fill="#1565D8"/>
</svg>
