<svg width="14" height="14" viewBox="0 0 14 14" fill="none" xmlns="http://www.w3.org/2000/svg">
<path d="M4.58928 2.71436H9.41071C9.74285 2.71436 10.0375 2.72507 10.3 2.76257C11.7089 2.91793 12.0893 3.58221 12.0893 5.39293V8.60721C12.0893 10.4179 11.7089 11.0822 10.3 11.2376C10.0375 11.2751 9.74285 11.2858 9.41071 11.2858H4.58928C4.25713 11.2858 3.96249 11.2751 3.69999 11.2376C2.29106 11.0822 1.91071 10.4179 1.91071 8.60721V5.39293C1.91071 3.58221 2.29106 2.91793 3.69999 2.76257C3.96249 2.72507 4.25713 2.71436 4.58928 2.71436Z" stroke="#1565D8" stroke-width="0.7" stroke-linecap="round" stroke-linejoin="round"/>
<path d="M7.80357 5.92871H9.67857" stroke="#1565D8" stroke-width="0.7" stroke-linecap="round" stroke-linejoin="round"/>
<path d="M4.32143 8.875H4.33214H9.67857" stroke="#1565D8" stroke-width="0.7" stroke-linecap="round" stroke-linejoin="round"/>
<path d="M5.97925 5.92875H5.98407" stroke="#1565D8" stroke-width="0.7" stroke-linecap="round" stroke-linejoin="round"/>
</svg>
