<svg width="18" height="18" viewBox="0 0 18 18" fill="none" xmlns="http://www.w3.org/2000/svg">
<path d="M13.5749 16.1678C12.9192 16.3616 12.1443 16.451 11.2353 16.451H6.76472C5.8557 16.451 5.0808 16.3616 4.42511 16.1678C4.58903 14.2306 6.57844 12.7031 9.00001 12.7031C11.4216 12.7031 13.411 14.2306 13.5749 16.1678Z" stroke="#1565D8" stroke-linecap="round" stroke-linejoin="round"/>
<path d="M11.2353 1.54901H6.76473C3.03924 1.54901 1.54904 3.03921 1.54904 6.7647V11.2353C1.54904 14.0518 2.39845 15.5941 4.42512 16.1678C4.58904 14.2306 6.57845 12.7031 9.00002 12.7031C11.4216 12.7031 13.411 14.2306 13.5749 16.1678C15.6016 15.5941 16.451 14.0518 16.451 11.2353V6.7647C16.451 3.03921 14.9608 1.54901 11.2353 1.54901ZM9.00002 10.6168C7.52473 10.6168 6.33257 9.41726 6.33257 7.94197C6.33257 6.46667 7.52473 5.2745 9.00002 5.2745C10.4753 5.2745 11.6675 6.46667 11.6675 7.94197C11.6675 9.41726 10.4753 10.6168 9.00002 10.6168Z" stroke="#1565D8" stroke-linecap="round" stroke-linejoin="round"/>
<path d="M11.6675 7.942C11.6675 9.41729 10.4753 10.6169 9 10.6169C7.52471 10.6169 6.33255 9.41729 6.33255 7.942C6.33255 6.46671 7.52471 5.27454 9 5.27454C10.4753 5.27454 11.6675 6.46671 11.6675 7.942Z" stroke="#1565D8" stroke-linecap="round" stroke-linejoin="round"/>
</svg>
