<svg width="20" height="20" viewBox="0 0 20 20" fill="none" xmlns="http://www.w3.org/2000/svg">
<path d="M17.2004 9.80038H2.80039C2.03239 9.80038 1.40039 9.16838 1.40039 8.40038V5.74437C1.40039 5.20037 1.77637 4.64838 2.28037 4.44838L9.48037 1.56839C9.78437 1.44839 10.2164 1.44839 10.5204 1.56839L17.7204 4.44838C18.2244 4.64838 18.6004 5.20837 18.6004 5.74437V8.40038C18.6004 9.16838 17.9684 9.80038 17.2004 9.80038ZM10.0004 2.6724C9.96839 2.6724 9.93641 2.67236 9.92041 2.68036L2.72837 5.56039C2.68037 5.58439 2.60039 5.68837 2.60039 5.74437V8.40038C2.60039 8.51238 2.68839 8.60038 2.80039 8.60038H17.2004C17.3124 8.60038 17.4004 8.51238 17.4004 8.40038V5.74437C17.4004 5.68837 17.3284 5.58439 17.2724 5.56039L10.0724 2.68036C10.0564 2.67236 10.0324 2.6724 10.0004 2.6724Z" fill="#1565D8"/>
<path d="M18.0004 18.6004H2.00039C1.67239 18.6004 1.40039 18.3284 1.40039 18.0004V15.6004C1.40039 14.8324 2.03239 14.2004 2.80039 14.2004H17.2004C17.9684 14.2004 18.6004 14.8324 18.6004 15.6004V18.0004C18.6004 18.3284 18.3284 18.6004 18.0004 18.6004ZM2.60039 17.4004H17.4004V15.6004C17.4004 15.4884 17.3124 15.4004 17.2004 15.4004H2.80039C2.68839 15.4004 2.60039 15.4884 2.60039 15.6004V17.4004Z" fill="#1565D8"/>
<path d="M3.60049 15.4004C3.27249 15.4004 3.00049 15.1284 3.00049 14.8004V9.2004C3.00049 8.8724 3.27249 8.6004 3.60049 8.6004C3.92849 8.6004 4.20049 8.8724 4.20049 9.2004V14.8004C4.20049 15.1284 3.92849 15.4004 3.60049 15.4004Z" fill="#1565D8"/>
<path d="M6.80044 15.4004C6.47244 15.4004 6.20044 15.1284 6.20044 14.8004V9.2004C6.20044 8.8724 6.47244 8.6004 6.80044 8.6004C7.12844 8.6004 7.40044 8.8724 7.40044 9.2004V14.8004C7.40044 15.1284 7.12844 15.4004 6.80044 15.4004Z" fill="#1565D8"/>
<path d="M10.0004 15.4004C9.67239 15.4004 9.40039 15.1284 9.40039 14.8004V9.2004C9.40039 8.8724 9.67239 8.6004 10.0004 8.6004C10.3284 8.6004 10.6004 8.8724 10.6004 9.2004V14.8004C10.6004 15.1284 10.3284 15.4004 10.0004 15.4004Z" fill="#1565D8"/>
<path d="M13.2003 15.4004C12.8723 15.4004 12.6003 15.1284 12.6003 14.8004V9.2004C12.6003 8.8724 12.8723 8.6004 13.2003 8.6004C13.5283 8.6004 13.8003 8.8724 13.8003 9.2004V14.8004C13.8003 15.1284 13.5283 15.4004 13.2003 15.4004Z" fill="#1565D8"/>
<path d="M16.4003 15.4004C16.0723 15.4004 15.8003 15.1284 15.8003 14.8004V9.2004C15.8003 8.8724 16.0723 8.6004 16.4003 8.6004C16.7283 8.6004 17.0003 8.8724 17.0003 9.2004V14.8004C17.0003 15.1284 16.7283 15.4004 16.4003 15.4004Z" fill="#1565D8"/>
<path d="M18.8003 18.6004H1.20034C0.872342 18.6004 0.600342 18.3284 0.600342 18.0004C0.600342 17.6724 0.872342 17.4004 1.20034 17.4004H18.8003C19.1283 17.4004 19.4003 17.6724 19.4003 18.0004C19.4003 18.3284 19.1283 18.6004 18.8003 18.6004Z" fill="#1565D8"/>
<path d="M10.0004 7.80044C9.00844 7.80044 8.20044 6.99244 8.20044 6.00044C8.20044 5.00844 9.00844 4.20044 10.0004 4.20044C10.9924 4.20044 11.8004 5.00844 11.8004 6.00044C11.8004 6.99244 10.9924 7.80044 10.0004 7.80044ZM10.0004 5.40044C9.67244 5.40044 9.40044 5.67244 9.40044 6.00044C9.40044 6.32844 9.67244 6.60044 10.0004 6.60044C10.3284 6.60044 10.6004 6.32844 10.6004 6.00044C10.6004 5.67244 10.3284 5.40044 10.0004 5.40044Z" fill="#1565D8"/>
</svg>
