<svg width="25" height="25" viewBox="0 0 25 25" fill="none" xmlns="http://www.w3.org/2000/svg">
<path d="M10.8636 24.4319C10.8636 24.708 11.0875 24.9319 11.3636 24.9319C11.6398 24.9319 11.8636 24.708 11.8636 24.4319H10.8636ZM11.3636 15.9092L11.7172 15.5556C11.6234 15.4619 11.4963 15.4092 11.3636 15.4092C11.231 15.4092 11.1039 15.4619 11.0101 15.5556L11.3636 15.9092ZM13.851 19.1036C14.0463 19.2989 14.3628 19.2989 14.5581 19.1036C14.7534 18.9084 14.7534 18.5918 14.5581 18.3965L13.851 19.1036ZM8.16918 18.3965C7.97392 18.5918 7.97392 18.9084 8.16918 19.1036C8.36444 19.2989 8.68103 19.2989 8.87629 19.1036L8.16918 18.3965ZM11.8636 24.4319V15.9092H10.8636V24.4319H11.8636ZM11.0101 16.2627L13.851 19.1036L14.5581 18.3965L11.7172 15.5556L11.0101 16.2627ZM11.0101 15.5556L8.16918 18.3965L8.87629 19.1036L11.7172 16.2627L11.0101 15.5556Z" fill="#1565D8"/>
<path d="M17.3021 20.8334C18.6979 20.8438 20.0417 20.323 21.0729 19.3855C24.4792 16.4063 22.6562 10.4272 18.1667 9.86465C16.5625 0.135484 2.53125 3.82299 5.85416 13.0834" stroke="#1565D8" stroke-miterlimit="10" stroke-linecap="round" stroke-linejoin="round"/>
<path d="M7.58334 13.5105C7.03126 13.2292 6.41668 13.0834 5.80209 13.0938C0.947928 13.4375 0.958344 20.5 5.80209 20.8438" stroke="#1565D8" stroke-miterlimit="10" stroke-linecap="round" stroke-linejoin="round"/>
<path d="M16.4792 10.3021C17.0208 10.0313 17.6042 9.88542 18.2083 9.875" stroke="#1565D8" stroke-miterlimit="10" stroke-linecap="round" stroke-linejoin="round"/>
</svg>
