<svg width="20" height="20" viewBox="0 0 20 20" fill="none" xmlns="http://www.w3.org/2000/svg">
<path d="M17.2003 9.80032H2.80034C2.03234 9.80032 1.40034 9.16832 1.40034 8.40032V5.74431C1.40034 5.20031 1.77632 4.64831 2.28032 4.44831L9.48032 1.56833C9.78432 1.44833 10.2164 1.44833 10.5204 1.56833L17.7204 4.44831C18.2244 4.64831 18.6003 5.20831 18.6003 5.74431V8.40032C18.6003 9.16832 17.9683 9.80032 17.2003 9.80032ZM10.0003 2.67234C9.96834 2.67234 9.93636 2.6723 9.92036 2.6803L2.72832 5.56033C2.68032 5.58433 2.60034 5.68831 2.60034 5.74431V8.40032C2.60034 8.51232 2.68834 8.60032 2.80034 8.60032H17.2003C17.3123 8.60032 17.4003 8.51232 17.4003 8.40032V5.74431C17.4003 5.68831 17.3284 5.58433 17.2724 5.56033L10.0724 2.6803C10.0564 2.6723 10.0323 2.67234 10.0003 2.67234Z" fill="#1565D8"/>
<path d="M18.0003 18.6003H2.00034C1.67234 18.6003 1.40034 18.3283 1.40034 18.0003V15.6003C1.40034 14.8323 2.03234 14.2003 2.80034 14.2003H17.2003C17.9683 14.2003 18.6003 14.8323 18.6003 15.6003V18.0003C18.6003 18.3283 18.3283 18.6003 18.0003 18.6003ZM2.60034 17.4003H17.4003V15.6003C17.4003 15.4883 17.3123 15.4003 17.2003 15.4003H2.80034C2.68834 15.4003 2.60034 15.4883 2.60034 15.6003V17.4003Z" fill="#1565D8"/>
<path d="M3.60034 15.4003C3.27234 15.4003 3.00034 15.1283 3.00034 14.8003V9.20034C3.00034 8.87234 3.27234 8.60034 3.60034 8.60034C3.92834 8.60034 4.20034 8.87234 4.20034 9.20034V14.8003C4.20034 15.1283 3.92834 15.4003 3.60034 15.4003Z" fill="#1565D8"/>
<path d="M6.80034 15.4003C6.47234 15.4003 6.20034 15.1283 6.20034 14.8003V9.20034C6.20034 8.87234 6.47234 8.60034 6.80034 8.60034C7.12834 8.60034 7.40034 8.87234 7.40034 9.20034V14.8003C7.40034 15.1283 7.12834 15.4003 6.80034 15.4003Z" fill="#1565D8"/>
<path d="M10.0003 15.4003C9.67234 15.4003 9.40034 15.1283 9.40034 14.8003V9.20034C9.40034 8.87234 9.67234 8.60034 10.0003 8.60034C10.3283 8.60034 10.6003 8.87234 10.6003 9.20034V14.8003C10.6003 15.1283 10.3283 15.4003 10.0003 15.4003Z" fill="#1565D8"/>
<path d="M13.2003 15.4003C12.8723 15.4003 12.6003 15.1283 12.6003 14.8003V9.20034C12.6003 8.87234 12.8723 8.60034 13.2003 8.60034C13.5283 8.60034 13.8003 8.87234 13.8003 9.20034V14.8003C13.8003 15.1283 13.5283 15.4003 13.2003 15.4003Z" fill="#1565D8"/>
<path d="M16.4003 15.4003C16.0723 15.4003 15.8003 15.1283 15.8003 14.8003V9.20034C15.8003 8.87234 16.0723 8.60034 16.4003 8.60034C16.7283 8.60034 17.0003 8.87234 17.0003 9.20034V14.8003C17.0003 15.1283 16.7283 15.4003 16.4003 15.4003Z" fill="#1565D8"/>
<path d="M18.8003 18.6003H1.20034C0.872338 18.6003 0.600338 18.3283 0.600338 18.0003C0.600338 17.6723 0.872338 17.4003 1.20034 17.4003H18.8003C19.1283 17.4003 19.4003 17.6723 19.4003 18.0003C19.4003 18.3283 19.1283 18.6003 18.8003 18.6003Z" fill="#1565D8"/>
<path d="M10.0003 7.80032C9.00834 7.80032 8.20034 6.99232 8.20034 6.00032C8.20034 5.00832 9.00834 4.20032 10.0003 4.20032C10.9923 4.20032 11.8003 5.00832 11.8003 6.00032C11.8003 6.99232 10.9923 7.80032 10.0003 7.80032ZM10.0003 5.40032C9.67234 5.40032 9.40034 5.67232 9.40034 6.00032C9.40034 6.32832 9.67234 6.60032 10.0003 6.60032C10.3283 6.60032 10.6003 6.32832 10.6003 6.00032C10.6003 5.67232 10.3283 5.40032 10.0003 5.40032Z" fill="#1565D8"/>
</svg>
