<svg width="12" height="11" viewBox="0 0 12 11" fill="none" xmlns="http://www.w3.org/2000/svg">
<path d="M6.35298 4.98513C6.30703 4.98073 6.25188 4.98073 6.20133 4.98513C5.10758 4.94996 4.23901 4.09259 4.23901 3.03737C4.23901 1.96016 5.14894 1.08521 6.27945 1.08521C7.40537 1.08521 8.3199 1.96016 8.3199 3.03737C8.3153 4.09259 7.44673 4.94996 6.35298 4.98513Z" fill="white"/>
<path d="M4.05505 6.60761C2.94291 7.31988 2.94291 8.48062 4.05505 9.1885C5.31883 9.99751 7.39144 9.99751 8.65523 9.1885C9.76736 8.47623 9.76736 7.31548 8.65523 6.60761C7.39604 5.803 5.32343 5.803 4.05505 6.60761Z" fill="white"/>
</svg>
